<svg width="881" height="933" viewBox="0 0 881 933" fill="none" xmlns="http://www.w3.org/2000/svg">
<g opacity="0.3">
<path opacity="0.3" d="M91.9477 378.343L92.949 374.335L188.076 23.0413L19.184 65.1164L19.5178 66.1182L91.9477 378.343ZM185.072 26.0466L91.9477 369.994L21.5204 66.7861L185.072 26.0466Z" fill="#363636"/>
</g>
<g opacity="0.3">
<path opacity="0.3" d="M713.109 887.252L777.195 619.774H775.86L512.842 638.14L514.177 639.81L713.109 887.252ZM774.191 622.111L711.774 882.577L516.514 640.143L774.191 622.111Z" fill="#363636"/>
</g>
<g opacity="0.3">
<path opacity="0.3" d="M93.2831 375.671L19.518 56.7681L20.5194 357.305L93.2831 375.671ZM21.5207 75.1342L90.6128 373L22.522 355.969L21.5207 75.1342Z" fill="#363636"/>
</g>
<g opacity="0.3">
<path opacity="0.3" d="M881 688.563V621.443L867.983 599.738H867.315L772.856 620.442L881 688.563ZM878.997 621.777V684.556L778.196 621.443L866.981 601.741L878.997 621.777Z" fill="#363636"/>
</g>
<g opacity="0.3">
<path opacity="0.3" d="M816.581 817.46L881 770.376V685.892L880.666 685.558L774.191 618.772L774.858 621.11L816.581 817.46ZM878.997 769.374L817.916 813.787L777.195 623.113L878.997 687.228V769.374Z" fill="#363636"/>
</g>
<g opacity="0.3">
<path opacity="0.3" d="M881 625.451V613.429L862.308 594.061L881 625.451ZM878.997 614.097V618.104L872.989 608.086L878.997 614.097Z" fill="#363636"/>
</g>
<g opacity="0.3">
<path opacity="0.3" d="M866.314 933L881 909.291V891.927L866.314 933ZM878.997 908.623L874.992 915.302L878.997 903.614V908.623Z" fill="#363636"/>
</g>
<g opacity="0.3">
<path opacity="0.3" d="M506.834 322.242L629.998 152.606L629.331 151.938L477.795 0H444.084L444.417 1.33572L506.834 322.242ZM627.328 152.606L507.835 317.233L446.42 2.00358H476.794L627.328 152.606Z" fill="#363636"/>
</g>
<g opacity="0.3">
<path opacity="0.3" d="M881 180.656V85.1521L831.935 163.626L881 180.656ZM878.997 92.4986V177.985L834.939 162.624L878.997 92.4986Z" fill="#363636"/>
</g>
<g opacity="0.3">
<path opacity="0.3" d="M102.963 453.477L217.115 395.707L90.613 372.666L102.963 453.477ZM210.773 396.709L104.632 450.471L93.2833 375.337L210.773 396.709Z" fill="#363636"/>
</g>
<g opacity="0.3">
<path opacity="0.3" d="M547.222 420.418L508.17 318.569L507.168 318.903L207.435 397.377L547.222 420.418ZM506.834 320.907L544.218 418.08L220.453 395.707L506.834 320.907Z" fill="#363636"/>
</g>
<g opacity="0.3">
<path opacity="0.3" d="M185.74 26.3805L230.132 0H181.401L185.74 26.3805ZM222.789 2.00358L187.409 23.0412L184.071 2.00358H222.789Z" fill="#363636"/>
</g>
<g opacity="0.3">
<path opacity="0.3" d="M-119 436.78L-117.331 435.778L23.5236 356.637L-119 267.478V436.78ZM19.5182 356.303L-116.997 433.107V271.151L19.5182 356.303Z" fill="#363636"/>
</g>
<g opacity="0.3">
<path opacity="0.3" d="M770.519 623.447L872.656 600.74L820.92 590.388L770.519 623.447ZM862.642 600.74L780.866 618.772L821.254 592.392L862.642 600.74Z" fill="#363636"/>
</g>
<g opacity="0.3">
<path opacity="0.3" d="M775.526 622.445L822.923 591.724L546.221 418.414L544.885 420.084L775.526 622.445ZM819.251 591.39L775.86 619.774L555.9 426.763L819.251 591.39Z" fill="#363636"/>
</g>
</svg>
