<svg width="51" height="51" viewBox="0 0 51 51" fill="none" xmlns="http://www.w3.org/2000/svg">
<path d="M51 13.9091V0H37.0909V4.63636H13.9091V0H0V13.9091H4.63636V37.0909H0V51H13.9091V46.3636H37.0909V51H51V37.0909H46.3636V13.9091H51ZM4.63636 4.63636H9.27273V9.27273H4.63636V4.63636ZM9.27273 46.3636H4.63636V41.7273H9.27273V46.3636ZM37.0909 41.7273H13.9091V37.0909H9.27273V13.9091H13.9091V9.27273H37.0909V13.9091H41.7273V37.0909H37.0909V41.7273ZM46.3636 46.3636H41.7273V41.7273H46.3636V46.3636ZM41.7273 9.27273V4.63636H46.3636V9.27273H41.7273ZM29.5105 30.1364H21.42L19.7277 34.7727H15.9723L23.8541 13.9091H27.0995L35.0045 34.7727H31.2259L29.5105 30.1364ZM22.4632 27.2155H28.5136L25.5 18.3368L22.4632 27.2155Z" fill="#171717"/>
</svg>
