<svg width="51" height="51" viewBox="0 0 51 51" fill="none" xmlns="http://www.w3.org/2000/svg">
<path d="M37.5083 24.1052L41.956 19.6575L31.3324 9.03389L26.8847 13.4816L15.1563 1.78154C12.9466 -0.428158 9.34873 -0.428158 7.13903 1.78154L1.75643 7.16415C-0.453272 9.37385 -0.453272 12.9717 1.75643 15.1814L13.4565 26.8815L0 40.3663V50.9899H10.6236L24.1084 37.505L35.8085 49.2051C38.4998 51.8964 42.126 50.9049 43.8257 49.2051L49.2083 43.8225C51.418 41.6128 51.418 38.015 49.2083 35.8053L37.5083 24.1052ZM17.5076 22.8587L5.77922 11.1586L11.1335 5.776L14.7313 9.37385L11.3885 12.7451L15.3829 16.7395L18.7541 13.3683L22.8619 17.4761L17.5076 22.8587ZM39.8313 45.2107L28.1312 33.5106L33.5138 28.128L37.6216 32.2358L34.2504 35.607L38.2448 39.6014L41.616 36.2302L45.2139 39.8281L39.8313 45.2107Z" fill="#171717"/>
<path d="M50.1716 11.442C51.2765 10.3371 51.2765 8.55237 50.1716 7.44752L43.5425 0.818414C42.211 -0.513072 40.3696 -0.00314133 39.5481 0.818414L34.3638 6.00271L44.9873 16.6263L50.1716 11.442Z" fill="black"/>
</svg>
