<svg width="40" height="45" viewBox="0 0 40 45" fill="none" xmlns="http://www.w3.org/2000/svg">
<path d="M35.5556 4.5H26.2667C25.3333 1.89 22.8889 0 20 0C17.1111 0 14.6667 1.89 13.7333 4.5H4.44444C4.13333 4.5 3.84444 4.5225 3.55556 4.59C2.68889 4.77 1.91111 5.22 1.31111 5.8275C0.911111 6.2325 0.577778 6.7275 0.355556 7.2675C0.133334 7.785 0 8.37 0 9V40.5C0 41.1075 0.133334 41.715 0.355556 42.255C0.577778 42.795 0.911111 43.2675 1.31111 43.695C1.91111 44.3025 2.68889 44.7525 3.55556 44.9325C3.84444 44.9775 4.13333 45 4.44444 45H35.5556C38 45 40 42.975 40 40.5V9C40 6.525 38 4.5 35.5556 4.5ZM17.7778 29.6325L14.6444 32.8275L6.66667 24.75L14.6444 16.6725L17.7778 19.8675L12.9556 24.75L17.7778 29.6325ZM20 7.3125C19.0889 7.3125 18.3333 6.5475 18.3333 5.625C18.3333 4.7025 19.0889 3.9375 20 3.9375C20.9111 3.9375 21.6667 4.7025 21.6667 5.625C21.6667 6.5475 20.9111 7.3125 20 7.3125ZM25.3556 32.8275L22.2222 29.6325L27.0444 24.75L22.2222 19.8675L25.3556 16.6725L33.3333 24.75L25.3556 32.8275Z" fill="#171717"/>
</svg>
