<svg width="52" height="52" viewBox="0 0 52 52" fill="none" xmlns="http://www.w3.org/2000/svg">
<path d="M46.2222 0H5.77778C2.6 0 0 2.6 0 5.77778V46.2222C0 49.4 2.6 52 5.77778 52H46.2222C49.4 52 52 49.4 52 46.2222V5.77778C52 2.6 49.4 0 46.2222 0ZM26 5.77778H30.3333V14.4444L36.1111 5.77778H41.0222L35.2444 14.4444L41.0222 23.1111H36.1111L30.3333 14.4444V23.1111H26V5.77778ZM11.5556 12.2778H18.7778V10.1111H11.5556V5.77778H23.1111V16.6111H15.8889V18.7778H23.1111V23.1111H11.5556V12.2778ZM46.2222 28.8889L28.8889 46.2222L17.3333 34.6667L5.77778 46.2222V39L17.3333 27.4444L28.8889 39L46.2222 21.6667V28.8889Z" fill="#171717"/>
</svg>
