<svg width="41" height="41" viewBox="0 0 41 41" fill="none" xmlns="http://www.w3.org/2000/svg">
<rect width="41" height="41" rx="6" fill="#171717"/>
<path d="M26.1073 20.098C27.8269 20.098 29.2101 18.6831 29.2101 16.9398C29.2101 15.1964 27.8269 13.7815 26.1073 13.7815C24.3877 13.7815 22.9921 15.1964 22.9921 16.9398C22.9921 18.6831 24.3877 20.098 26.1073 20.098ZM16.7617 18.8347C18.8302 18.8347 20.4875 17.1419 20.4875 15.0448C20.4875 12.9477 18.8302 11.2549 16.7617 11.2549C14.6932 11.2549 13.0235 12.9477 13.0235 15.0448C13.0235 17.1419 14.6932 18.8347 16.7617 18.8347ZM26.1073 22.6246C23.827 22.6246 19.2539 23.7869 19.2539 26.0987V28.9412H32.9608V26.0987C32.9608 23.7869 28.3876 22.6246 26.1073 22.6246ZM16.7617 21.3613C13.8584 21.3613 8.03918 22.8394 8.03918 25.7829V28.9412H16.7617V26.0987C16.7617 25.0249 17.1729 23.1426 19.7149 21.7151C18.6309 21.4877 17.5841 21.3613 16.7617 21.3613Z" fill="#F8F8F8"/>
</svg>
