<svg width="272" height="57" viewBox="0 0 272 57" fill="none" xmlns="http://www.w3.org/2000/svg">
<g clip-path="url(#clip0)">
<path d="M41.3446 18.9757H22.417V22.3629H13.852V12.6748H41.3446V18.9757ZM37.0797 31.6505H13.852V25.3495H37.0797V31.6505ZM41.3446 44.3252H13.852V34.6371H22.417V38.0243H41.3446V44.3252ZM41.5913 0H13.6053C6.09771 0 0 6.30096 0 14.0588V42.9776C0 50.7355 6.09771 57.0364 13.6053 57.0364H41.5913C49.0989 57.0364 55.1966 50.7355 55.1966 42.9776V14.0588C55.1613 6.30096 49.0989 0 41.5913 0Z" fill="#CFCFCF"/>
<path d="M150.046 21.161H138.767V23.7834H133.656V16.3169H150.01V21.161H150.046ZM147.508 30.922H133.691V26.078H147.508V30.922ZM150.046 40.7195H133.691V33.253H138.802V35.8754H150.081V40.7195H150.046ZM262.342 25.8594C261.602 26.4422 261.144 27.2435 260.897 28.2268C260.756 28.7003 260.686 29.5016 260.615 30.5942C260.615 30.7035 260.65 30.7399 260.756 30.7399H269.497C269.603 30.7399 269.638 30.7035 269.638 30.5942C269.603 29.538 269.533 28.8096 269.427 28.3725C269.18 27.3163 268.687 26.515 267.911 25.8958C267.171 25.2767 266.219 24.9853 265.056 24.9853C263.999 24.9853 263.082 25.2767 262.342 25.8594ZM272 31.3955V32.5246C272 32.7431 271.894 32.8888 271.647 32.8888H260.756C260.65 32.8888 260.615 32.9252 260.615 33.0345C260.65 34.3093 260.721 35.147 260.827 35.5112C261.073 36.5674 261.602 37.3687 262.413 37.9879C263.223 38.607 264.246 38.8984 265.514 38.8984C266.466 38.8984 267.277 38.6799 268.017 38.2428C268.722 37.8058 269.286 37.1866 269.709 36.3489C269.85 36.1304 269.991 36.0939 270.167 36.2032L271.471 37.0045C271.647 37.1137 271.683 37.2958 271.612 37.478C271.048 38.607 270.202 39.4812 269.074 40.1003C267.946 40.7559 266.678 41.0473 265.197 41.0473C263.611 41.0109 262.272 40.6466 261.179 39.8818C260.086 39.1169 259.311 38.0607 258.853 36.6767C258.465 35.5476 258.254 33.945 258.254 31.869C258.254 30.8856 258.254 30.0843 258.289 29.5016C258.324 28.8824 258.395 28.3361 258.536 27.8626C258.923 26.3693 259.699 25.131 260.827 24.2569C261.99 23.3463 263.364 22.9093 265.021 22.9093C267.065 22.9093 268.651 23.4556 269.744 24.5118C270.837 25.5681 271.542 27.0978 271.788 29.0281C271.929 29.5744 272 30.4121 272 31.3955ZM255.54 25.131H251.733C251.627 25.131 251.592 25.1674 251.592 25.2767V35.5476C251.592 36.6767 251.839 37.4415 252.332 37.915C252.826 38.3885 253.566 38.607 254.623 38.607H255.469C255.681 38.607 255.822 38.7163 255.822 38.9712V40.3917C255.822 40.6102 255.716 40.7559 255.469 40.7559C255.187 40.7923 254.799 40.7923 254.235 40.7923C252.614 40.7923 251.38 40.4645 250.57 39.8454C249.724 39.2262 249.336 38.0607 249.336 36.3489V25.2767C249.336 25.1674 249.301 25.131 249.195 25.131H247.08C246.869 25.131 246.728 25.0217 246.728 24.7668V23.4192C246.728 23.2006 246.834 23.055 247.08 23.055H249.125C249.23 23.055 249.266 23.0185 249.266 22.9093V18.9029C249.266 18.6843 249.371 18.5387 249.618 18.5387H251.275C251.486 18.5387 251.627 18.6479 251.627 18.9029V22.9457C251.627 23.055 251.662 23.0914 251.768 23.0914H255.54C255.751 23.0914 255.892 23.2006 255.892 23.4556V24.8032C255.857 25.0217 255.751 25.131 255.54 25.131ZM241.124 40.3188V23.4192C241.124 23.2006 241.229 23.055 241.476 23.055H243.203C243.415 23.055 243.556 23.1642 243.556 23.4192V40.3188C243.556 40.5374 243.45 40.6831 243.203 40.6831H241.441C241.229 40.6831 241.124 40.5738 241.124 40.3188ZM241.053 19.3399C240.701 18.9757 240.524 18.5022 240.524 17.9559C240.524 17.3732 240.701 16.8997 241.053 16.5355C241.406 16.1712 241.864 15.9891 242.392 15.9891C242.921 15.9891 243.379 16.1712 243.732 16.5355C244.084 16.8997 244.261 17.3732 244.261 17.9559C244.261 18.5022 244.084 18.9757 243.732 19.3399C243.379 19.7042 242.921 19.8863 242.392 19.8863C241.864 19.8863 241.406 19.7042 241.053 19.3399ZM223.641 39.2262C222.161 38.0607 221.421 36.4581 221.421 34.4914V33.3987C221.421 33.1802 221.526 33.0345 221.773 33.0345H223.43C223.641 33.0345 223.782 33.1438 223.782 33.3987V34.3457C223.782 35.6933 224.311 36.7859 225.403 37.5872C226.496 38.4249 227.977 38.8256 229.88 38.8256C231.607 38.8256 232.911 38.4613 233.827 37.6965C234.709 36.9316 235.167 35.9482 235.167 34.6735C235.167 33.8722 234.955 33.1802 234.532 32.5974C234.109 32.0147 233.475 31.4684 232.629 30.9585C231.748 30.4486 230.55 29.8658 228.963 29.1738C227.272 28.4818 225.967 27.8626 225.051 27.3527C224.135 26.8428 223.359 26.1508 222.795 25.3495C222.231 24.5118 221.949 23.492 221.949 22.2173C221.949 20.2505 222.619 18.7572 223.923 17.6645C225.227 16.5719 227.025 16.062 229.316 16.062C231.818 16.062 233.757 16.6811 235.202 17.8831C236.647 19.085 237.352 20.6875 237.352 22.6907V23.4556C237.352 23.6741 237.246 23.8198 237 23.8198H235.308C235.096 23.8198 234.955 23.7105 234.955 23.4556V22.8364C234.955 21.4888 234.427 20.3962 233.44 19.522C232.418 18.6479 231.008 18.2473 229.175 18.2473C227.589 18.2473 226.355 18.5751 225.509 19.2671C224.663 19.9227 224.24 20.9061 224.24 22.1808C224.24 23.0185 224.452 23.7105 224.875 24.2569C225.298 24.8032 225.897 25.2767 226.672 25.6773C227.448 26.078 228.646 26.6243 230.268 27.2435C231.924 27.9355 233.228 28.5911 234.215 29.2102C235.202 29.8294 236.013 30.5578 236.647 31.432C237.282 32.3061 237.564 33.3623 237.564 34.6006C237.564 36.5674 236.859 38.0971 235.484 39.2626C234.074 40.4281 232.171 41.0109 229.704 41.0109C227.131 40.9744 225.122 40.3917 223.641 39.2262ZM212.397 26.6243C212.327 26.6971 212.221 26.7335 212.115 26.7335H208.873C208.767 26.7335 208.696 26.8064 208.696 26.9157V34.3093C208.696 35.0741 208.837 35.6569 209.155 36.0211C209.472 36.3853 209.93 36.5674 210.635 36.5674H211.763C211.869 36.5674 211.974 36.6038 212.045 36.6767C212.115 36.7495 212.151 36.8588 212.151 36.9681V40.2824C212.151 40.5374 212.01 40.6831 211.763 40.7195C210.811 40.7559 210.142 40.7923 209.754 40.7923C207.886 40.7923 206.511 40.4645 205.56 39.8454C204.643 39.1898 204.15 38.0243 204.15 36.2396V26.9157C204.15 26.8064 204.079 26.7335 203.973 26.7335H202.07C201.964 26.7335 201.859 26.6971 201.788 26.6243C201.718 26.5514 201.682 26.4422 201.682 26.3329V23.2371C201.682 23.1278 201.718 23.0185 201.788 22.9457C201.859 22.8728 201.964 22.8364 202.07 22.8364H203.973C204.079 22.8364 204.15 22.7636 204.15 22.6543V18.5022C204.15 18.393 204.185 18.2837 204.255 18.2109C204.326 18.138 204.432 18.1016 204.537 18.1016H208.309C208.415 18.1016 208.52 18.138 208.591 18.2109C208.661 18.2837 208.696 18.393 208.696 18.5022V22.6543C208.696 22.7636 208.767 22.8364 208.873 22.8364H212.115C212.221 22.8364 212.327 22.8728 212.397 22.9457C212.468 23.0185 212.503 23.1278 212.503 23.2371V26.3329C212.503 26.4422 212.468 26.5514 212.397 26.6243ZM198.44 24.2569C199.532 25.3859 200.096 26.9521 200.096 28.8824V40.2824C200.096 40.3917 200.061 40.501 199.991 40.5738C199.92 40.6466 199.814 40.6831 199.709 40.6831H195.761C195.655 40.6831 195.549 40.6466 195.479 40.5738C195.408 40.501 195.373 40.3917 195.373 40.2824V29.8658C195.373 28.9553 195.126 28.1904 194.598 27.6077C194.104 27.0249 193.435 26.7335 192.589 26.7335C191.743 26.7335 191.073 27.0249 190.58 27.6077C190.086 28.1904 189.804 28.9553 189.804 29.8658V40.2824C189.804 40.3917 189.769 40.501 189.698 40.5738C189.628 40.6466 189.522 40.6831 189.416 40.6831H185.469C185.363 40.6831 185.257 40.6466 185.187 40.5738C185.116 40.501 185.081 40.3917 185.081 40.2824V23.2371C185.081 23.1278 185.116 23.0185 185.187 22.9457C185.257 22.8728 185.363 22.8364 185.469 22.8364H189.416C189.522 22.8364 189.628 22.8728 189.698 22.9457C189.769 23.0185 189.804 23.1278 189.804 23.2371V24.439C189.804 24.5118 189.839 24.5482 189.875 24.5847C189.91 24.6211 189.945 24.5847 189.98 24.5482C190.897 23.2006 192.271 22.545 194.104 22.545C195.902 22.545 197.347 23.0914 198.44 24.2569ZM172.075 28.8096C171.969 29.101 171.899 29.4652 171.828 29.9387C171.828 30.0479 171.899 30.1208 172.005 30.1208H177.82C177.961 30.1208 177.996 30.0479 177.961 29.9387C177.855 29.2831 177.785 28.9553 177.785 28.9553C177.574 28.2633 177.221 27.7169 176.728 27.3527C176.234 26.9521 175.6 26.77 174.86 26.77C173.45 26.7335 172.498 27.4256 172.075 28.8096ZM182.861 32.8888C182.825 33.1802 182.684 33.2895 182.438 33.2895H172.005C171.864 33.2895 171.828 33.3623 171.864 33.4716C171.934 33.945 172.04 34.3821 172.251 34.8556C172.85 36.1668 174.014 36.8224 175.811 36.8224C177.256 36.7859 178.384 36.2032 179.23 35.0013C179.336 34.8556 179.406 34.7827 179.547 34.7827C179.618 34.7827 179.688 34.8192 179.794 34.9284L182.226 37.4051C182.332 37.5144 182.402 37.6236 182.402 37.7329C182.402 37.7693 182.367 37.8786 182.261 38.0243C181.521 38.9712 180.569 39.6997 179.406 40.246C178.243 40.7559 176.974 41.0473 175.564 41.0473C173.626 41.0473 172.005 40.6102 170.665 39.6997C169.326 38.7891 168.374 37.5144 167.775 35.9118C167.317 34.7463 167.07 33.2166 167.07 31.3591C167.07 30.0843 167.246 28.9553 167.563 27.9719C168.092 26.3329 168.973 25.0217 170.277 24.0383C171.582 23.055 173.097 22.5815 174.86 22.5815C177.115 22.5815 178.913 23.2371 180.252 24.5847C181.627 25.9323 182.438 27.7169 182.72 29.9751C182.861 30.8128 182.896 31.7962 182.861 32.8888ZM155.826 40.3553L150.433 23.2735C150.398 23.2371 150.398 23.1642 150.398 23.0914C150.398 22.8728 150.504 22.7636 150.786 22.7636H155.121C155.368 22.7636 155.509 22.8728 155.579 23.1278L158.329 33.6901C158.364 33.7629 158.399 33.7994 158.434 33.7994C158.47 33.7994 158.505 33.7629 158.54 33.6901L161.289 23.1278C161.36 22.9093 161.501 22.7636 161.748 22.7636L166.083 22.8364C166.224 22.8364 166.33 22.8728 166.4 22.9457C166.471 23.0185 166.471 23.1642 166.436 23.3099L161.078 40.3188C161.007 40.5374 160.867 40.6831 160.655 40.6831H156.249C156.038 40.7195 155.897 40.5738 155.826 40.3553ZM113.847 25.8594C113.107 26.4422 112.649 27.2435 112.402 28.2268C112.261 28.7003 112.191 29.5016 112.12 30.5942C112.12 30.7035 112.155 30.7399 112.261 30.7399H121.002C121.108 30.7399 121.143 30.7035 121.143 30.5942C121.108 29.538 121.038 28.8096 120.932 28.3725C120.685 27.3163 120.192 26.515 119.416 25.8958C118.676 25.2767 117.724 24.9853 116.561 24.9853C115.469 24.9853 114.552 25.2767 113.847 25.8594ZM123.47 31.3955V32.5246C123.47 32.7431 123.364 32.8888 123.117 32.8888H112.226C112.12 32.8888 112.085 32.9252 112.085 33.0345C112.12 34.3093 112.191 35.147 112.296 35.5112C112.543 36.5674 113.072 37.3687 113.882 37.9879C114.693 38.607 115.715 38.8984 116.984 38.8984C117.936 38.8984 118.747 38.6799 119.487 38.2428C120.192 37.8058 120.756 37.1866 121.179 36.3489C121.32 36.1304 121.461 36.0939 121.637 36.2032L122.941 37.0045C123.117 37.1137 123.152 37.2958 123.082 37.478C122.518 38.607 121.672 39.4812 120.544 40.1003C119.416 40.7559 118.112 41.0473 116.667 41.0473C115.081 41.0109 113.741 40.6466 112.649 39.8818C111.556 39.1169 110.781 38.0607 110.323 36.6767C109.935 35.5476 109.723 33.945 109.723 31.869C109.723 30.8856 109.723 30.0843 109.759 29.5016C109.794 28.8824 109.864 28.3361 110.005 27.8626C110.393 26.3693 111.168 25.131 112.296 24.2569C113.459 23.3463 114.834 22.9093 116.491 22.9093C118.535 22.9093 120.121 23.4556 121.214 24.5118C122.306 25.5681 123.011 27.0978 123.258 29.0281C123.434 29.5744 123.47 30.4121 123.47 31.3955ZM104.507 24.4754C105.564 25.568 106.093 27.0249 106.093 28.846V40.3188C106.093 40.5374 105.987 40.6831 105.74 40.6831H104.013C103.802 40.6831 103.661 40.5738 103.661 40.3188V29.3559C103.661 28.0811 103.273 27.0249 102.533 26.2236C101.793 25.4224 100.806 25.0217 99.6075 25.0217C98.3738 25.0217 97.3869 25.4224 96.6115 26.1872C95.8361 26.9885 95.4836 28.0083 95.4836 29.2831V40.3553C95.4836 40.5738 95.3779 40.7195 95.1311 40.7195H93.404C93.1926 40.7195 93.0516 40.6102 93.0516 40.3553V16.6811C93.0516 16.4626 93.1573 16.3169 93.404 16.3169H95.1311C95.3426 16.3169 95.4836 16.4262 95.4836 16.6811V24.9489C95.4836 24.9853 95.4836 25.0217 95.5188 25.0581C95.5541 25.0946 95.5893 25.0581 95.5893 25.0217C96.5763 23.5649 98.0919 22.8728 100.136 22.8728C102.004 22.8364 103.449 23.3827 104.507 24.4754ZM89.9146 16.6811V18.1744C89.9146 18.393 89.8089 18.5387 89.5621 18.5387H82.971C82.8652 18.5387 82.83 18.5751 82.83 18.6843V40.3553C82.83 40.5738 82.7242 40.7195 82.4775 40.7195H80.7504C80.5389 40.7195 80.398 40.6102 80.398 40.3553V18.6843C80.398 18.5751 80.3627 18.5387 80.257 18.5387H73.9125C73.701 18.5387 73.5601 18.4294 73.5601 18.1744V16.6811C73.5601 16.4626 73.6658 16.3169 73.9125 16.3169H89.4916C89.7736 16.3534 89.9146 16.4626 89.9146 16.6811Z" fill="#CFCFCF"/>
</g>
<defs>
<clipPath id="clip0">
<rect width="272" height="57" fill="white"/>
</clipPath>
</defs>
</svg>
