<svg width="272" height="53" viewBox="0 0 272 53" fill="none" xmlns="http://www.w3.org/2000/svg">
<g clip-path="url(#clip0)">
<path d="M63.2686 52.9209L10.6543 52.9999C4.80625 53.0079 0.0571343 47.9471 0.0462543 41.6931L1.43328e-05 11.4165C-0.00950567 5.16383 4.72465 0.0869386 10.5727 0.0789035L63.187 -0.000109071C69.035 -0.00948344 73.7855 5.05268 73.795 11.3054L73.848 41.5833C73.848 47.836 69.1179 52.9115 63.2686 52.9209Z" fill="#CFCFCF"/>
<path d="M16.3079 40.0594C15.1464 40.0594 13.9796 39.6241 12.9677 38.7536L12.9405 38.7295L12.5869 38.3894C12.5053 38.3117 12.4251 38.2273 12.3476 38.1403L11.8756 37.6046L11.8348 37.5537C11.6098 37.2451 11.3163 36.9909 10.9767 36.8105L10.6312 36.631C10.5183 36.5727 10.401 36.523 10.2804 36.4824L9.79212 36.323C8.56121 35.9502 7.35215 35.5107 6.17044 35.0066C5.36532 34.657 4.7914 33.7732 4.67444 32.7005C4.64724 32.4608 4.61868 32.2371 4.5874 32.0309C4.46114 31.2359 4.5202 30.423 4.76012 29.6538C5.07564 28.6749 5.52172 27.3383 5.86308 26.5308C6.15077 25.8274 6.58593 25.1918 7.14012 24.6653C10.0274 22.0043 13.7565 21.561 17.3619 21.1312C19.2523 20.9062 21.0339 20.6946 22.6564 20.1777C24.6161 19.5522 26.3651 18.3657 28.2201 17.1069C30.6436 15.4597 33.1501 13.7589 36.1666 13.3933C41.1891 12.788 48.1958 12.3782 53.0605 13.8727C54.0125 14.1647 55.3943 14.9722 57.0045 15.9083C60.2182 17.7832 65.072 20.6169 66.685 18.8264C66.7483 18.7472 66.8326 18.6866 66.9285 18.6514C67.0245 18.6162 67.1284 18.6077 67.229 18.6269C67.5391 18.6992 67.7526 19.0286 67.7567 19.4143C67.7716 20.9129 68.1647 22.5869 68.555 24.206C68.827 25.3483 69.1071 26.5281 69.2663 27.6812C69.3888 28.5828 69.3594 29.4982 69.1792 30.3904C69.0147 31.218 68.8936 31.8836 68.8501 32.2157C68.828 32.4607 68.7494 32.6974 68.6202 32.9079C68.4911 33.1184 68.3148 33.2971 68.1048 33.4303C67.0236 34.0397 64.3675 34.4696 64.0683 34.5164L63.1245 34.6731C62.5838 34.7603 62.0655 34.9504 61.5986 35.2329C61.5194 35.2842 61.4448 35.342 61.3756 35.4057C61.0843 35.6676 60.8332 35.9698 60.6303 36.3029C60.5269 36.4676 60.4453 36.5935 60.3773 36.6873C59.2893 38.2086 57.7185 39.9174 55.2732 39.6027C53.7283 39.4045 52.9612 38.4858 52.2119 37.5939C51.9124 37.2213 51.588 36.8687 51.2408 36.5386C51.0028 36.3217 50.5105 36.1958 50.2562 36.1677H50.2086C49.6796 36.0565 48.6106 36.0471 48.6106 36.0471L48.1509 36.0565C48.1509 36.0565 38.9274 36.1998 35.0949 36.3565C33.8546 36.4074 32.9584 36.4449 32.5368 36.4542L31.1768 36.485C28.8104 36.5426 26.3637 36.6016 24.0517 36.5011C23.9252 36.5011 23.6614 36.5011 23.1188 36.5333C22.16 36.5989 21.261 37.0368 20.5171 37.7988C20.2451 38.0747 20.0207 38.3144 19.8371 38.5099C19.6877 38.6707 19.5258 38.8198 19.3529 38.9559C18.4978 39.659 17.4219 40.0489 16.3079 40.0594ZM13.698 37.4265C15.2131 38.7215 17.1633 38.7818 18.6688 37.5818C18.7872 37.49 18.8977 37.3888 18.9993 37.2792C19.1884 37.073 19.4264 36.8239 19.7052 36.5359C20.6572 35.5583 21.8132 34.9985 23.0412 34.9142C23.52 34.882 23.8572 34.87 24.0857 34.8794C26.3637 34.9798 28.794 34.9209 31.1428 34.8646L32.5028 34.8325C32.9108 34.8231 33.8532 34.7843 35.0419 34.7361C38.8866 34.578 44.9767 34.4146 48.1795 34.4361C48.2366 34.4361 48.8241 34.4187 49.0472 34.4267C49.4938 34.4303 49.9391 34.4751 50.3772 34.5606C50.5636 34.5834 51.4095 34.712 51.9739 35.2302C52.3669 35.6019 52.734 35.9992 53.0728 36.4194C53.7691 37.2497 54.2736 37.851 55.3848 37.993C56.8699 38.1831 58.0748 37.4667 59.4172 35.5972C59.4498 35.553 59.5096 35.4632 59.613 35.2985C59.8905 34.8433 60.2342 34.4305 60.633 34.0732C60.7562 33.9635 60.8881 33.8636 61.0274 33.7745C61.6128 33.4194 62.2626 33.1797 62.9409 33.0688L63.8929 32.9107C64.5661 32.8063 66.2987 32.4809 67.2331 32.1072C67.344 32.0546 67.4396 31.9752 67.511 31.8764C67.5823 31.7775 67.6271 31.6625 67.6411 31.5421C67.7227 31.064 67.8396 30.4627 67.9335 29.9899C68.0695 29.3201 68.092 28.6328 68.0001 27.9557C67.8546 26.8977 67.5921 25.813 67.3201 24.6693C67.0127 23.3757 66.6959 22.0485 66.5504 20.7374C64.0602 21.8088 59.8945 19.3795 56.4605 17.3747C54.9822 16.5123 53.5855 15.698 52.7559 15.4423C48.0639 14.0013 41.2095 14.4071 36.2849 15.0017C33.5241 15.3351 31.2393 16.8872 28.8199 18.5291C26.9784 19.7799 25.0744 21.0736 22.9719 21.7432C21.2583 22.2896 19.3407 22.5172 17.4856 22.7382C14.053 23.1507 10.5007 23.5698 7.89628 25.9804C7.50448 26.3538 7.19681 26.8041 6.99324 27.3022C6.67908 28.0401 6.25612 29.3284 5.94876 30.2658C5.79864 30.7385 5.75957 31.2385 5.83452 31.7282C5.86988 31.9572 5.90252 32.2077 5.93244 32.4755C5.98412 32.9415 6.233 33.3245 6.58116 33.4759C8.23356 34.1937 9.4562 34.645 9.93628 34.716C10.4259 34.8499 10.9413 35.0494 10.9413 35.0494L11.4595 35.3173C11.9661 35.588 12.4047 35.9668 12.7433 36.4261L13.1948 36.935C13.2465 36.9939 13.3009 37.0502 13.3567 37.1038L13.698 37.4265Z" fill="white"/>
<path d="M57.2425 17.522C50.35 21.0736 20.9754 36.8855 29.4659 36.3766C36.2087 35.9748 45.7042 36.0846 47.6898 35.3347C51.778 33.7946 54.9305 38.9103 54.9305 38.9103L59.5613 36.6337L61.8733 34.3571L67.879 32.3858C68.1528 32.2959 68.391 32.1235 68.5599 31.8931C68.7288 31.6626 68.8198 31.3857 68.8201 31.1015V26.95C68.8224 25.8236 68.5584 24.7122 68.049 23.7038L66.5109 20.6758L59.5654 18.3992L58.9425 17.7859C58.7245 17.5694 58.4421 17.4271 58.1364 17.3796C57.8306 17.3322 57.5175 17.3821 57.2425 17.522Z" fill="white"/>
<path d="M91.4016 41.1722C92.1124 39.2974 92.9094 37.2721 93.7925 35.0963C94.6756 32.9206 95.6013 30.6917 96.5696 28.4097C97.5361 26.125 98.5393 23.8038 99.5793 21.4459C100.619 19.088 101.653 16.7909 102.68 14.5544C103.192 13.4331 103.776 12.655 104.43 12.2202C105.085 11.7854 105.911 11.568 106.908 11.568C107.275 11.5675 107.64 11.6098 107.996 11.6939C108.317 11.7675 108.631 11.866 108.936 11.9885C109.208 12.101 109.434 12.2055 109.616 12.3046C109.728 12.3582 109.835 12.4214 109.936 12.4934C110.389 13.2781 110.978 14.4415 111.704 15.9833C112.429 17.5252 113.212 19.2563 114.052 21.1767C114.892 23.0971 115.753 25.1019 116.636 27.191C117.52 29.2802 118.338 31.2564 119.091 33.1197C119.846 34.9856 120.508 36.6395 121.078 38.0814C121.648 39.5232 122.047 40.5535 122.274 41.1722H116.641C116.498 40.8365 116.313 40.3602 116.086 39.7433C115.858 39.1264 115.609 38.4604 115.338 37.7452C115.066 37.031 114.788 36.3092 114.505 35.5798C114.222 34.8503 113.966 34.2057 113.737 33.646H99.4297C98.8041 35.1869 98.242 36.6096 97.7433 37.914C97.2446 39.2184 96.8366 40.3044 96.5193 41.1722H91.4016ZM112.029 29.2293C111.629 28.1928 111.176 27.0504 110.669 25.8023C110.162 24.5542 109.656 23.3346 109.152 22.1436C108.65 20.9517 108.178 19.8648 107.737 18.8827C107.295 17.9006 106.946 17.1578 106.691 16.6543C106.319 17.439 105.906 18.3291 105.452 19.3246C104.998 20.3201 104.527 21.3722 104.04 22.4811C103.555 23.5882 103.071 24.7162 102.588 25.8652C102.104 27.0143 101.649 28.1356 101.221 29.2293H112.029Z" fill="#CFCFCF"/>
<path d="M142.349 12.409C142.349 11.6528 142.569 11.0921 143.011 10.727C143.452 10.3618 144.087 10.1797 144.915 10.1806C145.391 10.1757 145.866 10.2393 146.324 10.3694C146.751 10.4953 147.035 10.5877 147.178 10.6372V29.6083C147.178 31.6546 146.886 33.4348 146.303 34.949C145.72 36.4632 144.915 37.7247 143.888 38.7335C142.863 39.746 141.623 40.5233 140.258 41.0102C138.793 41.5267 137.245 41.7829 135.689 41.7668C134.104 41.7836 132.53 41.498 131.055 40.9258C129.697 40.3973 128.456 39.6115 127.405 38.613C126.361 37.6088 125.537 36.4046 124.984 35.0749C124.393 33.6618 124.096 32.1463 124.11 30.618C124.092 29.086 124.375 27.5651 124.942 26.1384C125.468 24.8237 126.251 23.6238 127.247 22.607C128.229 21.6127 129.406 20.8257 130.707 20.2942C132.084 19.7373 133.56 19.4586 135.048 19.4746C136.699 19.4746 138.15 19.7897 139.4 20.42C140.65 21.0504 141.633 21.8142 142.347 22.7114L142.349 12.409ZM142.349 30.622C142.354 29.7027 142.188 28.7902 141.858 27.9303C141.552 27.1248 141.095 26.383 140.511 25.7434C139.935 25.1206 139.232 24.625 138.448 24.289C137.599 23.9415 136.688 23.7626 135.768 23.7626C134.848 23.7626 133.938 23.9415 133.088 24.289C132.309 24.6273 131.606 25.1133 131.017 25.7192C130.421 26.3415 129.963 27.0789 129.672 27.8847C129.351 28.7611 129.192 29.6866 129.2 30.618C129.19 31.5425 129.349 32.4612 129.671 33.3299C129.965 34.1274 130.423 34.8567 131.016 35.4726C131.603 36.0794 132.307 36.5655 133.087 36.9029C133.936 37.2641 134.853 37.4435 135.777 37.4292C136.692 37.4391 137.6 37.2674 138.447 36.9243C139.227 36.608 139.932 36.1355 140.517 35.5369C141.106 34.9178 141.563 34.1894 141.863 33.3942C142.197 32.506 142.361 31.5649 142.349 30.618V30.622Z" fill="#CFCFCF"/>
<path d="M169.039 12.409C169.039 11.6528 169.259 11.0921 169.701 10.727C170.142 10.3618 170.777 10.1797 171.605 10.1806C172.082 10.1757 172.557 10.2393 173.015 10.3694C173.442 10.4953 173.726 10.5877 173.869 10.6372V29.6083C173.869 31.6546 173.577 33.4348 172.993 34.949C172.472 36.3653 171.649 37.6556 170.581 38.7336C169.555 39.7454 168.316 40.5226 166.951 41.0102C165.485 41.5267 163.938 41.7829 162.381 41.7668C160.796 41.7839 159.223 41.4983 157.748 40.9258C156.386 40.3963 155.142 39.6087 154.088 38.6077C153.048 37.6043 152.227 36.4021 151.675 35.0749C151.084 33.6619 150.786 32.1464 150.8 30.618C150.782 29.0859 151.065 27.5648 151.633 26.1384C152.161 24.8232 152.947 23.6232 153.945 22.607C154.927 21.6121 156.104 20.8251 157.405 20.2942C158.78 19.7379 160.254 19.4592 161.739 19.4746C163.391 19.4746 164.841 19.7897 166.091 20.4201C167.342 21.0504 168.324 21.8142 169.037 22.7114L169.039 12.409ZM169.039 30.622C169.045 29.7026 168.879 28.79 168.548 27.9303C168.242 27.1249 167.786 26.383 167.203 25.7434C166.624 25.121 165.918 24.6266 165.131 24.293C164.282 23.9455 163.371 23.7666 162.451 23.7666C161.532 23.7666 160.621 23.9455 159.772 24.293C158.993 24.631 158.289 25.1171 157.702 25.7233C157.105 26.3452 156.646 27.0827 156.355 27.8887C156.036 28.7654 155.877 29.6908 155.886 30.622C155.876 31.5464 156.035 32.465 156.355 33.3339C156.65 34.1317 157.108 34.8612 157.702 35.4766C158.289 36.0837 158.992 36.5698 159.772 36.9069C160.621 37.2681 161.538 37.4475 162.463 37.4332C163.378 37.4431 164.285 37.2714 165.131 36.9283C165.912 36.6124 166.617 36.1399 167.203 35.5409C167.791 34.9218 168.248 34.1933 168.548 33.3982C168.884 32.5092 169.051 31.5666 169.039 30.618V30.622Z" fill="#CFCFCF"/>
<path d="M178.349 22.2908C178.349 21.5346 178.576 20.974 179.029 20.6088C179.482 20.2437 180.109 20.0615 180.909 20.0624C181.392 20.0586 181.874 20.1221 182.339 20.2512C182.78 20.378 183.072 20.4695 183.214 20.5258V31.7536C183.214 33.4071 183.663 34.7244 184.56 35.7056C185.458 36.6867 186.846 37.1778 188.723 37.1787C190.459 37.1787 191.826 36.6809 192.824 35.6855C193.821 34.69 194.32 33.2254 194.32 31.2916V22.2922C194.32 21.536 194.546 20.9753 195 20.6102C195.453 20.245 196.079 20.0629 196.879 20.0638C197.363 20.0599 197.844 20.1235 198.31 20.2526C198.75 20.3794 199.042 20.4709 199.184 20.5271V38.9437C199.184 40.9356 198.912 42.6247 198.368 44.0113C197.898 45.3087 197.116 46.4753 196.091 47.4123C195.065 48.3492 193.825 49.0288 192.475 49.3935C190.961 49.8154 189.394 50.0206 187.82 50.0028C186.75 50.0087 185.68 49.9456 184.617 49.814C183.649 49.6881 182.788 49.5412 182.033 49.3734C181.279 49.2055 180.66 49.044 180.176 48.8886C179.691 48.735 179.35 48.6159 179.15 48.531C179.379 47.9436 179.592 47.3481 179.791 46.7446C179.989 46.141 180.189 45.5451 180.389 44.9567C180.588 45.0411 180.902 45.1536 181.329 45.2942C181.833 45.4551 182.346 45.5892 182.866 45.696C183.464 45.8218 184.14 45.9268 184.895 46.0107C185.696 46.0978 186.501 46.1403 187.307 46.1379C188.316 46.15 189.323 46.0297 190.299 45.7803C191.143 45.5634 191.915 45.1358 192.542 44.5389C193.154 43.9514 193.624 43.1738 193.951 42.206C194.278 41.2382 194.442 40.0254 194.442 38.5674C193.872 39.3817 192.982 40.0338 191.772 40.524C190.503 41.0252 189.146 41.275 187.779 41.2592C186.49 41.271 185.207 41.0793 183.98 40.6914C182.879 40.3512 181.861 39.7934 180.988 39.0522C180.146 38.316 179.482 37.4036 179.044 36.3819C178.575 35.3159 178.341 34.0963 178.34 32.7232L178.349 22.2908Z" fill="#CFCFCF"/>
<path d="M229.424 39.2384C229.005 39.5296 228.57 39.7978 228.121 40.042C227.453 40.3985 226.752 40.6939 226.029 40.9245C225.059 41.2359 224.067 41.4749 223.06 41.6396C221.776 41.847 220.476 41.9456 219.175 41.9343C217.137 41.9461 215.113 41.6117 213.191 40.9459C211.357 40.313 209.667 39.3331 208.216 38.0613C206.745 36.7519 205.581 35.1429 204.805 33.346C203.965 31.4711 203.544 29.3123 203.544 26.8696C203.544 24.4591 203.95 22.3003 204.762 20.3933C205.513 18.5742 206.648 16.9332 208.092 15.5789C209.516 14.2672 211.194 13.2515 213.025 12.5925C214.954 11.8978 216.993 11.549 219.047 11.5626C221.096 11.5626 222.773 11.7309 224.079 12.0675C225.385 12.4041 226.417 12.8175 227.176 13.3076C227.929 13.7986 228.456 14.3035 228.755 14.8222C229.054 15.341 229.204 15.7682 229.204 16.1039C229.204 16.467 229.124 16.8257 228.968 17.1551C228.821 17.4777 228.635 17.7817 228.413 18.0604C228.215 18.3112 227.993 18.5434 227.751 18.7541C227.57 18.9179 227.37 19.0591 227.154 19.1746C226.796 18.8023 226.402 18.4643 225.979 18.1649C225.427 17.769 224.834 17.4306 224.211 17.1551C223.466 16.8267 222.692 16.5666 221.899 16.3784C220.99 16.1609 220.057 16.0547 219.122 16.0623C217.734 16.0512 216.357 16.3012 215.065 16.7989C213.838 17.2722 212.731 18.0035 211.82 18.9416C210.88 19.9258 210.147 21.0831 209.663 22.3472C209.136 23.6801 208.873 25.1872 208.873 26.8683C208.873 28.578 209.151 30.085 209.707 31.3894C210.219 32.6322 210.998 33.751 211.991 34.6691C212.98 35.5667 214.15 36.2494 215.424 36.6726C216.785 37.1291 218.214 37.3555 219.651 37.3421C221.445 37.3421 222.99 37.1189 224.284 36.6726C225.579 36.2262 226.526 35.8056 227.125 35.411L229.382 39.2384H229.424Z" fill="#CFCFCF"/>
<path d="M251.844 41.0892C251.559 41.1455 251.111 41.2071 250.499 41.2781C249.887 41.349 249.167 41.412 248.342 41.4883C247.516 41.5646 246.591 41.6222 245.566 41.6771C244.54 41.732 243.474 41.7615 242.363 41.7615C240.143 41.7615 238.329 41.5722 236.923 41.1937C235.517 40.8151 234.407 40.3107 233.592 39.6804C232.782 39.0492 232.227 38.3202 231.928 37.4935C231.63 36.6771 231.479 35.8163 231.479 34.949C231.458 33.9154 231.639 32.8873 232.012 31.9211C232.373 31.0433 232.978 30.2839 233.758 29.7302C234.574 29.1418 235.635 28.7003 236.939 28.4057C238.244 28.1111 239.838 27.9638 241.723 27.9638C242.804 27.9638 243.829 27.999 244.797 28.0696C245.766 28.1392 246.491 28.2035 246.973 28.2584C246.973 27.2763 246.809 26.4634 246.481 25.8197C246.181 25.2045 245.716 24.6814 245.136 24.3064C244.511 23.9212 243.814 23.6635 243.087 23.5484C242.215 23.4043 241.332 23.3353 240.448 23.3422C238.825 23.3422 237.523 23.5248 236.541 23.8899C235.559 24.2551 234.911 24.5631 234.597 24.814C234.335 24.5708 234.099 24.3015 233.893 24.0105C233.587 23.5958 233.429 23.0927 233.444 22.5802C233.448 22.1741 233.559 21.776 233.765 21.4245C233.979 21.045 234.356 20.7085 234.897 20.4147C235.437 20.121 236.162 19.8898 237.073 19.721C238.215 19.5347 239.373 19.4504 240.531 19.4692C242.075 19.4545 243.616 19.6167 245.123 19.9527C246.401 20.2307 247.613 20.752 248.688 21.4874C249.694 22.1994 250.496 23.1553 251.015 24.2622C251.57 25.413 251.848 26.8009 251.848 28.4258L251.844 41.0892ZM247.018 31.7537C246.733 31.6974 246.199 31.6131 245.416 31.5006C244.634 31.3881 243.46 31.3318 241.894 31.3318C239.957 31.3318 238.548 31.6193 237.666 32.1943C236.783 32.7692 236.342 33.6737 236.342 34.9075C236.334 35.3835 236.427 35.856 236.614 36.2949C236.82 36.7378 237.154 37.1107 237.575 37.3663C238.028 37.66 238.647 37.8832 239.432 38.0359C240.398 38.2053 241.377 38.2829 242.358 38.2675C243.399 38.281 244.44 38.2319 245.475 38.1202C246.245 38.022 246.757 37.9448 247.013 37.8886L247.018 31.7537Z" fill="#CFCFCF"/>
<path d="M256.84 27.5875C256.84 25.0082 257.644 23.0105 259.253 21.5946C260.861 20.1786 263.089 19.471 265.936 19.4719C267.729 19.4719 269.188 19.717 270.314 20.2071C271.439 20.6973 272.001 21.4472 272 22.457C271.995 22.9474 271.854 23.4272 271.592 23.8444C271.32 24.293 271.101 24.5743 270.93 24.6854C270.35 24.4279 269.75 24.217 269.136 24.0547C268.342 23.8484 267.523 23.7493 266.701 23.76C263.37 23.76 261.705 25.4983 261.705 28.9749V41.1696H256.837L256.84 27.5875Z" fill="#CFCFCF"/>
</g>
<defs>
<clipPath id="clip0">
<rect width="272" height="53" fill="white"/>
</clipPath>
</defs>
</svg>
