<svg width="291" height="46" viewBox="0 0 291 46" fill="none" xmlns="http://www.w3.org/2000/svg">
<path d="M15.2742 16.3181H7.53835C7.19819 16.3181 7.02811 16.4662 7.02811 16.7625C7.02811 17.4757 7.41216 18.1505 8.18026 18.787C8.95933 19.4124 9.79327 19.7251 10.6821 19.7251C11.2088 19.7251 11.7903 19.6264 12.4268 19.4289C13.0742 19.2204 13.6063 18.968 14.0233 18.6717C14.3964 18.4084 14.6926 18.2767 14.9121 18.2767C15.1974 18.2767 15.4772 18.4523 15.7515 18.8034C16.0258 19.1546 16.163 19.5167 16.163 19.8897C16.163 20.6798 15.6692 21.4424 14.6817 22.1776C12.937 23.4833 10.9235 24.1362 8.64112 24.1362C6.33682 24.1362 4.4056 23.4669 2.84745 22.1282C2.09033 21.4698 1.46488 20.6743 0.971097 19.7416C0.323699 18.5017 0 17.1959 0 15.8243C0 13.9809 0.559615 12.324 1.67885 10.8536C2.64446 9.58074 3.87342 8.63159 5.36572 8.00614C6.48495 7.53431 7.69745 7.29839 9.00322 7.29839C11.0881 7.29839 12.8602 7.89093 14.3196 9.07599C15.0548 9.66853 15.6473 10.3708 16.0972 11.1828C16.6129 12.1045 16.8708 13.0043 16.8708 13.8821C16.8708 14.5953 16.7226 15.1824 16.4264 15.6432C16.1301 16.0931 15.746 16.3181 15.2742 16.3181ZM7.96629 13.2402H9.62868C10.3309 13.2402 10.6821 12.9165 10.6821 12.2691C10.6821 11.6766 10.512 11.1938 10.1718 10.8207C9.83167 10.4476 9.38727 10.2611 8.83863 10.2611C8.22415 10.2611 7.74135 10.5025 7.39021 10.9853C7.06103 11.4352 6.89644 11.8905 6.89644 12.3514C6.89644 12.6806 6.97325 12.911 7.12687 13.0427C7.29146 13.1744 7.57127 13.2402 7.96629 13.2402Z" fill="#CFCFCF"/>
<path d="M27.3389 7.28193C29.2481 7.28193 30.8666 7.76474 32.1943 8.73035C32.8966 9.24607 33.3849 9.83861 33.6592 10.5079C33.9445 11.1663 34.0872 12.0771 34.0872 13.2402L34.0542 15.6926C34.0542 17.3934 34.1749 18.4962 34.4163 19.0009C34.537 19.2423 34.6523 19.396 34.762 19.4618C34.8717 19.5276 35.1021 19.588 35.4533 19.6428C35.8044 19.6977 35.98 19.9281 35.98 20.3341C35.98 20.8608 35.766 21.4095 35.3381 21.9801C34.9211 22.5507 34.3779 23.028 33.7086 23.412C32.8856 23.8948 32.0243 24.1362 31.1245 24.1362C29.9723 24.1362 29.0616 23.7412 28.3923 22.9512C28.1618 22.6659 27.9479 22.5232 27.7503 22.5232C27.5309 22.5232 27.2401 22.6604 26.878 22.9347C25.7807 23.7357 24.5353 24.1362 23.1417 24.1362C21.7043 24.1362 20.5412 23.829 19.6524 23.2145C19.0708 22.8085 18.61 22.2818 18.2698 21.6344C17.9296 20.976 17.7596 20.2902 17.7596 19.577C17.7596 18.4358 18.2204 17.4263 19.1421 16.5485C20.5796 15.1659 22.7303 14.4691 25.5942 14.4582C26.2306 14.4582 26.6311 14.3978 26.7957 14.2771C26.9603 14.1454 27.0426 13.8492 27.0426 13.3883C27.0426 12.2252 26.9219 11.3858 26.6805 10.8701C26.4391 10.3434 26.0441 10.08 25.4954 10.08C25.1662 10.08 24.87 10.1788 24.6066 10.3763C24.3542 10.5738 24.036 10.9359 23.652 11.4626C22.6754 12.8561 21.6549 13.5529 20.5906 13.5529C20.0529 13.5529 19.614 13.3938 19.2738 13.0756C18.9337 12.7574 18.7636 12.3404 18.7636 11.8247C18.7636 11.298 18.9721 10.7713 19.389 10.2446C19.817 9.71791 20.393 9.25704 21.1173 8.86202C23.1033 7.80863 25.1772 7.28193 27.3389 7.28193ZM26.2361 16.8119C25.7533 16.8119 25.3308 17.0094 24.9687 17.4044C24.6176 17.7994 24.442 18.2712 24.442 18.8199C24.442 19.3466 24.5682 19.7745 24.8206 20.1037C25.073 20.4219 25.4076 20.581 25.8246 20.581C26.7024 20.581 27.1413 19.8404 27.1413 18.359C27.1413 17.7555 27.0755 17.3495 26.9438 17.141C26.8231 16.9326 26.5872 16.8228 26.2361 16.8119Z" fill="#CFCFCF"/>
<path d="M43.65 7.29839C44.1986 7.29839 45.0929 7.41909 46.3329 7.6605C46.5852 7.70439 46.7937 7.72633 46.9583 7.72633C47.1449 7.72633 47.507 7.62758 48.0446 7.43007C48.297 7.33131 48.511 7.28193 48.6865 7.28193C49.1913 7.28193 49.7015 7.60563 50.2173 8.25303C50.6342 8.76875 50.9744 9.33385 51.2377 9.94833C51.5011 10.5628 51.6327 11.095 51.6327 11.5449C51.6327 11.9838 51.4791 12.3514 51.1719 12.6477C50.8647 12.933 50.4806 13.0756 50.0197 13.0756C49.6357 13.0756 49.29 12.9823 48.9828 12.7958C48.6865 12.6093 48.2037 12.1978 47.5344 11.5613C46.8321 10.881 46.2506 10.5409 45.7897 10.5409C45.4825 10.5409 45.2136 10.6561 44.9832 10.8865C44.7637 11.106 44.654 11.3693 44.654 11.6766C44.654 12.2142 45.1697 12.719 46.2012 13.1908C48.0556 14.0247 49.4766 14.9355 50.4641 15.9231C51.2981 16.757 51.715 17.7775 51.715 18.9845C51.715 20.5097 51.0457 21.7826 49.707 22.803C48.5549 23.6918 47.1449 24.1362 45.477 24.1362C45.049 24.1362 44.27 24.0649 43.1398 23.9223C42.0754 23.8016 41.4774 23.7412 41.3457 23.7412C41.2031 23.7412 41.0385 23.7577 40.8519 23.7906C40.5337 23.8345 40.3033 23.8564 40.1606 23.8564C39.6449 23.8564 39.2389 23.7247 38.9426 23.4614C38.4928 23.0554 38.0758 22.419 37.6917 21.5521C37.3077 20.6743 37.1157 19.9227 37.1157 19.2972C37.1157 18.2877 37.5107 17.7829 38.3007 17.7829C38.608 17.7829 38.8878 17.8872 39.1402 18.0957C39.4035 18.2932 39.9467 18.8309 40.7696 19.7087C41.2195 20.1915 41.5926 20.5262 41.8889 20.7127C42.1851 20.8883 42.5033 20.976 42.8435 20.976C43.2056 20.976 43.4964 20.8828 43.7158 20.6962C43.9353 20.4987 44.045 20.2409 44.045 19.9227C44.045 19.4289 43.6226 18.979 42.7777 18.573C41.011 17.7061 39.7327 16.8119 38.9426 15.8901C38.1636 14.9684 37.774 13.904 37.774 12.697C37.774 11.3913 38.1745 10.2665 38.9756 9.32288C40.1167 7.97322 41.6749 7.29839 43.65 7.29839Z" fill="#CFCFCF"/>
<path d="M68.8162 15.3964L66.6436 21.3711C66.1059 22.8524 65.5628 24.0594 65.0141 24.9921C64.4765 25.9358 63.862 26.7368 63.1707 27.3952C61.7442 28.7558 60.027 29.4361 58.0189 29.4361C56.395 29.4361 55.0782 29.0082 54.0687 28.1523C53.2896 27.4939 52.9001 26.6545 52.9001 25.634C52.9001 24.7891 53.1689 24.0814 53.7066 23.5108C54.2553 22.9292 54.9246 22.6384 55.7146 22.6384C56.5047 22.6384 57.1411 22.9018 57.6239 23.4285C57.8544 23.6699 58.008 23.8839 58.0848 24.0704C58.1616 24.2569 58.2768 24.6684 58.4304 25.3048C58.5511 25.7876 58.8255 26.029 59.2534 26.029C59.5936 26.029 59.8788 25.8809 60.1093 25.5846C60.3397 25.2884 60.4549 24.9208 60.4549 24.4819C60.4549 23.9662 60.1696 23.1048 59.599 21.8978L55.6324 13.4542C55.2154 12.5763 54.9027 12.0277 54.6942 11.8082C54.4857 11.5888 54.0248 11.3199 53.3116 11.0017C53.0921 10.9139 52.9001 10.7439 52.7355 10.4915C52.5819 10.2281 52.5051 9.97577 52.5051 9.73436C52.5051 8.75778 53.4762 8.09392 55.4184 7.74279C56.7132 7.51236 58.189 7.39715 59.8459 7.39715C61.009 7.39715 61.9253 7.51785 62.5946 7.75925C63.4944 8.07746 63.9443 8.62062 63.9443 9.38872C63.9443 9.66304 63.8181 9.98674 63.5657 10.3598C63.3243 10.7109 63.2036 11.0237 63.2036 11.298C63.2036 11.5613 63.2585 11.8357 63.3682 12.121C63.4889 12.4063 63.7358 12.8891 64.1089 13.5694C64.5258 14.3375 64.8934 14.7215 65.2117 14.7215C65.5518 14.7215 65.9029 14.3869 66.265 13.7175C66.6272 13.0372 66.8082 12.3843 66.8082 11.7589C66.8082 11.2541 66.671 10.8426 66.3967 10.5244C65.9798 10.0306 65.7713 9.60818 65.7713 9.25704C65.7713 8.69743 66.1443 8.25303 66.8905 7.92384C67.6367 7.58369 68.6352 7.41361 69.8861 7.41361C72.2123 7.41361 73.3755 7.97322 73.3755 9.09245C73.3755 9.49845 73.2548 9.82763 73.0134 10.08C72.7829 10.3214 72.355 10.5518 71.7295 10.7713C71.2028 10.9688 70.7859 11.298 70.4786 11.7589C69.9958 12.494 69.4417 13.7065 68.8162 15.3964Z" fill="#CFCFCF"/>
<path d="M77.4409 1.22492H85.901C87.6127 1.22492 88.8581 1.192 89.6372 1.12616C90.4273 1.04935 91.1954 0.90122 91.9415 0.681763C92.1719 0.615926 92.353 0.583008 92.4847 0.583008C93.0553 0.583008 93.56 0.890248 93.9989 1.50473C94.7231 2.50326 95.0852 3.71027 95.0852 5.12577C95.0852 5.839 94.9316 6.4041 94.6244 6.82107C94.3281 7.22707 93.9166 7.43007 93.3899 7.43007C93.0278 7.43007 92.7425 7.35874 92.534 7.2161C92.3365 7.06248 92.0677 6.7278 91.7275 6.21208C91.2447 5.4769 90.6303 4.98861 89.8841 4.7472C89.1489 4.49483 87.9364 4.36864 86.2466 4.36864C84.9847 4.36864 84.2166 4.59358 83.9423 5.04347C83.7997 5.28487 83.7119 5.60857 83.679 6.01457C83.657 6.42056 83.646 7.4575 83.646 9.12537C83.646 9.78374 83.7558 10.1952 83.9752 10.3598C84.1947 10.5134 84.7708 10.5902 85.7035 10.5902C86.1643 10.5902 86.499 10.497 86.7075 10.3104C86.9159 10.1129 87.0476 9.76728 87.1025 9.2735C87.1793 8.63708 87.2561 8.20365 87.3329 7.97322C87.4207 7.73182 87.5743 7.52333 87.7938 7.34777C88.0242 7.15026 88.293 7.0515 88.6003 7.0515C89.0502 7.0515 89.4342 7.26547 89.7524 7.69341C89.9829 8.01163 90.1749 8.57673 90.3285 9.38872C90.4931 10.1897 90.5754 11.0292 90.5754 11.907C90.5754 13.6407 90.3066 15.0617 89.7689 16.1699C89.4726 16.7734 89.0227 17.0752 88.4192 17.0752C88.0462 17.0752 87.7883 16.9819 87.6456 16.7954C87.503 16.5979 87.3933 16.1974 87.3165 15.5939C87.1519 14.3539 86.4277 13.734 85.1438 13.734C84.6501 13.734 84.3099 13.8931 84.1234 14.2113C83.9478 14.5185 83.86 15.0946 83.86 15.9395C83.86 16.4552 83.8929 17.1246 83.9588 17.9475C84.0356 18.7595 84.1124 19.2972 84.1892 19.5606C84.277 19.8897 84.5458 20.1202 84.9957 20.2518C85.4566 20.3725 86.2192 20.4329 87.2835 20.4329C88.9295 20.4329 90.1694 20.2244 91.0033 19.8074C91.8373 19.3795 92.5176 18.6114 93.0443 17.5031C93.3515 16.8667 93.6258 16.4388 93.8672 16.2193C94.1196 15.9999 94.4433 15.8901 94.8383 15.8901C95.2992 15.8901 95.6778 16.0931 95.974 16.4991C96.2813 16.8941 96.4349 17.3934 96.4349 17.9969C96.4349 18.6553 96.2648 19.4783 95.9247 20.4658C95.5845 21.4534 95.1675 22.3312 94.6738 23.0993C94.4214 23.4724 94.2129 23.7193 94.0483 23.84C93.8837 23.9716 93.6752 24.0375 93.4229 24.0375C93.2144 24.0375 92.9126 24.0046 92.5176 23.9387C91.8153 23.807 90.8772 23.7247 89.7031 23.6918H75.7456C75.186 23.6918 74.7525 23.5711 74.4453 23.3297C74.1381 23.0773 73.9844 22.7262 73.9844 22.2763C73.9844 21.9581 74.0503 21.7277 74.182 21.585C74.3136 21.4424 74.6154 21.2613 75.0872 21.0419C75.4164 20.8992 75.6578 20.7237 75.8114 20.5152C75.976 20.3067 76.1022 19.9995 76.19 19.5935C76.5521 17.9366 76.7331 15.7036 76.7331 12.8945C76.7331 8.65903 76.4698 5.98714 75.9431 4.87888C75.8334 4.65942 75.7127 4.5058 75.581 4.41802C75.4493 4.33024 75.175 4.22599 74.758 4.10529C74.1326 3.91875 73.8199 3.50179 73.8199 2.85439C73.8199 2.50326 73.9241 2.19053 74.1326 1.91621C74.3411 1.64189 74.6154 1.46084 74.9555 1.37305C75.3835 1.2743 76.2119 1.22492 77.4409 1.22492Z" fill="#CFCFCF"/>
<path d="M114.524 12.4501L110.261 20.7456C109.602 22.0294 109.043 22.9237 108.582 23.4285C108.121 23.9223 107.627 24.1691 107.101 24.1691C106.585 24.1691 106.168 23.9826 105.85 23.6095C105.18 22.8634 104.593 22.0185 104.088 21.0748L99.414 12.2033C99.1617 11.7204 98.9148 11.3748 98.6734 11.1663C98.4429 10.9469 98.1192 10.7823 97.7023 10.6725C96.8683 10.4311 96.4514 9.98125 96.4514 9.32288C96.4514 8.65354 96.9671 8.16525 97.9985 7.85801C99.03 7.55077 100.659 7.39715 102.887 7.39715C104.752 7.39715 106.124 7.53431 107.002 7.80863C107.891 8.07198 108.335 8.48346 108.335 9.04307C108.335 9.4381 108.126 9.81666 107.71 10.1788C107.446 10.4202 107.276 10.6012 107.199 10.7219C107.122 10.8426 107.084 10.9962 107.084 11.1828C107.084 11.5559 107.325 12.1758 107.808 13.0427C108.291 13.8876 108.741 14.31 109.158 14.31C109.432 14.31 109.657 14.2058 109.833 13.9973C110.008 13.7888 110.327 13.2512 110.787 12.3843C111.128 11.7479 111.298 11.2651 111.298 10.9359C111.298 10.6725 111.122 10.3598 110.771 9.99771C110.398 9.60269 110.211 9.2351 110.211 8.89494C110.211 8.36824 110.557 7.98968 111.248 7.75925C111.951 7.52882 113.097 7.41361 114.688 7.41361C116.927 7.41361 118.046 7.89641 118.046 8.86202C118.046 9.42164 117.645 9.82763 116.844 10.08C116.219 10.2775 115.791 10.4915 115.561 10.7219C115.341 10.9524 114.995 11.5284 114.524 12.4501Z" fill="#CFCFCF"/>
<path d="M132.596 16.3181H124.86C124.52 16.3181 124.35 16.4662 124.35 16.7625C124.35 17.4757 124.734 18.1505 125.502 18.787C126.281 19.4124 127.115 19.7251 128.004 19.7251C128.53 19.7251 129.112 19.6264 129.748 19.4289C130.396 19.2204 130.928 18.968 131.345 18.6717C131.718 18.4084 132.014 18.2767 132.234 18.2767C132.519 18.2767 132.799 18.4523 133.073 18.8034C133.348 19.1546 133.485 19.5167 133.485 19.8897C133.485 20.6798 132.991 21.4424 132.003 22.1776C130.259 23.4833 128.245 24.1362 125.963 24.1362C123.659 24.1362 121.727 23.4669 120.169 22.1282C119.412 21.4698 118.787 20.6743 118.293 19.7416C117.645 18.5017 117.322 17.1959 117.322 15.8243C117.322 13.9809 117.881 12.324 119.001 10.8536C119.966 9.58074 121.195 8.63159 122.687 8.00614C123.807 7.53431 125.019 7.29839 126.325 7.29839C128.41 7.29839 130.182 7.89093 131.641 9.07599C132.376 9.66853 132.969 10.3708 133.419 11.1828C133.935 12.1045 134.192 13.0043 134.192 13.8821C134.192 14.5953 134.044 15.1824 133.748 15.6432C133.452 16.0931 133.068 16.3181 132.596 16.3181ZM125.288 13.2402H126.95C127.653 13.2402 128.004 12.9165 128.004 12.2691C128.004 11.6766 127.834 11.1938 127.494 10.8207C127.153 10.4476 126.709 10.2611 126.16 10.2611C125.546 10.2611 125.063 10.5025 124.712 10.9853C124.383 11.4352 124.218 11.8905 124.218 12.3514C124.218 12.6806 124.295 12.911 124.449 13.0427C124.613 13.1744 124.893 13.2402 125.288 13.2402Z" fill="#CFCFCF"/>
<path d="M155.227 13.3719L155.458 19.1655C155.48 19.6044 155.546 19.9281 155.655 20.1366C155.776 20.3451 156.116 20.7456 156.676 21.3382C156.84 21.5137 156.923 21.7606 156.923 22.0788C156.923 22.803 156.489 23.3078 155.622 23.5931C154.756 23.8784 153.208 24.021 150.981 24.021C149.467 24.021 148.397 23.8893 147.771 23.626C147.124 23.3517 146.8 22.9073 146.8 22.2928C146.8 22.0733 146.833 21.9142 146.899 21.8155C146.965 21.7057 147.184 21.4479 147.557 21.0419C147.996 20.581 148.216 19.0448 148.216 16.4333C148.216 14.919 148.04 13.7998 147.689 13.0756C147.404 12.494 146.877 12.2033 146.109 12.2033C145.374 12.2033 144.869 12.4392 144.595 12.911C144.32 13.3828 144.183 14.2387 144.183 15.4787V18.7376C144.183 19.385 144.222 19.8294 144.298 20.0708C144.386 20.3122 144.661 20.7785 145.121 21.4698C145.242 21.6673 145.302 21.8923 145.302 22.1447C145.302 22.7921 144.853 23.2694 143.953 23.5766C143.053 23.8839 141.649 24.0375 139.739 24.0375C136.689 24.0375 135.164 23.4065 135.164 22.1447C135.164 21.8813 135.207 21.6838 135.295 21.5521C135.394 21.4095 135.619 21.212 135.97 20.9596C136.255 20.7511 136.436 20.5152 136.513 20.2518C136.59 19.9775 136.661 19.3137 136.727 18.2603C136.804 17.0094 136.842 15.6981 136.842 14.3265C136.842 13.5694 136.782 13.0756 136.661 12.8452C136.552 12.6038 136.222 12.313 135.674 11.9728C135.202 11.6766 134.966 11.3145 134.966 10.8865C134.966 10.4476 135.158 10.091 135.542 9.81666C135.926 9.53137 136.716 9.17475 137.912 8.74681C138.966 8.37373 139.981 8.061 140.957 7.80863C141.934 7.54528 142.603 7.41361 142.965 7.41361C143.294 7.41361 143.569 7.53431 143.788 7.77571C144.019 8.01711 144.134 8.30241 144.134 8.63159C144.134 8.66451 144.128 8.80167 144.117 9.04307C144.106 9.13086 144.101 9.20767 144.101 9.2735C144.101 9.8002 144.32 10.0635 144.759 10.0635C145.023 10.0635 145.302 9.85507 145.599 9.4381C146.542 8.07746 147.914 7.39715 149.714 7.39715C151.096 7.39715 152.281 7.75925 153.269 8.48346C153.96 8.99918 154.443 9.60818 154.717 10.3104C154.992 11.0017 155.162 12.0222 155.227 13.3719Z" fill="#CFCFCF"/>
<path d="M167.654 11.6107V17.174C167.654 17.8323 167.813 18.37 168.132 18.787C168.461 19.2039 168.878 19.4124 169.382 19.4124C169.81 19.4124 170.375 19.2149 171.078 18.8199C171.242 18.7211 171.407 18.6717 171.571 18.6717C171.835 18.6717 172.076 18.8309 172.296 19.1491C172.515 19.4673 172.625 19.8129 172.625 20.186C172.625 20.8663 172.252 21.5192 171.506 22.1447C169.948 23.4724 168.06 24.1362 165.844 24.1362C164.088 24.1362 162.678 23.6425 161.614 22.6549C160.549 21.6564 160.017 20.3451 160.017 18.7211V11.1169C160.017 10.8646 159.984 10.7109 159.918 10.6561C159.863 10.5902 159.71 10.5573 159.457 10.5573H157.762C157.444 10.5573 157.241 10.5079 157.153 10.4092C157.065 10.2995 157.021 10.0526 157.021 9.66853V8.94432C157.032 8.61513 157.159 8.37373 157.4 8.22011L164.938 3.47984C165.125 3.38108 165.355 3.33171 165.63 3.33171H166.963C167.237 3.33171 167.418 3.39754 167.506 3.52922C167.605 3.64992 167.654 3.89681 167.654 4.26989V6.49189C167.654 6.82107 167.704 7.03504 167.802 7.1338C167.912 7.23255 168.137 7.28193 168.477 7.28193H171.522C171.928 7.28193 172.191 7.35874 172.312 7.51236C172.433 7.65501 172.493 7.96774 172.493 8.45054V9.42164C172.493 9.94833 172.416 10.3159 172.263 10.5244C172.109 10.7219 171.829 10.8207 171.423 10.8207H168.444C168.137 10.8207 167.929 10.8755 167.819 10.9853C167.709 11.095 167.654 11.3035 167.654 11.6107Z" fill="#CFCFCF"/>
<path d="M182.764 2.03142L182.55 8.92786C182.528 9.75082 182.78 10.1623 183.307 10.1623C183.57 10.1623 183.828 9.98125 184.081 9.61915C185.145 8.07198 186.566 7.29839 188.343 7.29839C190.088 7.29839 191.476 7.83057 192.508 8.89494C192.969 9.36677 193.292 9.92639 193.479 10.5738C193.676 11.2212 193.786 12.1484 193.808 13.3554L193.956 19.2972C193.967 19.8129 194.033 20.1915 194.154 20.4329C194.285 20.6743 194.582 20.976 195.042 21.3382C195.361 21.5905 195.52 21.8923 195.52 22.2434C195.52 23.4285 193.731 24.021 190.154 24.021C186.972 24.021 185.381 23.4669 185.381 22.3586C185.381 22.1721 185.408 22.0294 185.463 21.9307C185.518 21.8319 185.71 21.5686 186.039 21.1406C186.5 20.5371 186.73 19.0284 186.73 16.6143C186.73 15.155 186.593 14.0906 186.319 13.4212C185.957 12.5105 185.31 12.0551 184.377 12.0551C183.707 12.0551 183.214 12.2965 182.895 12.7793C182.665 13.1305 182.55 13.7888 182.55 14.7544V17.9311C182.627 19.3356 182.692 20.1311 182.747 20.3177C182.802 20.5042 183.055 20.8499 183.504 21.3546C183.713 21.585 183.817 21.8539 183.817 22.1611C183.817 23.401 182.204 24.021 178.978 24.021C175.204 24.021 173.316 23.3791 173.316 22.0953C173.316 21.799 173.377 21.5741 173.497 21.4204C173.618 21.2559 173.914 21.009 174.386 20.6798C174.803 20.3835 175.088 19.588 175.242 18.2932C175.407 16.9874 175.489 14.8313 175.489 11.8247C175.489 9.46553 175.423 7.83057 175.291 6.91983C175.247 6.57967 175.165 6.33278 175.044 6.17916C174.935 6.01457 174.721 5.84998 174.402 5.68538C173.722 5.33425 173.382 4.92826 173.382 4.4674C173.382 3.91875 173.64 3.47435 174.156 3.1342C174.671 2.79404 175.659 2.42645 177.118 2.03142C179.093 1.48278 180.668 1.20846 181.842 1.20846C182.479 1.20846 182.786 1.48278 182.764 2.03142Z" fill="#CFCFCF"/>
<path d="M205.642 8.43408V17.9969C205.642 18.754 205.708 19.3082 205.84 19.6593C205.982 20.0104 206.262 20.3341 206.679 20.6304C207.019 20.8718 207.244 21.0803 207.354 21.2559C207.475 21.4204 207.535 21.6344 207.535 21.8978C207.535 23.3133 205.741 24.021 202.153 24.021C200.222 24.021 198.691 23.8674 197.561 23.5602C197.177 23.4504 196.864 23.2584 196.623 22.9841C196.392 22.7098 196.277 22.397 196.277 22.0459C196.277 21.7496 196.337 21.5192 196.458 21.3546C196.579 21.19 196.886 20.9267 197.38 20.5646C197.72 20.3122 197.961 19.9007 198.104 19.3301C198.246 18.7595 198.318 17.9091 198.318 16.7789C198.318 16.4168 198.29 15.742 198.236 14.7544C198.192 13.7559 198.159 13.1744 198.137 13.0098C198.071 12.5599 197.764 12.2142 197.215 11.9728C196.535 11.6766 196.195 11.2376 196.195 10.6561C196.195 9.96479 196.639 9.44907 197.528 9.10891C198.757 8.63708 200.073 8.23657 201.478 7.90738C202.883 7.5782 203.969 7.41361 204.737 7.41361C205.34 7.41361 205.642 7.75376 205.642 8.43408ZM202.383 1.22492C203.338 1.22492 204.095 1.40597 204.655 1.76808C205.214 2.11921 205.494 2.59653 205.494 3.20003C205.494 4.04494 205.072 4.71429 204.227 5.20806C202.888 5.98714 201.27 6.37667 199.371 6.37667C198.57 6.37667 197.934 6.22305 197.462 5.91581C196.826 5.52079 196.507 4.97215 196.507 4.26989C196.507 3.32622 197.182 2.58555 198.532 2.04788C199.903 1.49924 201.187 1.22492 202.383 1.22492Z" fill="#CFCFCF"/>
<path d="M216.193 7.39715C216.774 7.39715 217.125 7.47944 217.246 7.64404C217.378 7.80863 217.493 8.33533 217.592 9.22413C217.646 9.70693 217.817 9.94833 218.102 9.94833C218.321 9.94833 218.53 9.78923 218.727 9.47102C219.605 8.09941 220.752 7.41361 222.167 7.41361C223.166 7.41361 223.983 7.73731 224.62 8.3847C224.927 8.70292 225.179 9.1144 225.377 9.61915C225.574 10.1129 225.673 10.5902 225.673 11.0511C225.673 11.5668 225.552 12.099 225.311 12.6477C225.07 13.1853 224.757 13.6297 224.373 13.9809C223.671 14.6502 222.809 14.9849 221.789 14.9849C221.229 14.9849 220.757 14.8861 220.373 14.6886C220 14.4911 219.506 14.0906 218.892 13.4871C218.661 13.2566 218.448 13.1414 218.25 13.1414C217.943 13.1414 217.74 13.317 217.641 13.6681C217.553 14.0083 217.509 14.7325 217.509 15.8408C217.509 17.4977 217.57 18.6279 217.69 19.2314C217.767 19.5606 217.871 19.791 218.003 19.9227C218.146 20.0434 218.442 20.1695 218.892 20.3012C219.879 20.5975 220.373 21.1132 220.373 21.8484C220.373 22.2983 220.214 22.6933 219.896 23.0335C219.578 23.3626 219.155 23.5821 218.629 23.6918C217.575 23.9113 216.028 24.021 213.987 24.021C212.045 24.021 210.569 23.8509 209.559 23.5108C208.66 23.2035 208.21 22.6714 208.21 21.9142C208.21 21.3436 208.539 20.8334 209.197 20.3835C209.516 20.175 209.735 19.9885 209.856 19.8239C209.976 19.6483 210.059 19.4124 210.103 19.1161C210.278 18.1176 210.366 16.2687 210.366 13.5694C210.366 13.0756 210.311 12.7245 210.201 12.516C210.092 12.2965 209.872 12.121 209.543 11.9893C208.764 11.682 208.374 11.2376 208.374 10.6561C208.374 10.1294 208.643 9.6795 209.181 9.30642C209.719 8.92237 210.618 8.54381 211.88 8.17073C213.57 7.66598 215.008 7.40812 216.193 7.39715Z" fill="#CFCFCF"/>
<path d="M241.392 16.3181H233.656C233.316 16.3181 233.146 16.4662 233.146 16.7625C233.146 17.4757 233.53 18.1505 234.298 18.787C235.077 19.4124 235.911 19.7251 236.8 19.7251C237.326 19.7251 237.908 19.6264 238.544 19.4289C239.192 19.2204 239.724 18.968 240.141 18.6717C240.514 18.4084 240.81 18.2767 241.03 18.2767C241.315 18.2767 241.595 18.4523 241.869 18.8034C242.143 19.1546 242.281 19.5167 242.281 19.8897C242.281 20.6798 241.787 21.4424 240.799 22.1776C239.055 23.4833 237.041 24.1362 234.759 24.1362C232.454 24.1362 230.523 23.4669 228.965 22.1282C228.208 21.4698 227.582 20.6743 227.089 19.7416C226.441 18.5017 226.118 17.1959 226.118 15.8243C226.118 13.9809 226.677 12.324 227.796 10.8536C228.762 9.58074 229.991 8.63159 231.483 8.00614C232.602 7.53431 233.815 7.29839 235.121 7.29839C237.206 7.29839 238.978 7.89093 240.437 9.07599C241.172 9.66853 241.765 10.3708 242.215 11.1828C242.73 12.1045 242.988 13.0043 242.988 13.8821C242.988 14.5953 242.84 15.1824 242.544 15.6432C242.248 16.0931 241.864 16.3181 241.392 16.3181ZM234.084 13.2402H235.746C236.448 13.2402 236.8 12.9165 236.8 12.2691C236.8 11.6766 236.63 11.1938 236.289 10.8207C235.949 10.4476 235.505 10.2611 234.956 10.2611C234.342 10.2611 233.859 10.5025 233.508 10.9853C233.179 11.4352 233.014 11.8905 233.014 12.3514C233.014 12.6806 233.091 12.911 233.244 13.0427C233.409 13.1744 233.689 13.2402 234.084 13.2402Z" fill="#CFCFCF"/>
<path d="M253.078 8.23657V17.1575C253.078 19.0668 253.709 20.0214 254.971 20.0214C255.289 20.0214 255.602 19.9336 255.909 19.7581C256.216 19.5715 256.43 19.3466 256.551 19.0832C256.792 18.5565 256.913 17.3824 256.913 15.5609C256.913 13.7614 256.852 12.5324 256.732 11.8741C256.688 11.5997 256.611 11.4022 256.501 11.2815C256.392 11.1499 256.183 11.0017 255.876 10.8371C255.25 10.5079 254.938 10.091 254.938 9.58623C254.938 8.90591 255.475 8.43408 256.551 8.17073C258.592 7.66598 260.605 7.41361 262.591 7.41361C263.7 7.41361 264.254 8.00065 264.254 9.17475C264.254 9.29545 264.248 9.54234 264.237 9.91542C264.215 10.4421 264.199 11.084 264.188 11.8412V19.0997C264.188 19.4728 264.506 19.8129 265.142 20.1202C265.68 20.3835 265.949 20.7676 265.949 21.2723C265.949 22.2599 264.78 23.0225 262.443 23.5602C261.072 23.8784 259.744 24.0375 258.46 24.0375C257.933 24.0375 257.571 23.9771 257.374 23.8564C257.187 23.7357 257.077 23.4998 257.045 23.1487C256.99 22.4684 256.781 22.1282 256.419 22.1282C256.287 22.1282 256.167 22.1611 256.057 22.227C255.947 22.2818 255.613 22.5013 255.053 22.8853C253.945 23.6425 252.754 24.021 251.481 24.021C249.374 24.021 247.888 23.412 247.021 22.194C246.286 21.1736 245.918 19.4563 245.918 17.0423C245.918 16.1425 245.924 15.3744 245.934 14.738C245.934 14.3649 245.934 14.1125 245.934 13.9809C245.934 13.0372 245.847 12.3459 245.671 11.907C245.507 11.4571 245.199 11.106 244.749 10.8536C244.321 10.6341 244.047 10.4586 243.926 10.3269C243.817 10.1952 243.762 10.0142 243.762 9.78374C243.762 8.94981 244.393 8.39568 245.655 8.12136C247.805 7.64952 249.956 7.41361 252.107 7.41361C252.754 7.41361 253.078 7.68793 253.078 8.23657Z" fill="#CFCFCF"/>
<path d="M276.434 2.03142L276.285 7.18318C276.274 7.6989 276.269 8.45603 276.269 9.45456C276.269 10.5628 276.285 11.2157 276.318 11.4132C276.395 11.8631 276.626 12.088 277.01 12.088C277.339 12.088 277.844 11.8796 278.524 11.4626C279.204 11.0346 279.544 10.7164 279.544 10.5079C279.544 10.3872 279.424 10.1678 279.182 9.84958C279.007 9.61915 278.919 9.39969 278.919 9.19121C278.919 8.00614 280.378 7.41361 283.297 7.41361C284.811 7.41361 286.007 7.56723 286.885 7.87447C287.236 7.99517 287.527 8.20365 287.758 8.49992C287.988 8.79619 288.103 9.1144 288.103 9.45456C288.103 9.94833 287.867 10.294 287.395 10.4915C287.297 10.5354 286.978 10.6067 286.441 10.7055C285.958 10.7932 285.333 11.095 284.564 11.6107C283.796 12.1155 283.412 12.4831 283.412 12.7135C283.412 12.8671 283.873 13.5913 284.795 14.8861C285.728 16.1699 286.594 17.2892 287.395 18.2438C287.911 18.8693 288.312 19.3082 288.597 19.5606C288.893 19.8129 289.299 20.0818 289.815 20.3671C290.605 20.795 291 21.2833 291 21.8319C291 22.4135 290.748 22.8689 290.243 23.198C289.749 23.5272 289.069 23.6918 288.202 23.6918H282.869C282.2 23.6809 281.679 23.434 281.305 22.9512L278.573 19.4453C277.849 18.5236 277.405 17.975 277.24 17.7994C277.086 17.6238 276.955 17.5361 276.845 17.5361C276.713 17.5361 276.626 17.6348 276.582 17.8323C276.538 18.0298 276.516 18.4029 276.516 18.9516C276.516 19.4453 276.571 19.8074 276.68 20.0379C276.79 20.2573 277.043 20.5262 277.438 20.8444C277.723 21.0748 277.866 21.415 277.866 21.8648C277.866 22.6329 277.46 23.1871 276.648 23.5272C275.836 23.8674 274.497 24.0375 272.631 24.0375C270.437 24.0375 269.01 23.9442 268.352 23.7577C267.979 23.6479 267.661 23.4285 267.397 23.0993C267.134 22.7591 267.002 22.4025 267.002 22.0294C267.002 21.6125 267.233 21.2504 267.694 20.9431C268.089 20.6908 268.341 20.4987 268.451 20.3671C268.561 20.2354 268.648 20.0269 268.714 19.7416C268.967 18.2054 269.087 15.8353 269.076 12.6312V9.02662C269.076 7.79766 269.01 7.0131 268.879 6.67294C268.758 6.33278 268.451 6.12978 267.957 6.06395C267.057 5.94324 266.607 5.57017 266.607 4.94472C266.607 4.52775 266.805 4.15467 267.2 3.82548C267.595 3.48533 268.242 3.15065 269.142 2.82147C272.017 1.7571 274.146 1.22492 275.528 1.22492C276.154 1.22492 276.455 1.49375 276.434 2.03142Z" fill="#CFCFCF"/>
<path d="M91.4651 38.2967H86.8944C86.6866 38.2967 86.5925 38.3905 86.5925 38.5605C86.5925 38.9749 86.8198 39.3698 87.2726 39.747C87.7254 40.1242 88.2173 40.3119 88.7464 40.3119C89.0483 40.3119 89.407 40.2552 89.7852 40.1419C90.1635 40.0286 90.4849 39.878 90.7299 39.708C90.9572 39.5575 91.1259 39.4814 91.2591 39.4814C91.4296 39.4814 91.5983 39.5752 91.751 39.7824C91.9214 39.9896 91.996 40.1968 91.996 40.4235C91.996 40.8945 91.7119 41.3284 91.1277 41.7604C90.1084 42.5325 88.9187 42.9097 87.578 42.9097C86.2178 42.9097 85.0849 42.5148 84.1598 41.7233C83.707 41.3284 83.3483 40.875 83.0641 40.3296C82.6824 39.5965 82.4941 38.8421 82.4941 38.0328C82.4941 36.9597 82.8155 35.9804 83.4761 35.1127C84.0426 34.3601 84.76 33.8129 85.6478 33.4357C86.3084 33.1524 87.0258 33.0213 87.7822 33.0213C89.0093 33.0213 90.048 33.3596 90.9164 34.0573C91.3514 34.3955 91.6906 34.8099 91.9552 35.3004C92.257 35.8458 92.408 36.3735 92.408 36.8818C92.408 37.2961 92.3139 37.6344 92.1434 37.9177C91.9552 38.1639 91.7297 38.2967 91.4651 38.2967ZM87.159 36.4886H88.1409C88.5564 36.4886 88.7642 36.3009 88.7642 35.9237C88.7642 35.5855 88.6701 35.2827 88.4623 35.0755C88.2546 34.8488 88.0095 34.755 87.6686 34.755C87.3099 34.755 87.0258 34.9055 86.818 35.1888C86.6298 35.4527 86.5339 35.7165 86.5339 35.9981C86.5339 36.1858 86.5712 36.3186 86.6653 36.4125C86.763 36.4514 86.9139 36.4886 87.159 36.4886Z" fill="#CFCFCF"/>
<path d="M98.5662 32.986C99.6991 32.986 100.644 33.2693 101.418 33.8342C101.834 34.1352 102.118 34.4753 102.286 34.8701C102.455 35.265 102.531 35.7928 102.531 36.471L102.512 37.9018C102.512 38.9006 102.588 39.5399 102.72 39.8409C102.796 39.9914 102.851 40.0676 102.927 40.1048C102.984 40.142 103.135 40.1809 103.343 40.2181C103.551 40.2553 103.645 40.3881 103.645 40.6325C103.645 40.9335 103.513 41.2735 103.267 41.5923C103.021 41.9305 102.7 42.2138 102.304 42.4405C101.812 42.7238 101.303 42.8744 100.775 42.8744C100.095 42.8744 99.5659 42.6477 99.17 42.1767C99.0385 42.0067 98.9054 41.9323 98.7917 41.9323C98.6603 41.9323 98.4899 42.0084 98.2821 42.1767C97.6393 42.6477 96.9041 42.8744 96.0909 42.8744C95.2403 42.8744 94.562 42.6867 94.0328 42.3289C93.6936 42.0846 93.4291 41.7835 93.2213 41.3869C93.0135 41.0097 92.9194 40.5953 92.9194 40.1809C92.9194 39.5027 93.184 38.9183 93.7309 38.4101C94.5815 37.6008 95.8458 37.1864 97.5274 37.1864C97.9056 37.1864 98.1312 37.1492 98.227 37.0731C98.3212 36.9969 98.378 36.8287 98.378 36.5648C98.378 35.8866 98.3016 35.3784 98.1702 35.0773C98.0193 34.7763 97.792 34.6258 97.4706 34.6258C97.2824 34.6258 97.1119 34.6824 96.961 34.7958C96.81 34.9091 96.6218 35.1163 96.3945 35.4368C95.828 36.2461 95.2243 36.6605 94.601 36.6605C94.2796 36.6605 94.0346 36.5666 93.8268 36.3771C93.6191 36.1894 93.5249 35.9433 93.5249 35.6422C93.5249 35.3412 93.6563 35.0207 93.9032 34.7196C94.1482 34.4186 94.4892 34.1352 94.9224 33.9104C96.0731 33.287 97.2824 32.986 98.5662 32.986ZM97.9056 38.5783C97.6215 38.5783 97.3765 38.6916 97.1687 38.9165C96.961 39.1414 96.8473 39.4248 96.8473 39.7453C96.8473 40.0463 96.9237 40.3102 97.0746 40.4979C97.2255 40.6856 97.4138 40.7812 97.6606 40.7812C98.1702 40.7812 98.4348 40.3474 98.4348 39.4814C98.4348 39.1237 98.3975 38.897 98.3212 38.766C98.2643 38.6544 98.1134 38.5783 97.9056 38.5783Z" fill="#CFCFCF"/>
<path d="M108.16 32.986C108.482 32.986 109.011 33.0621 109.746 33.1931C109.897 33.2126 110.011 33.2303 110.105 33.2303C110.218 33.2303 110.426 33.1737 110.748 33.0603C110.898 33.0037 111.032 32.9665 111.126 32.9665C111.428 32.9665 111.729 33.1542 112.033 33.5314C112.278 33.8324 112.486 34.1724 112.637 34.5301C112.788 34.8878 112.864 35.2084 112.864 35.4722C112.864 35.7361 112.77 35.9433 112.6 36.1133C112.411 36.2833 112.184 36.3771 111.919 36.3771C111.692 36.3771 111.484 36.3205 111.316 36.2071C111.145 36.0938 110.843 35.8494 110.465 35.4917C110.05 35.0968 109.71 34.8896 109.446 34.8896C109.258 34.8896 109.107 34.9658 108.974 35.0968C108.842 35.2278 108.766 35.3801 108.766 35.5678C108.766 35.8884 109.068 36.1699 109.673 36.4533C110.769 36.9438 111.6 37.4697 112.186 38.0541C112.678 38.5446 112.923 39.1467 112.923 39.8427C112.923 40.7476 112.527 41.4807 111.733 42.0846C111.053 42.6123 110.222 42.8761 109.24 42.8761C108.995 42.8761 108.523 42.8389 107.862 42.7451C107.239 42.6689 106.88 42.6317 106.804 42.6317C106.727 42.6317 106.615 42.6512 106.52 42.6689C106.331 42.6884 106.198 42.7061 106.104 42.7061C105.802 42.7061 105.557 42.63 105.387 42.4795C105.122 42.2351 104.877 41.8579 104.65 41.3497C104.422 40.8414 104.311 40.3899 104.311 40.0321C104.311 39.4478 104.538 39.1467 105.01 39.1467C105.198 39.1467 105.349 39.2034 105.502 39.3167C105.653 39.4301 105.974 39.7506 106.464 40.2765C106.729 40.5599 106.956 40.7476 107.125 40.8609C107.294 40.9742 107.484 41.0114 107.691 41.0114C107.899 41.0114 108.07 40.9548 108.201 40.8414C108.333 40.7281 108.389 40.5776 108.389 40.3899C108.389 40.1065 108.144 39.8444 107.635 39.5983C106.596 39.0901 105.841 38.5623 105.387 38.0169C104.934 37.4715 104.687 36.8499 104.687 36.1327C104.687 35.3607 104.914 34.7019 105.387 34.1547C106.063 33.4003 106.988 32.986 108.16 32.986Z" fill="#CFCFCF"/>
<path d="M122.966 37.7495L121.682 41.2522C121.361 42.1182 121.04 42.8336 120.72 43.3808C120.399 43.9262 120.04 44.3973 119.624 44.7939C118.793 45.5855 117.774 45.9999 116.584 45.9999C115.622 45.9999 114.848 45.7555 114.262 45.2473C113.809 44.8524 113.582 44.3618 113.582 43.7775C113.582 43.2869 113.733 42.8726 114.054 42.5343C114.375 42.1961 114.771 42.0261 115.224 42.0261C115.696 42.0261 116.055 42.1766 116.357 42.4971C116.488 42.6477 116.584 42.761 116.622 42.8743C116.659 42.9877 116.735 43.232 116.829 43.5898C116.906 43.8731 117.057 44.0236 117.321 44.0236C117.529 44.0236 117.68 43.9298 117.831 43.7598C117.982 43.5898 118.039 43.3649 118.039 43.1187C118.039 42.8177 117.868 42.3094 117.529 41.594L115.185 36.6392C114.94 36.131 114.75 35.8104 114.638 35.6794C114.507 35.5483 114.242 35.3961 113.827 35.2083C113.695 35.1517 113.582 35.0578 113.487 34.9073C113.393 34.7568 113.356 34.6063 113.356 34.4734C113.356 33.9085 113.923 33.5136 115.075 33.3065C115.83 33.1754 116.7 33.0993 117.682 33.0993C118.362 33.0993 118.909 33.1754 119.307 33.3065C119.836 33.4942 120.1 33.8147 120.1 34.2663C120.1 34.4363 120.024 34.624 119.873 34.8312C119.722 35.0383 119.665 35.2261 119.665 35.3766C119.665 35.5271 119.703 35.6971 119.759 35.8671C119.836 36.0371 119.967 36.3187 120.194 36.7153C120.439 37.1669 120.647 37.3936 120.837 37.3936C121.045 37.3936 121.253 37.1864 121.46 36.7915C121.668 36.3966 121.782 36.0194 121.782 35.6422C121.782 35.3412 121.706 35.0968 121.537 34.9268C121.292 34.6434 121.159 34.3814 121.159 34.1742C121.159 33.8537 121.386 33.5898 121.819 33.3826C122.254 33.1949 122.838 33.0816 123.575 33.0816C124.953 33.0816 125.633 33.4021 125.633 34.0608C125.633 34.3052 125.557 34.4947 125.426 34.6452C125.294 34.7957 125.03 34.9286 124.671 35.0596C124.369 35.1729 124.124 35.3606 123.934 35.644C123.664 36.0371 123.343 36.7525 122.966 37.7495Z" fill="#CFCFCF"/>
<path d="M129.517 31.6241C129.964 31.6241 130.389 31.7074 130.79 31.8721C131.19 32.0368 131.548 32.2776 131.866 32.5928C132.171 32.8974 132.404 33.248 132.567 33.6447C132.731 34.0431 132.813 34.4628 132.813 34.9073C132.813 35.3571 132.731 35.7785 132.567 36.1717C132.404 36.5648 132.168 36.9119 131.857 37.2129C131.532 37.5281 131.168 37.7707 130.767 37.939C130.366 38.1072 129.95 38.1922 129.519 38.1922C129.085 38.1922 128.67 38.109 128.27 37.9425C127.871 37.7761 127.514 37.5335 127.198 37.2147C126.883 36.9048 126.645 36.5524 126.48 36.1557C126.315 35.7591 126.233 35.3447 126.233 34.9091C126.233 34.4717 126.319 34.052 126.489 33.65C126.66 33.248 126.905 32.8868 127.224 32.568C127.526 32.2616 127.872 32.0279 128.263 31.8668C128.654 31.7038 129.071 31.6241 129.517 31.6241ZM132.415 34.9303C132.415 34.5354 132.344 34.16 132.2 33.8076C132.056 33.4552 131.852 33.1435 131.582 32.8726C131.301 32.5963 130.987 32.3856 130.635 32.2422C130.286 32.0987 129.909 32.0261 129.51 32.0261C129.115 32.0261 128.748 32.097 128.405 32.2351C128.062 32.3732 127.759 32.5786 127.492 32.846C127.212 33.1294 126.997 33.4463 126.848 33.8005C126.699 34.1547 126.624 34.5248 126.624 34.9108C126.624 35.288 126.697 35.651 126.843 35.9999C126.988 36.3488 127.199 36.6622 127.473 36.942C127.745 37.2165 128.054 37.4254 128.403 37.5706C128.751 37.7159 129.117 37.7885 129.499 37.7885C129.89 37.7885 130.261 37.7158 130.616 37.5724C130.969 37.429 131.287 37.2182 131.571 36.942C131.843 36.6746 132.051 36.3682 132.195 36.0229C132.342 35.6776 132.415 35.3146 132.415 34.9303ZM129.606 32.9771C130.137 32.9771 130.532 33.0621 130.79 33.2321C131.047 33.4021 131.177 33.6606 131.177 34.0095C131.177 34.2751 131.097 34.4965 130.939 34.6735C130.781 34.8506 130.566 34.964 130.295 35.0118L131.136 36.7313H130.433L129.645 35.1003H128.842V36.7313H128.21V32.9771H129.606ZM129.49 33.3897H128.846V34.6895H129.508C129.875 34.6895 130.137 34.6399 130.293 34.5425C130.447 34.4433 130.525 34.284 130.525 34.0608C130.525 33.8253 130.444 33.6553 130.28 33.5491C130.117 33.441 129.854 33.3897 129.49 33.3897Z" fill="#CFCFCF"/>
<path d="M62.3123 37.4674H61.2173V36.6266H62.3123V34.2215H63.3552V36.6266H64.4502V37.4674H63.3552V42.5906H62.3123V37.4674Z" fill="#CFCFCF"/>
<path d="M65.6104 42.5906V32.4877H66.6077V37.5456C66.8641 37.1633 67.1726 36.8786 67.5332 36.6918C67.8939 36.5049 68.311 36.4115 68.7847 36.4115C69.4886 36.4115 70.0383 36.5984 70.4337 36.9721C70.8292 37.3458 71.0269 37.865 71.0269 38.5299V42.5906H69.984V39.0774C69.984 38.4734 69.8558 38.0258 69.5994 37.7347C69.3474 37.4392 68.9563 37.2914 68.4262 37.2914C68.122 37.2914 67.8439 37.3479 67.5919 37.4609C67.3442 37.5695 67.1378 37.726 66.9727 37.9302C66.8467 38.0866 66.7554 38.2648 66.6989 38.4647C66.6468 38.6646 66.6207 39.0122 66.6207 39.5076V42.5906H65.6104Z" fill="#CFCFCF"/>
<path d="M77.2842 38.934C77.2494 38.4082 77.0734 38.0041 76.7562 37.7216C76.4433 37.4348 76.0132 37.2914 75.4656 37.2914C74.9703 37.2914 74.5575 37.4414 74.2272 37.7412C73.897 38.0367 73.7058 38.4343 73.6536 38.934H77.2842ZM78.3792 39.7618H73.6536V39.853C73.6536 40.4918 73.8361 41.0089 74.2012 41.4043C74.5662 41.7954 75.042 41.9909 75.6286 41.9909C76.0284 41.9909 76.389 41.8845 76.7106 41.6715C77.0321 41.4543 77.3168 41.1284 77.5644 40.6938L78.3401 41.2153C78.0403 41.7541 77.6579 42.1604 77.1929 42.4341C76.728 42.7079 76.1891 42.8448 75.5765 42.8448C74.6683 42.8448 73.9339 42.545 73.3734 41.9453C72.8128 41.3456 72.5325 40.5591 72.5325 39.5858C72.5325 38.6515 72.8106 37.8868 73.3668 37.2914C73.9231 36.6961 74.6379 36.3985 75.5113 36.3985C76.3934 36.3985 77.0908 36.6809 77.6036 37.2458C78.1206 37.8107 78.3792 38.582 78.3792 39.5597V39.7618Z" fill="#CFCFCF"/>
<path d="M137.024 42.5898V37.4666H135.877V36.6258H137.024V34.8985C137.024 33.9078 137.148 33.2386 137.396 32.891C137.648 32.539 138.098 32.363 138.745 32.363C138.906 32.363 139.058 32.3739 139.201 32.3956C139.349 32.4174 139.49 32.4521 139.625 32.4999V33.5558C139.495 33.482 139.362 33.4276 139.227 33.3929C139.097 33.3581 138.962 33.3407 138.823 33.3407C138.524 33.3407 138.317 33.4363 138.204 33.6275C138.091 33.8187 138.035 34.288 138.035 35.0354V36.6258H139.625V37.4666H138.061V42.5898H137.024Z" fill="#CFCFCF"/>
<path d="M145.178 39.6632C145.178 38.9897 144.994 38.4487 144.624 38.0402C144.259 37.6274 143.781 37.421 143.19 37.421C142.578 37.421 142.1 37.61 141.756 37.9881C141.413 38.3661 141.242 38.8941 141.242 39.572C141.242 40.2933 141.413 40.8495 141.756 41.2406C142.104 41.6316 142.595 41.8272 143.23 41.8272C143.838 41.8272 144.314 41.6382 144.657 41.2601C145.005 40.8777 145.178 40.3454 145.178 39.6632ZM146.169 36.6258V42.5898H145.178V41.5078C144.939 41.9423 144.633 42.2747 144.259 42.5051C143.89 42.731 143.475 42.844 143.014 42.844C142.158 42.844 141.467 42.5507 140.942 41.9641C140.42 41.3731 140.16 40.5931 140.16 39.6241C140.16 38.642 140.414 37.8621 140.922 37.2841C141.431 36.7019 142.111 36.4107 142.962 36.4107C143.462 36.4107 143.894 36.5237 144.259 36.7497C144.629 36.9713 144.926 37.3037 145.152 37.7469V36.6258H146.169Z" fill="#CFCFCF"/>
<path d="M156.52 42.5898V39.0766C156.52 38.4726 156.398 38.025 156.155 37.7339C155.911 37.4384 155.538 37.2906 155.034 37.2906C154.76 37.2906 154.506 37.3471 154.271 37.4601C154.041 37.5688 153.845 37.7252 153.684 37.9294C153.567 38.0858 153.482 38.2683 153.43 38.4769C153.378 38.6855 153.352 39.0288 153.352 39.5068V42.5898H152.368V39.0766C152.368 38.4726 152.246 38.025 152.003 37.7339C151.759 37.4384 151.386 37.2906 150.882 37.2906C150.608 37.2906 150.352 37.3471 150.113 37.4601C149.878 37.5688 149.68 37.7252 149.519 37.9294C149.406 38.0815 149.324 38.2575 149.272 38.4574C149.224 38.6573 149.2 39.0071 149.2 39.5068V42.5898H148.216V36.6258H149.213V37.5449C149.461 37.1625 149.756 36.8778 150.099 36.691C150.443 36.5041 150.838 36.4107 151.286 36.4107C151.768 36.4107 152.179 36.515 152.518 36.7236C152.857 36.9278 153.113 37.2276 153.287 37.6231C153.543 37.2146 153.845 36.9104 154.193 36.7105C154.545 36.5107 154.951 36.4107 155.412 36.4107C156.076 36.4107 156.596 36.5976 156.969 36.9713C157.343 37.345 157.53 37.8642 157.53 38.5291V42.5898H156.52Z" fill="#CFCFCF"/>
<path d="M159.355 33.7514C159.355 33.5471 159.427 33.3733 159.57 33.2299C159.718 33.0822 159.896 33.0083 160.105 33.0083C160.309 33.0083 160.483 33.0822 160.626 33.2299C160.774 33.3777 160.848 33.5558 160.848 33.7644C160.848 33.9686 160.776 34.1425 160.633 34.2858C160.489 34.4292 160.313 34.5009 160.105 34.5009C159.896 34.5009 159.718 34.4292 159.57 34.2858C159.427 34.1425 159.355 33.9643 159.355 33.7514ZM159.596 42.5898V36.6258H160.626V42.5898H159.596Z" fill="#CFCFCF"/>
<path d="M162.829 42.5898V32.4869H163.872V42.5898H162.829Z" fill="#CFCFCF"/>
<path d="M165.769 45.4968L167.385 42.0032L165.045 36.6258H166.225L167.959 40.9081L169.797 36.6258H170.918L166.916 45.4968H165.769Z" fill="#CFCFCF"/>
<path d="M176.426 39.6241C176.426 40.2542 176.636 40.7886 177.058 41.2275C177.479 41.6621 177.99 41.8793 178.59 41.8793C179.185 41.8793 179.691 41.6621 180.108 41.2275C180.526 40.7886 180.734 40.2542 180.734 39.6241C180.734 38.994 180.526 38.4617 180.108 38.0272C179.691 37.5883 179.185 37.3689 178.59 37.3689C177.986 37.3689 177.473 37.5883 177.051 38.0272C176.634 38.4617 176.426 38.994 176.426 39.6241ZM175.344 39.6241C175.344 39.1852 175.424 38.7724 175.585 38.3857C175.746 37.9946 175.98 37.647 176.289 37.3428C176.597 37.0386 176.947 36.8083 177.338 36.6519C177.729 36.4911 178.146 36.4107 178.59 36.4107C179.024 36.4107 179.435 36.4911 179.822 36.6519C180.213 36.8127 180.567 37.0473 180.884 37.3558C181.193 37.6557 181.427 38.0011 181.588 38.3922C181.749 38.7789 181.829 39.1896 181.829 39.6241C181.829 40.0586 181.749 40.4693 181.588 40.856C181.427 41.2384 181.193 41.5795 180.884 41.8793C180.567 42.1922 180.21 42.4312 179.815 42.5963C179.424 42.7614 179.016 42.844 178.59 42.844C178.151 42.844 177.734 42.7614 177.338 42.5963C176.947 42.4355 176.597 42.2031 176.289 41.8989C175.98 41.586 175.746 41.2384 175.585 40.856C175.424 40.4736 175.344 40.063 175.344 39.6241Z" fill="#CFCFCF"/>
<path d="M183.693 42.5898V37.4666H182.546V36.6258H183.693V34.8985C183.693 33.9078 183.817 33.2386 184.065 32.891C184.317 32.539 184.767 32.363 185.414 32.363C185.575 32.363 185.727 32.3739 185.87 32.3956C186.018 32.4174 186.159 32.4521 186.294 32.4999V33.5558C186.164 33.482 186.031 33.4276 185.896 33.3929C185.766 33.3581 185.631 33.3407 185.492 33.3407C185.192 33.3407 184.986 33.4363 184.873 33.6275C184.76 33.8187 184.704 34.288 184.704 35.0354V36.6258H186.294V37.4666H184.73V42.5898H183.693Z" fill="#CFCFCF"/>
<path d="M192.193 39.6371C192.193 40.3324 192.371 40.8756 192.727 41.2666C193.084 41.6577 193.572 41.8533 194.194 41.8533C194.802 41.8533 195.278 41.6468 195.621 41.234C195.969 40.8169 196.143 40.2411 196.143 39.5068C196.143 38.855 195.973 38.3444 195.634 37.975C195.295 37.6057 194.826 37.421 194.226 37.421C193.618 37.421 193.127 37.6252 192.753 38.0337C192.38 38.4378 192.193 38.9723 192.193 39.6371ZM191.222 32.4869H192.232V37.7469C192.462 37.3037 192.76 36.9713 193.125 36.7497C193.49 36.5237 193.918 36.4107 194.409 36.4107C195.265 36.4107 195.947 36.7019 196.456 37.2841C196.968 37.8664 197.225 38.6464 197.225 39.6241C197.225 40.5931 196.964 41.3731 196.443 41.9641C195.921 42.5507 195.23 42.844 194.37 42.844C193.909 42.844 193.49 42.7288 193.112 42.4985C192.734 42.2639 192.427 41.9336 192.193 41.5078V42.5898H191.222V32.4869Z" fill="#CFCFCF"/>
<path d="M198.874 42.5898V36.6258H199.78V37.8642C200.053 37.3471 200.345 36.9778 200.653 36.7562C200.962 36.5346 201.338 36.4238 201.781 36.4238C201.902 36.4238 202.02 36.4346 202.133 36.4563C202.246 36.4737 202.359 36.502 202.472 36.5411L202.133 37.4601C202.015 37.421 201.905 37.3928 201.8 37.3754C201.696 37.3537 201.596 37.3428 201.5 37.3428C200.962 37.3428 200.558 37.5383 200.288 37.9294C200.019 38.3161 199.884 38.9006 199.884 39.6828V42.5898H198.874Z" fill="#CFCFCF"/>
<path d="M208.116 39.6632C208.116 38.9897 207.932 38.4487 207.562 38.0402C207.197 37.6274 206.719 37.421 206.128 37.421C205.516 37.421 205.038 37.61 204.694 37.9881C204.351 38.3661 204.179 38.8941 204.179 39.572C204.179 40.2933 204.351 40.8495 204.694 41.2406C205.042 41.6316 205.533 41.8272 206.167 41.8272C206.776 41.8272 207.252 41.6382 207.595 41.2601C207.942 40.8777 208.116 40.3454 208.116 39.6632ZM209.107 36.6258V42.5898H208.116V41.5078C207.877 41.9423 207.571 42.2747 207.197 42.5051C206.828 42.731 206.413 42.844 205.952 42.844C205.096 42.844 204.405 42.5507 203.88 41.9641C203.358 41.3731 203.097 40.5931 203.097 39.6241C203.097 38.642 203.352 37.8621 203.86 37.2841C204.368 36.7019 205.048 36.4107 205.9 36.4107C206.4 36.4107 206.832 36.5237 207.197 36.7497C207.567 36.9713 207.864 37.3037 208.09 37.7469V36.6258H209.107Z" fill="#CFCFCF"/>
<path d="M211.154 42.5898V36.6258H212.151V37.5449C212.407 37.1625 212.716 36.8778 213.076 36.691C213.437 36.5041 213.854 36.4107 214.328 36.4107C215.032 36.4107 215.582 36.5976 215.977 36.9713C216.372 37.345 216.57 37.8642 216.57 38.5291V42.5898H215.527V39.0766C215.527 38.4726 215.399 38.025 215.143 37.7339C214.891 37.4384 214.5 37.2906 213.969 37.2906C213.665 37.2906 213.387 37.3471 213.135 37.4601C212.887 37.5688 212.681 37.7252 212.516 37.9294C212.39 38.0858 212.299 38.264 212.242 38.4639C212.19 38.6638 212.164 39.0114 212.164 39.5068V42.5898H211.154Z" fill="#CFCFCF"/>
<path d="M223.16 39.6371C223.16 38.9723 222.975 38.4378 222.606 38.0337C222.236 37.6252 221.75 37.421 221.146 37.421C220.542 37.421 220.07 37.6057 219.731 37.975C219.392 38.3444 219.223 38.855 219.223 39.5068C219.223 40.2411 219.395 40.8169 219.738 41.234C220.081 41.6468 220.555 41.8533 221.159 41.8533C221.785 41.8533 222.273 41.6577 222.625 41.2666C222.982 40.8756 223.16 40.3324 223.16 39.6371ZM224.151 32.4869V42.5898H223.16V41.5078C222.925 41.938 222.621 42.2682 222.247 42.4985C221.874 42.7288 221.456 42.844 220.996 42.844C220.14 42.844 219.449 42.5507 218.923 41.9641C218.402 41.3731 218.141 40.5931 218.141 39.6241C218.141 38.6464 218.397 37.8664 218.91 37.2841C219.423 36.7019 220.105 36.4107 220.957 36.4107C221.452 36.4107 221.882 36.5237 222.247 36.7497C222.612 36.9713 222.908 37.3037 223.134 37.7469V32.4869H224.151Z" fill="#CFCFCF"/>
<path d="M225.604 41.586L226.477 40.9994C226.643 41.3166 226.851 41.5556 227.103 41.7164C227.355 41.8728 227.653 41.951 227.996 41.951C228.331 41.951 228.6 41.8685 228.804 41.7033C229.013 41.5382 229.117 41.3209 229.117 41.0515C229.117 40.843 229.046 40.6691 228.902 40.5301C228.763 40.391 228.522 40.2629 228.179 40.1455C228.144 40.1325 228.087 40.1129 228.009 40.0869C226.558 39.5872 225.832 38.9614 225.832 38.2097C225.832 37.6796 226.028 37.2472 226.419 36.9126C226.81 36.578 227.318 36.4107 227.944 36.4107C228.461 36.4107 228.904 36.515 229.274 36.7236C229.643 36.9278 229.908 37.219 230.069 37.597L229.241 38.1054C229.119 37.8316 228.939 37.6209 228.7 37.4732C228.465 37.3254 228.192 37.2515 227.879 37.2515C227.579 37.2515 227.333 37.3363 227.142 37.5057C226.955 37.6709 226.862 37.8838 226.862 38.1445C226.862 38.5095 227.257 38.8159 228.048 39.0635C228.196 39.1113 228.313 39.1483 228.4 39.1744C229.048 39.3829 229.497 39.6219 229.75 39.8913C230.006 40.1564 230.134 40.5084 230.134 40.9472C230.134 41.5121 229.932 41.9706 229.528 42.3225C229.128 42.6702 228.605 42.844 227.957 42.844C227.401 42.844 226.927 42.7397 226.536 42.5311C226.149 42.3225 225.839 42.0075 225.604 41.586Z" fill="#CFCFCF"/>
</svg>
