<svg width="677" height="995" viewBox="0 0 677 995" fill="none" xmlns="http://www.w3.org/2000/svg">
<path d="M104.946 175.403H17.9247L61.4354 108.913L104.946 175.403Z" fill="white" stroke="black"/>
<path d="M532.853 650.032H17.9243L275.389 256.263L532.853 650.032Z" fill="white" stroke="black"/>
<path d="M159.874 288.787L35.2393 480.299H284.508L159.874 288.787Z" fill="#313335"/>
<path d="M310.876 364.459L307.311 366.786L440.949 571.622L444.515 569.296L310.876 364.459Z" fill="#313335"/>
<path d="M292.151 369.764L156.13 571.883L158.092 573.204L294.113 371.085L292.151 369.764Z" fill="#FFF735"/>
<path d="M281.594 354.057L145.572 556.176L147.535 557.497L283.556 355.378L281.594 354.057Z" fill="#FFF735"/>
<path d="M271.71 338.194L135.713 540.338L137.675 541.658L273.672 339.514L271.71 338.194Z" fill="#FFF735"/>
<path d="M261.546 322.753L125.549 524.896L127.511 526.217L263.508 324.073L261.546 322.753Z" fill="#FFF735"/>
<path d="M434.566 382.429L621.102 97.655H248.03L434.566 382.429Z" fill="#FFF735"/>
<path d="M502.982 0L463.219 60.8142H542.745L502.982 0Z" fill="#313335"/>
<path d="M615.435 24.1263L380.037 387.219L384.453 390.082L619.851 26.9892L615.435 24.1263Z" fill="#313335"/>
<path d="M803.081 994.53L446.018 435.316L725.357 30.5295L1090.02 595.593L803.081 994.53Z" fill="#E9E9EB"/>
<path d="M17.3125 148.546L34.8173 122H0L17.3125 148.546Z" fill="#FFF735"/>
</svg>
