<svg width="1920" height="1140" viewBox="0 0 1920 1140" fill="none" xmlns="http://www.w3.org/2000/svg">
<path d="M0.499941 853L787 -346L-786 -346L0.499941 853Z" fill="#FFF735"/>
<path d="M1775.85 795.032H1260.92L1518.39 401.263L1775.85 795.032Z" fill="white" stroke="black"/>
<path d="M1402.87 433.787L1278.24 625.299H1527.51L1402.87 433.787Z" fill="#313335"/>
<path d="M1553.88 509.459L1550.31 511.786L1683.95 716.622L1687.52 714.296L1553.88 509.459Z" fill="#313335"/>
<path d="M1535.15 514.764L1399.13 716.883L1401.09 718.204L1537.11 516.085L1535.15 514.764Z" fill="#FFF735"/>
<path d="M1524.59 499.057L1388.57 701.176L1390.53 702.497L1526.56 500.378L1524.59 499.057Z" fill="#FFF735"/>
<path d="M1514.71 483.194L1378.71 685.338L1380.68 686.658L1516.67 484.514L1514.71 483.194Z" fill="#FFF735"/>
<path d="M1504.55 467.753L1368.55 669.896L1370.51 671.217L1506.51 469.073L1504.55 467.753Z" fill="#FFF735"/>
<path d="M1677.57 527.429L1864.1 242.655H1491.03L1677.57 527.429Z" fill="#FFF735"/>
<path d="M1745.98 145L1706.22 205.814H1785.75L1745.98 145Z" fill="#313335"/>
<path d="M1858.43 169.126L1623.04 532.219L1627.45 535.082L1862.85 171.989L1858.43 169.126Z" fill="#313335"/>
<path d="M2046.08 1139.53L1689.02 580.316L1968.36 175.53L2333.02 740.593L2046.08 1139.53Z" fill="#E9E9EB"/>
<path d="M1347.95 320.403H1260.92L1304.44 253.913L1347.95 320.403Z" fill="white" stroke="black"/>
<path d="M1260.31 293.546L1277.82 267H1243L1260.31 293.546Z" fill="#FFF735"/>
</svg>
