<svg width="470" height="460" viewBox="0 0 470 460" fill="none" xmlns="http://www.w3.org/2000/svg">
<mask id="mask0" mask-type="alpha" maskUnits="userSpaceOnUse" x="0" y="0" width="470" height="460">
<rect width="470" height="460" fill="#171717"/>
</mask>
<g mask="url(#mask0)">
<g opacity="0.3">
<path opacity="0.3" d="M541 537.563V470.443L527.983 448.738H527.315L432.856 469.442L541 537.563ZM538.997 470.777V533.556L438.196 470.443L526.981 450.741L538.997 470.777Z" fill="white"/>
</g>
<g opacity="0.3">
<path opacity="0.3" d="M166.834 171.242L289.998 1.60594L289.33 0.93808L137.795 -151H104.084L104.417 -149.664L166.834 171.242ZM287.328 1.60594L167.835 166.233L106.42 -148.996H136.794L287.328 1.60594Z" fill="white"/>
</g>
<g opacity="0.3">
<path opacity="0.3" d="M207.222 269.418L168.17 167.569L167.168 167.903L-132.565 246.377L207.222 269.418ZM166.834 169.907L204.218 267.08L-119.547 244.707L166.834 169.907Z" fill="white"/>
</g>
<g opacity="0.3">
<path opacity="0.3" d="M430.519 472.447L532.655 449.74L480.92 439.388L430.519 472.447ZM522.642 449.74L440.866 467.772L481.253 441.392L522.642 449.74Z" fill="white"/>
</g>
<g opacity="0.3">
<path opacity="0.3" d="M435.526 471.445L482.923 440.724L206.221 267.414L204.885 269.084L435.526 471.445ZM479.251 440.39L435.86 468.774L215.9 275.763L479.251 440.39Z" fill="white"/>
</g>
</g>
</svg>
