<svg width="810" height="473" viewBox="0 0 810 473" fill="none" xmlns="http://www.w3.org/2000/svg">
<mask id="mask0" mask-type="alpha" maskUnits="userSpaceOnUse" x="0" y="0" width="810" height="473">
<rect width="809.015" height="473" fill="white"/>
</mask>
<g mask="url(#mask0)">
<path d="M-13.9097 192.241L181.687 -106.365H-209.506L-13.9097 192.241Z" fill="#FFF735"/>
<path d="M882.609 681.628H342.58L612.595 268.665L882.609 681.628Z" fill="white" stroke="black"/>
<path d="M491.469 302.814L360.781 503.628H622.158L491.469 302.814Z" fill="#313335"/>
<path d="M649.806 382.161L646.067 384.6L786.197 599.386L789.936 596.946L649.806 382.161Z" fill="#313335"/>
<path d="M630.171 387.724L487.543 599.66L489.601 601.045L632.229 389.109L630.171 387.724Z" fill="#FFF735"/>
<path d="M619.101 371.254L476.473 583.19L478.531 584.575L621.159 372.638L619.101 371.254Z" fill="#FFF735"/>
<path d="M608.737 354.621L466.135 566.583L468.193 567.967L610.795 356.005L608.737 354.621Z" fill="#FFF735"/>
<path d="M598.079 338.429L455.477 550.391L457.535 551.776L600.137 339.814L598.079 338.429Z" fill="#FFF735"/>
<path d="M779.503 401.004L975.1 102.398H583.907L779.503 401.004Z" fill="#FFF735"/>
<path d="M969.158 25.2982L722.327 406.026L726.957 409.028L973.789 28.3002L969.158 25.2982Z" fill="#313335"/>
</g>
<path d="M178.216 421.657H108.455L143.336 368.355L178.216 421.657Z" fill="white" stroke="black"/>
<path d="M107.782 400.113L121.887 378.722H93.8315L107.782 400.113Z" fill="#FFF735"/>
</svg>
