<svg width="60" height="81" viewBox="0 0 60 81" fill="none" xmlns="http://www.w3.org/2000/svg">
<path d="M19.259 62.7314C19.259 62.7314 16.1605 64.5161 21.4641 65.12C27.8892 65.846 31.1731 65.7419 38.2536 64.4146C38.2536 64.4146 40.1152 65.5706 42.715 66.5719C26.8422 73.3096 6.79177 66.1817 19.259 62.7314Z" fill="white"/>
<path d="M17.3195 53.9392C17.3195 53.9392 13.8442 56.4871 19.1518 57.0308C26.0153 57.7321 31.4356 57.7894 40.8148 56.0007C40.8148 56.0007 42.1121 57.3033 44.152 58.0156C24.9609 63.5737 3.5854 58.454 17.3195 53.9392Z" fill="white"/>
<path d="M33.6708 39.0248C37.5818 43.4846 32.6432 47.4978 32.6432 47.4978C32.6432 47.4978 42.574 42.4203 38.0132 36.062C33.7536 30.1325 30.487 27.1864 48.1709 17.0286C48.1709 17.0286 20.4131 23.8948 33.6708 39.0248Z" fill="white"/>
<path d="M54.6638 69.2349C54.6638 69.2349 56.9568 71.1061 52.1386 72.5537C42.9766 75.3027 14.0055 76.1328 5.95742 72.6633C3.06435 71.4167 8.48968 69.6868 10.1963 69.3239C11.9761 68.9416 12.9932 69.0128 12.9932 69.0128C9.7758 66.768 -7.80269 73.4206 4.06419 75.3258C36.4269 80.5239 63.0583 72.9851 54.6638 69.2349Z" fill="white"/>
<path d="M20.7489 44.8295C20.7489 44.8295 6.01234 48.2962 15.5303 49.555C19.5491 50.088 27.5604 49.9674 35.0228 49.3481C41.1215 48.8386 47.2452 47.7553 47.2452 47.7553C47.2452 47.7553 45.0948 48.6674 43.539 49.7196C28.5743 53.6176 -0.334802 51.8042 7.98774 47.8169C15.0261 44.4472 20.7489 44.8295 20.7489 44.8295Z" fill="white"/>
<path d="M47.1846 59.4645C62.397 51.6352 55.3634 44.1113 50.454 45.125C49.2507 45.373 48.7142 45.588 48.7142 45.588C48.7142 45.588 49.1609 44.8949 50.0141 44.5949C59.7264 41.2131 67.1957 54.5692 46.8789 59.8591C46.8789 59.8593 47.1143 59.6508 47.1846 59.4645Z" fill="white"/>
<path d="M38.0132 0.626465C38.0132 0.626465 46.438 8.97348 30.0226 21.8088C16.8591 32.105 27.0209 37.9756 30.0171 44.683C22.3334 37.8167 16.6946 31.7723 20.4775 26.1467C26.03 17.8889 41.4124 13.8852 38.0132 0.626465Z" fill="white"/>
<path d="M22.244 80.6802C36.8459 81.606 59.2688 80.1666 59.7999 73.3235C59.7999 73.3235 58.7791 75.9177 47.7322 77.9778C35.2691 80.3008 19.8977 80.0296 10.7808 78.5408C10.781 78.5406 12.6471 80.0707 22.244 80.6802Z" fill="white"/>
</svg>
