<svg width="194" height="52" viewBox="0 0 194 52" fill="none" xmlns="http://www.w3.org/2000/svg">
<path d="M46.9468 52C46.7452 52.0004 46.547 51.9479 46.3714 51.8476C46.1959 51.7473 46.0492 51.6026 45.9456 51.4277L37.1421 36.5816L20.6779 41.1089C20.4271 41.1701 20.1633 41.1453 19.9279 41.0385C19.6925 40.9316 19.4989 40.7487 19.3775 40.5186L0.137004 3.95184C0.0486422 3.78435 0.00165285 3.59774 4.28179e-05 3.40793C-0.00156721 3.21811 0.0422499 3.03072 0.127758 2.86172C0.213265 2.69273 0.337927 2.54715 0.491113 2.4374C0.644299 2.32765 0.821464 2.25699 1.0075 2.23143L17.3428 0.0112046C17.5685 -0.020505 17.7984 0.0154405 18.0041 0.114588C18.2097 0.213735 18.3821 0.371725 18.4998 0.568977L38.2025 33.8434L61.1184 27.5413L53.4774 16.6303C53.3672 16.4752 53.2959 16.2953 53.2698 16.1062C53.2437 15.9171 53.2635 15.7243 53.3275 15.5447C53.3915 15.365 53.4978 15.2037 53.6372 15.0749C53.7765 14.946 53.9448 14.8533 54.1275 14.8049L64.8476 12.2424C65.0618 12.1908 65.286 12.2018 65.4943 12.2739C65.7026 12.346 65.8864 12.4764 66.0244 12.6498L75.3025 24.3631C75.4234 24.5155 75.5049 24.696 75.5396 24.8883C75.5742 25.0805 75.5611 25.2785 75.5012 25.4642C75.4413 25.65 75.3366 25.8178 75.1965 25.9525C75.0564 26.0872 74.8854 26.1845 74.6989 26.2356L64.955 28.923L73.4863 41.0564C73.5908 41.2053 73.6596 41.3767 73.6873 41.557C73.7151 41.7374 73.7009 41.9218 73.646 42.0957C73.5911 42.2696 73.497 42.4282 73.371 42.559C73.2451 42.6898 73.0907 42.7892 72.9203 42.8493L47.3158 51.9276C47.1969 51.972 47.0717 51.9964 46.9451 52H46.9468ZM39.4742 35.9369L47.4537 49.3922L70.7082 41.1615L62.5871 29.5859L39.4742 35.9369ZM2.97955 4.32308L20.986 38.5863L35.9295 34.4863L16.8986 2.44693L2.97955 4.32308ZM56.4148 16.6991L63.5794 26.8875L72.4671 24.4428L64.7347 14.7071L56.4148 16.6991ZM87.5575 13.1424H89.886V38.3871H87.5665L87.5575 13.1424ZM112.634 20.1743V38.3871H110.346V35.236C109.46 36.3588 108.344 37.2788 107.076 37.9307C105.35 38.7648 103.409 39.0301 101.526 38.6893C99.6431 38.3485 97.9136 37.4187 96.5813 36.031C95.7003 35.1363 95.0065 34.0713 94.5415 32.8995C94.0765 31.7278 93.8498 30.4733 93.8749 29.211C93.8559 27.9608 94.0883 26.7197 94.5578 25.5629C95.0273 24.4061 95.7243 23.3578 96.6064 22.4815C97.4543 21.5808 98.4776 20.8674 99.6117 20.3865C100.746 19.9056 101.966 19.6675 103.196 19.6872C104.593 19.6691 105.972 19.9951 107.212 20.6416C108.47 21.3322 109.551 22.3123 110.366 23.5029V20.1707L112.634 20.1743ZM103.373 21.9853C102.113 21.977 100.874 22.3126 99.7869 22.9567C98.6997 23.6009 97.8045 24.5297 97.1957 25.6452C95.9007 27.9234 95.9007 30.7249 97.1957 33.0031C97.81 34.135 98.7146 35.0785 99.8143 35.734C100.881 36.3778 102.101 36.7159 103.343 36.7119C104.607 36.7123 105.85 36.3776 106.947 35.7413C108.045 35.131 108.953 34.2201 109.565 33.1154C110.19 31.9684 110.507 30.676 110.484 29.3667C110.511 28.391 110.342 27.42 109.988 26.5119C109.634 25.6038 109.102 24.7774 108.424 24.0824C107.771 23.3989 106.985 22.8593 106.115 22.4975C105.246 22.1357 104.312 21.9595 103.372 21.9799L103.373 21.9853ZM116.972 20.1743H119.34V22.8364C119.932 21.9174 120.692 21.1204 121.579 20.4876C122.301 19.9878 123.154 19.7167 124.029 19.7089C124.757 19.7331 125.466 19.947 126.089 20.3301L124.874 22.3221C124.482 22.132 124.055 22.0242 123.62 22.0052C122.782 22.0312 121.984 22.3743 121.383 22.9668C120.563 23.7825 119.991 24.8189 119.735 25.9531C119.461 26.9914 119.324 29.0884 119.324 32.2443V38.407H116.956L116.972 20.1743ZM145.988 20.1743V38.3871H143.703V35.236C142.816 36.3588 141.7 37.2788 140.432 37.9307C138.706 38.7648 136.765 39.0301 134.882 38.6893C133 38.3485 131.27 37.4187 129.938 36.031C129.057 35.1363 128.363 34.0713 127.898 32.8995C127.433 31.7278 127.206 30.4733 127.231 29.211C127.196 26.6847 128.181 24.249 129.966 22.4815C130.814 21.5808 131.838 20.8674 132.972 20.3865C134.106 19.9056 135.326 19.6675 136.556 19.6872C137.953 19.6691 139.332 19.9951 140.572 20.6416C141.831 21.3322 142.911 22.3123 143.726 23.5029V20.1707L145.988 20.1743ZM136.728 21.9853C135.468 21.977 134.229 22.3126 133.142 22.9567C132.054 23.6009 131.159 24.5297 130.55 25.6452C129.255 27.9234 129.255 30.7249 130.55 33.0031C131.165 34.135 132.069 35.0785 133.169 35.734C134.236 36.3778 135.455 36.7159 136.698 36.7119C137.962 36.7123 139.205 36.3776 140.301 35.7413C141.399 35.131 142.308 34.2201 142.92 33.1154C143.545 31.9684 143.862 30.676 143.839 29.3667C143.868 28.3881 143.701 27.4137 143.347 26.5024C142.993 25.591 142.461 24.7616 141.781 24.0643C141.128 23.3812 140.342 22.8419 139.473 22.4801C138.604 22.1183 137.671 21.9419 136.732 21.9617L136.728 21.9853ZM149.504 20.1743H151.976L158.023 33.4486L164.005 20.1743H166.477L158.238 38.3889H157.826L149.504 20.1743ZM185.161 32.3439L187.131 33.3816C186.579 34.5344 185.827 35.5782 184.912 36.4638C184.088 37.2349 183.126 37.8397 182.078 38.2458C180.938 38.6694 179.73 38.8769 178.516 38.8579C175.578 38.8579 173.279 37.8921 171.62 35.9604C170.017 34.1433 169.136 31.7906 169.148 29.3559C169.125 27.1139 169.868 24.9317 171.252 23.1986C172.083 22.0876 173.165 21.1945 174.407 20.5945C175.65 19.9944 177.017 19.705 178.394 19.7506C179.81 19.7036 181.216 19.9996 182.496 20.6139C183.775 21.2282 184.891 22.143 185.75 23.2819C187.054 24.948 187.711 27.0306 187.72 29.5297H171.501C171.475 31.462 172.195 33.3273 173.507 34.7308C174.121 35.3887 174.864 35.9092 175.689 36.2586C176.514 36.6079 177.403 36.7784 178.297 36.759C179.211 36.7598 180.118 36.596 180.975 36.2755C181.782 35.9856 182.531 35.5513 183.187 34.9934C183.971 34.2284 184.636 33.348 185.159 32.382L185.161 32.3439ZM185.161 27.4544C184.928 26.3703 184.467 25.3495 183.81 24.4609C183.179 23.6822 182.377 23.0633 181.467 22.6535C180.513 22.2008 179.47 21.9654 178.415 21.9654C176.734 21.9311 175.103 22.5478 173.857 23.6894C172.929 24.5345 172.227 25.7841 171.752 27.4381L185.161 27.4544ZM191.68 13.1623H194V38.407H191.68V13.1623Z" fill="white"/>
</svg>
