<svg width="225" height="65" viewBox="0 0 225 65" fill="none" xmlns="http://www.w3.org/2000/svg">
<g clip-path="url(#clip0)">
<path fill-rule="evenodd" clip-rule="evenodd" d="M209.493 26.9194C209.291 26.9604 209.088 27.4122 209.088 27.6584C209.047 29.3018 209.007 33.6561 209.007 36.6136C209.007 36.696 209.128 36.8602 209.25 36.8602C209.858 36.9012 211.318 36.9421 212.575 36.9421C214.319 36.9421 215.333 36.696 215.901 36.4498C217.36 35.71 218.05 34.1079 218.05 32.3412C218.05 28.3572 215.292 26.8371 211.196 26.8371C210.912 26.7961 210.102 26.7961 209.493 26.9194ZM219.956 45.2813C219.956 41.2146 216.996 38.955 211.643 38.955C211.399 38.955 209.696 38.9141 209.29 38.996C209.168 39.0374 209.007 39.1197 209.007 39.2431C209.007 42.1591 208.966 46.8015 209.088 48.6087C209.168 49.3891 209.737 50.4983 210.426 50.8269C211.156 51.2377 212.819 51.3196 213.954 51.3196C217.158 51.3196 219.956 49.5124 219.956 45.2813ZM201.22 24.6604C201.626 24.6604 202.842 24.7832 205.965 24.7832C208.925 24.7832 211.277 24.7013 214.157 24.7013C217.685 24.7013 222.551 25.9744 222.551 31.3147C222.551 33.9437 220.726 36.039 218.334 37.0659C218.212 37.1068 218.212 37.1887 218.334 37.2297C221.74 38.0928 224.741 40.2286 224.741 44.254C224.741 48.1979 222.308 50.7036 218.78 52.2646C216.63 53.2092 213.954 53.5377 211.237 53.5377C209.168 53.5377 203.613 53.2916 200.531 53.3739C200.207 53.2502 200.815 51.7714 201.098 51.5253C201.829 51.4839 202.396 51.4429 203.167 51.1963C204.262 50.9092 204.383 50.5802 204.545 48.8963C204.627 47.4585 204.627 42.3644 204.627 38.7498C204.627 33.7794 204.668 30.4111 204.627 28.7681C204.586 27.495 204.14 27.0837 203.248 26.8371C202.558 26.7142 201.423 26.5495 200.49 26.4267C200.287 26.221 200.977 24.8242 201.22 24.6604ZM177.821 50.2108C178.794 50.9907 180.7 51.3192 182.404 51.3192C184.593 51.3192 186.783 50.9092 188.892 48.9778C191.041 47.0067 192.542 43.9668 192.542 39.1197C192.542 34.4774 190.798 30.6982 187.229 28.4805C185.202 27.2065 182.606 26.6733 179.605 26.6733C178.713 26.6733 177.861 26.7142 177.334 26.9604C177.212 27.0427 176.929 27.4122 176.929 27.6174C176.848 28.4391 176.848 34.765 176.848 38.4623C176.848 42.2824 176.848 47.6228 176.929 48.2388C176.929 48.8553 177.212 49.7999 177.821 50.2108H177.821ZM168.615 24.6599C169.386 24.6599 172.346 24.7832 173.765 24.7832C176.321 24.7832 178.145 24.6604 182.971 24.6604C187.026 24.6604 190.433 25.7692 192.866 27.864C195.826 30.452 197.368 34.026 197.368 38.3799C197.368 44.5829 194.569 48.1569 191.771 50.2108C188.973 52.3056 185.323 53.5377 180.132 53.5377C177.375 53.5377 172.63 53.4558 168.696 53.4144H168.656C168.453 53.045 168.98 51.6072 169.304 51.5662C170.359 51.4429 170.643 51.4015 171.17 51.1968C172.022 50.8678 172.184 50.416 172.306 48.8963C172.427 46.0617 172.387 42.6524 172.387 38.7908C172.387 36.039 172.427 30.6572 172.346 28.9319C172.225 27.4945 171.616 27.1246 170.399 26.878C169.791 26.7552 168.98 26.5905 167.845 26.4676C167.682 26.1796 168.412 24.9065 168.615 24.6604V24.6599Z" fill="white"/>
<path fill-rule="evenodd" clip-rule="evenodd" d="M119.546 51.8125C118.532 51.6892 117.802 51.5254 116.91 51.1146C116.788 51.0322 116.585 50.6218 116.585 50.4571C116.504 49.0193 116.504 44.9116 116.504 42.1597C116.504 39.9412 116.139 38.0106 115.206 36.6552C114.111 35.0936 112.53 34.1904 110.502 34.1904C108.718 34.1904 106.325 35.4226 104.338 37.1479C104.297 37.1889 103.973 37.4769 104.014 37.0246C104.014 36.5728 104.095 35.6692 104.135 35.0527C104.176 34.4775 103.851 34.1904 103.851 34.1904C102.554 34.8475 98.904 35.7101 97.5654 35.833C96.5925 36.0391 96.349 36.9837 97.3633 37.3122H97.4037C98.4979 37.6407 99.2283 38.0106 99.7957 38.3805C100.201 38.709 100.161 39.1608 100.161 39.5307C100.201 42.6111 100.201 47.3353 100.08 49.9234C100.04 50.9503 99.7557 51.3198 99.0253 51.484L99.1066 51.4431C98.5388 51.5664 98.0928 51.6892 97.4033 51.7716C97.1598 52.0182 97.1598 53.3327 97.4033 53.6202C97.8493 53.6202 100.201 53.4969 102.148 53.4969C104.825 53.4969 106.204 53.6202 106.893 53.6202C107.177 53.2917 107.258 52.0591 107.096 51.7716C106.325 51.7306 105.757 51.6487 105.23 51.484C104.5 51.3193 104.297 50.9503 104.257 50.0876C104.176 47.91 104.176 43.3095 104.176 40.1878C104.176 39.3251 104.419 38.9142 104.662 38.6676C105.595 37.8463 107.096 37.2712 108.434 37.2712C109.732 37.2712 110.583 37.6821 111.232 38.2163C112.124 38.9552 112.408 40.0235 112.53 40.8038C112.732 42.5701 112.651 46.0618 112.651 49.1016C112.651 50.7446 112.53 51.1555 111.922 51.3607C111.638 51.484 110.908 51.6487 110.056 51.7302C109.772 52.0182 109.853 53.2917 110.056 53.5793C111.232 53.5793 112.611 53.456 114.639 53.456C117.153 53.456 118.775 53.5793 119.424 53.5793C119.626 53.3327 119.708 52.1415 119.546 51.8125ZM130.779 36.1214C128.63 36.1214 127.291 37.8054 127.291 40.4339C127.291 43.1043 128.467 46.1851 131.793 46.1851C132.36 46.1851 133.415 45.9385 133.901 45.3634C134.672 44.6245 135.199 43.1453 135.199 41.5842C135.199 38.1749 133.536 36.121 130.779 36.121V36.1214ZM130.495 54.2773C129.684 54.2773 129.116 54.5239 128.751 54.7295C127.048 55.8379 126.278 56.9062 126.278 58.1802C126.278 59.371 126.724 60.3155 127.697 61.1373C128.873 62.1642 130.495 62.6574 132.563 62.6574C136.7 62.6574 138.525 60.3979 138.525 58.1802C138.525 56.6187 137.754 55.5917 136.173 55.0171C135.037 54.5239 132.969 54.2773 130.495 54.2773ZM130.779 64.9579C128.305 64.9579 126.521 64.4237 124.98 63.2325C123.479 62.0823 122.83 60.3569 122.83 59.1658C122.83 58.8372 122.912 57.9332 123.642 57.1119C124.087 56.6187 125.061 55.6741 127.373 54.072C127.454 54.0311 127.494 53.9901 127.494 53.9073C127.494 53.8254 127.413 53.7431 127.332 53.7026C125.426 52.9632 124.858 51.7716 124.696 51.1146V51.0322C124.656 50.7856 124.574 50.5394 124.939 50.2928C125.223 50.0876 125.629 49.841 126.075 49.5539C126.764 49.1426 127.494 48.6908 127.94 48.3209C128.021 48.239 128.021 48.1571 128.021 48.0747C128.021 47.9924 127.94 47.91 127.859 47.8695C125.021 46.9245 123.601 44.7883 123.601 41.5842C123.601 39.4893 124.534 37.5997 126.196 36.4086C127.332 35.5049 130.171 34.3956 132.036 34.3956H132.158C134.064 34.4366 135.118 34.8475 136.618 35.3816C137.43 35.6692 138.2 35.792 139.255 35.792C140.836 35.792 141.526 35.2993 142.093 34.7246C142.134 34.8065 142.215 35.0122 142.256 35.5459C142.296 36.08 142.134 36.8604 141.728 37.4355C141.404 37.8873 140.674 38.2163 139.944 38.2163H139.741C139.011 38.1339 138.686 38.0516 138.686 38.0516L138.525 38.1339C138.484 38.2163 138.525 38.2982 138.565 38.4215L138.606 38.5038C138.687 38.8733 138.849 39.9821 138.849 40.2701C138.849 43.6385 137.511 45.1168 136.091 46.2261C134.712 47.253 133.131 47.91 131.347 48.0747C131.306 48.0747 131.144 48.0747 130.779 48.1157C130.576 48.1157 130.292 48.1571 130.252 48.1571H130.211C129.887 48.239 129.076 48.6498 129.076 49.3478C129.076 49.9639 129.441 50.7037 131.184 50.827C131.549 50.8679 131.914 50.8679 132.32 50.9093C134.632 51.0732 137.511 51.2788 138.849 51.7306C140.714 52.4286 141.89 54.113 141.89 56.1259C141.89 59.1662 139.742 62.0004 136.173 63.7662C134.429 64.547 132.685 64.9579 130.779 64.9579ZM153.894 36.3266C153.043 36.3266 152.272 36.5314 151.704 36.9423C150.123 37.9282 149.312 39.9002 149.312 42.7754C149.312 48.1571 151.988 51.9363 155.8 51.9363C156.936 51.9363 157.828 51.6073 158.598 50.9503C159.774 49.9639 160.383 47.9924 160.383 45.2401C160.383 39.9002 157.747 36.3262 153.895 36.3262L153.894 36.3266ZM154.624 53.9078C147.73 53.9078 145.257 48.7731 145.257 43.967C145.257 40.5986 146.595 38.0106 149.271 36.1619C151.177 34.9708 153.448 34.3137 155.476 34.3137C160.748 34.3137 164.438 38.1339 164.438 43.6385C164.438 47.3763 162.978 50.3338 160.18 52.1415C158.842 53.0451 156.53 53.9078 154.624 53.9078H154.624ZM82.3581 36.3262C81.5065 36.3262 80.7361 36.5314 80.1679 36.9423C78.5868 37.9282 77.7755 39.9002 77.7755 42.7754C77.7755 48.1571 80.4518 51.9363 84.2641 51.9363C85.3996 51.9363 86.2917 51.6073 87.0625 50.9503C88.238 49.9639 88.8467 47.9924 88.8467 45.2401C88.8467 39.9002 86.2513 36.3262 82.3581 36.3262ZM83.0881 53.9078C76.1939 53.9078 73.7203 48.7731 73.7203 43.967C73.7203 40.5986 75.0584 38.0106 77.7347 36.1619C79.641 34.9708 81.9121 34.3137 83.9397 34.3137C89.2119 34.3137 92.902 38.1339 92.902 43.6385C92.902 47.3763 91.4421 50.3338 88.6436 52.1415C87.3459 53.0451 85.0344 53.9078 83.0881 53.9078ZM36.7354 53.4969C36.6541 53.3741 36.5728 53.0042 36.6137 52.5523C36.6137 52.2234 36.695 52.0182 36.7354 51.9363C37.5871 51.8125 38.0331 51.6892 38.5196 51.5664C39.3308 51.3607 39.6552 50.9093 39.6956 49.8824C39.8178 47.4177 39.8178 42.7344 39.7769 39.4893V39.407C39.7769 39.0375 39.7769 38.5853 39.3308 38.2568C38.6818 37.8463 37.9114 37.4769 36.8976 37.1884C36.5328 37.066 36.2894 36.8604 36.3298 36.6142C36.3298 36.3676 36.5733 36.08 37.1006 35.9977C38.4388 35.8744 41.9258 35.0122 43.3048 34.3956C43.3861 34.4775 43.5078 34.7246 43.5078 35.0531L43.4674 35.5045C43.4265 35.9567 43.3861 36.4909 43.3861 37.0246C43.3861 37.1889 43.5487 37.3122 43.7104 37.3122C43.7917 37.3122 43.873 37.2712 43.9539 37.2298C46.5493 35.176 48.9013 34.4366 50.1177 34.4366C52.1053 34.4366 53.6465 35.3816 54.8224 37.3531C54.9033 37.4769 54.9846 37.5178 55.1063 37.5178C55.1872 37.5178 55.3085 37.4769 55.3494 37.3945C57.7422 35.5459 60.135 34.4366 61.7161 34.4366C65.4875 34.4366 67.7182 37.2712 67.7182 42.0774C67.7182 43.4328 67.7182 45.1991 67.6778 46.8016C67.6778 48.239 67.6373 49.5535 67.6373 50.4985C67.6373 50.7032 67.9208 51.3607 68.3668 51.484C68.9346 51.7716 69.7054 51.8949 70.7192 52.0591H70.7597C70.841 52.3467 70.6788 53.4146 70.5166 53.6202C70.2732 53.6202 69.908 53.6202 69.5028 53.5793C68.4762 53.525 67.4485 53.4976 66.4205 53.4969C63.9064 53.4969 62.6087 53.5379 61.351 53.6202C61.2705 53.2917 61.2297 52.3057 61.351 52.0591C62.0813 51.9363 62.4461 51.8125 62.8926 51.6897C63.7038 51.4431 63.9064 51.0732 63.9473 50.0053C63.9473 49.2249 64.109 42.5701 63.8655 40.9681C63.6225 39.3251 62.4057 37.3945 59.7289 37.3945C58.7151 37.3945 57.134 37.8054 55.5928 38.9961C55.5119 39.0785 55.4302 39.2837 55.4302 39.407V39.4484C55.5928 40.3106 55.5928 41.2971 55.5928 42.8167V45.4867C55.5928 47.3353 55.5519 49.0607 55.5928 50.3747C55.5928 51.2788 56.1202 51.484 56.5662 51.6487C56.8097 51.6892 56.9714 51.7306 57.1744 51.7716C57.5392 51.8539 57.9043 51.9363 58.4721 52.0591C58.5534 52.2238 58.5534 52.7576 58.4317 53.2094C58.3908 53.456 58.3095 53.5788 58.2691 53.6202C56.8905 53.5793 55.4711 53.5379 53.403 53.5379C52.7948 53.5379 51.7401 53.5793 50.848 53.5793C50.1177 53.5793 49.4286 53.6202 49.0234 53.6202C48.9826 53.5379 48.9013 53.2508 48.9013 52.7985C48.9013 52.429 48.9826 52.1415 49.0639 52.0591C49.2664 52.0182 49.4286 51.9772 49.6316 51.9772C50.1177 51.8949 50.5237 51.8125 50.9289 51.7306C51.6188 51.5254 51.8619 51.1555 51.9023 50.2519C52.024 48.198 52.1457 42.324 51.8619 40.8448C51.3754 38.4624 50.0372 37.2712 47.8874 37.2712C46.6306 37.2712 45.0486 37.8873 43.7513 38.8737C43.5483 39.0375 43.3861 39.4479 43.3861 39.8179V42.2416C43.3861 45.1991 43.3861 48.8964 43.4265 50.4985C43.4674 50.9908 43.6291 51.5664 44.5621 51.7716C44.7651 51.8125 45.0894 51.8949 45.4951 51.9363L46.2245 52.0591C46.3063 52.3057 46.2654 53.2917 46.1033 53.6202C45.6976 53.6202 45.2112 53.5793 44.643 53.5793C43.7917 53.5379 42.6966 53.4969 41.4802 53.4969C40.0608 53.4969 39.047 53.5379 38.2357 53.5793C37.668 53.4969 37.2219 53.4969 36.7354 53.4969Z" fill="white"/>
<path fill-rule="evenodd" clip-rule="evenodd" d="M15.404 63.3557L13.7416 62.7802C13.7416 62.7802 13.9446 54.1953 10.9027 53.5792C8.87549 51.1964 11.2279 -47.4727 18.5272 53.2502C18.5272 53.2502 16.0126 54.5233 15.5666 56.7009C15.0797 58.8372 15.404 63.3557 15.404 63.3557Z" fill="white"/>
<path fill-rule="evenodd" clip-rule="evenodd" d="M15.404 63.3557L13.7416 62.7802C13.7416 62.7802 13.9446 54.1953 10.9027 53.5792C8.87549 51.1964 11.2279 -47.4727 18.5272 53.2502C18.5272 53.2502 16.0126 54.5233 15.5666 56.7009C15.0797 58.8372 15.404 63.3557 15.404 63.3557Z" fill="white"/>
<path fill-rule="evenodd" clip-rule="evenodd" d="M16.2964 55.058C16.2964 55.058 30.8555 45.3633 27.4484 25.1937C24.164 10.5296 16.4182 5.72342 15.5665 3.87477C14.634 2.56028 13.7415 0.260254 13.7415 0.260254L14.3501 41.05C14.3501 41.0914 13.0928 53.5378 16.2969 55.0584" fill="white"/>
<path fill-rule="evenodd" clip-rule="evenodd" d="M16.2964 55.058C16.2964 55.058 30.8555 45.3633 27.4484 25.1937C24.164 10.5296 16.4182 5.72342 15.5665 3.87477C14.634 2.56028 13.7415 0.260254 13.7415 0.260254L14.3501 41.05C14.3501 41.0914 13.0928 53.5378 16.2969 55.0584" fill="white"/>
<path fill-rule="evenodd" clip-rule="evenodd" d="M12.8903 55.5916C12.8903 55.5916 -0.776738 46.1436 0.0344921 29.5075C0.804853 12.8709 10.4566 4.6964 12.322 3.21765C13.5389 1.90316 13.5793 1.40995 13.6606 0.095459C14.5123 1.94411 14.3501 27.7412 14.4714 30.7805C14.8362 42.4877 13.8228 53.3739 12.8903 55.5916Z" fill="white"/>
<path fill-rule="evenodd" clip-rule="evenodd" d="M12.8903 55.5916C12.8903 55.5916 -0.776738 46.1436 0.0344921 29.5075C0.804853 12.8709 10.4566 4.6964 12.322 3.21765C13.5389 1.90316 13.5793 1.40995 13.6606 0.095459C14.5123 1.94411 14.3501 27.7412 14.4714 30.7805C14.8362 42.4877 13.8228 53.3739 12.8903 55.5916Z" fill="white"/>
</g>
<defs>
<clipPath id="clip0">
<rect width="225" height="65" fill="white"/>
</clipPath>
</defs>
</svg>
