<svg width="95" height="58" viewBox="0 0 95 58" fill="none" xmlns="http://www.w3.org/2000/svg">
<g clip-path="url(#clip0)">
<path d="M46.9638 57.8326C46.6423 57.8326 46.3421 57.7472 46.0632 57.5978L43.2116 55.9114C42.7827 55.6764 42.9971 55.5911 43.1259 55.5484C43.7047 55.3563 43.8119 55.3134 44.4123 54.9721C44.4767 54.9292 44.5626 54.9507 44.6267 54.9933L46.8139 56.2956C46.8996 56.3382 47.0068 56.3382 47.071 56.2956L55.6264 51.3641C55.7121 51.3214 55.7551 51.2359 55.7551 51.1293V41.2878C55.7551 41.1808 55.7121 41.0957 55.6264 41.0528L47.071 36.1428C46.9853 36.0999 46.8781 36.0999 46.8139 36.1428L38.2585 41.0528C38.1728 41.0955 38.1298 41.2023 38.1298 41.2876V51.1291C38.1298 51.2147 38.1728 51.3212 38.2585 51.3641L40.5957 52.709C41.8608 53.3494 42.6541 52.6022 42.6541 51.8551V42.1415C42.6541 42.0135 42.7613 41.8853 42.9114 41.8853H44.0049C44.1336 41.8853 44.2622 41.9921 44.2622 42.1415V51.8551C44.2622 53.5415 43.3402 54.5236 41.732 54.5236C41.2389 54.5236 40.853 54.5236 39.7594 53.9898L37.5081 52.709C36.9506 52.3889 36.6075 51.791 36.6075 51.1506V41.309C36.6075 40.6686 36.9506 40.0707 37.5081 39.7506L46.0632 34.8191C46.5994 34.5203 47.3285 34.5203 47.8645 34.8191L56.4197 39.7506C56.9772 40.0707 57.3204 40.6686 57.3204 41.309V51.1506C57.3204 51.791 56.9772 52.3889 56.4197 52.709L47.8645 57.6405C47.5856 57.7686 47.2641 57.8326 46.964 57.8326H46.9638ZM49.6012 51.0652C45.849 51.0652 45.077 49.3574 45.077 47.9057C45.077 47.7775 45.1842 47.6495 45.3343 47.6495H46.4493C46.5779 47.6495 46.6851 47.7348 46.6851 47.863C46.8567 48.9944 47.3498 49.5495 49.6227 49.5495C51.4237 49.5495 52.1959 49.1438 52.1959 48.1831C52.1959 47.6281 51.9812 47.2226 49.1724 46.945C46.8352 46.71 45.3772 46.1978 45.3772 44.3405C45.3772 42.6113 46.8354 41.5865 49.2796 41.5865C52.0241 41.5865 53.3751 42.5259 53.5467 44.5751C53.5467 44.6394 53.5251 44.7033 53.4823 44.7674C53.4392 44.8101 53.3751 44.8528 53.3107 44.8528H52.1957C52.0885 44.8528 51.9812 44.7674 51.9599 44.6606C51.7026 43.4866 51.0378 43.1022 49.2796 43.1022C47.307 43.1022 47.071 43.7855 47.071 44.2977C47.071 44.9168 47.3498 45.1089 50.0086 45.4505C52.646 45.7922 53.8897 46.2832 53.8897 48.119C53.8682 49.9978 52.3244 51.0652 49.6012 51.0652Z" fill="white"/>
<path d="M20.4194 19.3418C20.4194 18.9575 20.2049 18.5944 19.8619 18.4023L10.7705 13.1934C10.6202 13.1079 10.4488 13.0652 10.2774 13.0438H10.1915C10.0201 13.0438 9.84848 13.1079 9.69839 13.1934L0.607055 18.4023C0.263839 18.5944 0.0495605 18.9574 0.0495605 19.3418L0.0710811 33.3462C0.0710811 33.5383 0.178313 33.7304 0.349736 33.8159C0.521344 33.9227 0.735622 33.9227 0.885895 33.8159L6.28923 30.7417C6.63226 30.5496 6.84673 30.1866 6.84673 29.8024V23.2484C6.84673 22.8642 7.061 22.5013 7.40422 22.3092L9.69839 20.9855C9.87 20.8787 10.0629 20.8359 10.2559 20.8359C10.4488 20.8359 10.6418 20.8787 10.792 20.9855L13.0862 22.3092C13.4294 22.5013 13.6437 22.864 13.6437 23.2484V29.8024C13.6437 30.1866 13.8582 30.5496 14.2012 30.7417L19.6045 33.8159C19.7761 33.9227 19.9904 33.9227 20.162 33.8159C20.3336 33.7304 20.4409 33.5383 20.4409 33.3462L20.4194 19.3418ZM64.1178 0.0641417C63.9464 -0.0213806 63.7319 -0.0213806 63.5817 0.0641417C63.4102 0.170906 63.303 0.341581 63.303 0.533683V14.4103C63.303 14.5383 63.2388 14.6663 63.1101 14.7518C62.9815 14.8157 62.8528 14.8157 62.7242 14.7518L60.4514 13.4496C60.2847 13.3551 60.0963 13.3054 59.9045 13.3054C59.7128 13.3054 59.5243 13.3551 59.3577 13.4496L50.2664 18.6799C49.9233 18.872 49.7089 19.235 49.7089 19.6192V30.0584C49.7089 30.4427 49.9233 30.8058 50.2664 30.9979L59.3577 36.2282C59.5243 36.3227 59.7128 36.3724 59.9045 36.3724C60.0963 36.3724 60.2847 36.3227 60.4514 36.2282L69.5427 30.9979C69.8857 30.8058 70.1002 30.4428 70.1002 30.0584V4.03492C70.1002 3.62929 69.8857 3.26652 69.5427 3.07423L64.118 0.0641417H64.1178ZM63.2817 26.6215C63.2817 26.7283 63.2388 26.8136 63.1529 26.8563L60.0439 28.6495C60.0005 28.6705 59.9528 28.6815 59.9045 28.6815C59.8562 28.6815 59.8085 28.6705 59.7651 28.6495L56.6561 26.8563C56.5702 26.8136 56.5274 26.7068 56.5274 26.6215V23.0349C56.5274 22.9281 56.5702 22.8428 56.6561 22.8001L59.7651 21.0068C59.8085 20.9857 59.8562 20.9747 59.9045 20.9747C59.9528 20.9747 60.0005 20.9857 60.0439 21.0068L63.1529 22.8001C63.2388 22.8426 63.2817 22.9496 63.2817 23.0349V26.6215ZM94.3723 22.9496C94.7155 22.7575 94.9084 22.3945 94.9084 22.0101V19.4698C94.9084 19.0856 94.6939 18.7226 94.3723 18.5305L85.3453 13.3216C85.1787 13.2271 84.9903 13.1775 84.7986 13.1775C84.6068 13.1775 84.4184 13.2271 84.2518 13.3216L75.1605 18.5517C74.8173 18.7438 74.603 19.1068 74.603 19.4912V29.9304C74.603 30.3146 74.8173 30.6776 75.1605 30.8697L84.1874 35.9933C84.5307 36.1854 84.9379 36.1854 85.2596 35.9933L90.7271 32.9621C90.8987 32.8766 91.0059 32.6845 91.0059 32.4924C91.0059 32.3003 90.8987 32.1082 90.7271 32.0227L81.5929 26.7923C81.4215 26.6858 81.3143 26.5149 81.3143 26.3228V23.0565C81.3143 22.8644 81.4215 22.6723 81.5929 22.5868L84.4448 20.9643C84.5282 20.912 84.6249 20.8842 84.7235 20.8842C84.8222 20.8842 84.9188 20.912 85.0023 20.9643L87.8539 22.5868C88.0255 22.6936 88.1328 22.8642 88.1328 23.0565V25.6183C88.1328 25.8104 88.24 26.0025 88.4114 26.0878C88.583 26.1946 88.7973 26.1946 88.9689 26.0878L94.3723 22.9496Z" fill="white"/>
<path d="M84.6588 22.4587C84.6906 22.4379 84.7279 22.4268 84.7659 22.4268C84.804 22.4268 84.8413 22.4379 84.8731 22.4587L86.61 23.4621C86.6743 23.5046 86.7172 23.5687 86.7172 23.6542V25.6609C86.7172 25.7463 86.6743 25.8103 86.61 25.853L84.8731 26.8564C84.8413 26.8772 84.804 26.8883 84.7659 26.8883C84.7279 26.8883 84.6906 26.8772 84.6588 26.8564L82.9219 25.853C82.8576 25.8103 82.8147 25.7463 82.8147 25.6609V23.6542C82.8147 23.5687 82.8576 23.5046 82.9219 23.4621L84.6588 22.4587Z" fill="white"/>
<mask id="mask0" mask-type="alpha" maskUnits="userSpaceOnUse" x="24" y="13" width="22" height="24">
<path d="M35.6212 13.3643C35.4546 13.2699 35.2662 13.2202 35.0744 13.2202C34.8827 13.2202 34.6943 13.2699 34.5277 13.3643L25.5008 18.5516C25.1575 18.7437 24.9646 19.1067 24.9646 19.4909V29.8876C24.9646 30.2718 25.1791 30.6348 25.5008 30.8269L34.5277 36.0146C34.6943 36.109 34.8827 36.1587 35.0744 36.1587C35.2662 36.1587 35.4546 36.109 35.6212 36.0146L44.6483 30.8269C44.9913 30.6348 45.1845 30.2718 45.1845 29.8876V19.4911C45.1845 19.1068 44.9698 18.7439 44.6483 18.5518L35.6212 13.3643Z" fill="white"/>
</mask>
<g mask="url(#mask0)">
<path d="M35.6212 13.3643C35.4546 13.2699 35.2662 13.2202 35.0744 13.2202C34.8827 13.2202 34.6943 13.2699 34.5277 13.3643L25.5008 18.5516C25.1575 18.7437 24.9646 19.1067 24.9646 19.4909V29.8876C24.9646 30.2718 25.1791 30.6348 25.5008 30.8269L34.5277 36.0146C34.6943 36.109 34.8827 36.1587 35.0744 36.1587C35.2662 36.1587 35.4546 36.109 35.6212 36.0146L44.6483 30.8269C44.9913 30.6348 45.1845 30.2718 45.1845 29.8876V19.4911C45.1845 19.1068 44.9698 18.7439 44.6483 18.5518L35.6212 13.3643Z" fill="white"/>
<path d="M44.6696 18.5516L35.5998 13.3641C35.5107 13.3193 35.4172 13.2835 35.3209 13.2573L25.1575 30.5923C25.2417 30.6946 25.3433 30.7814 25.4578 30.8485L34.5276 36.0362C34.785 36.1856 35.0851 36.2283 35.3638 36.1428L44.9056 18.7653C44.8412 18.68 44.7553 18.6157 44.6696 18.5518V18.5516Z" fill="white"/>
<path fill-rule="evenodd" clip-rule="evenodd" d="M44.6911 30.827C44.9484 30.6775 45.1413 30.4214 45.2272 30.1439L35.2779 13.236C35.0206 13.1933 34.7417 13.2146 34.5061 13.364L25.5005 18.5304L35.2135 36.1641C35.3548 36.1411 35.492 36.098 35.6209 36.0361L44.6909 30.8272L44.6911 30.827Z" fill="white"/>
<path fill-rule="evenodd" clip-rule="evenodd" d="M44.691 30.8271L35.6425 36.0147C35.5148 36.0796 35.3771 36.1229 35.2351 36.1427L35.4067 36.463L45.4414 30.6778V30.5496L45.1841 30.1226C45.1413 30.4214 44.9483 30.6776 44.691 30.8271Z" fill="white"/>
<path fill-rule="evenodd" clip-rule="evenodd" d="M44.691 30.8271L35.6425 36.0147C35.5148 36.0796 35.3771 36.1229 35.2351 36.1427L35.4067 36.463L45.4414 30.6778V30.5496L45.1841 30.1226C45.1413 30.4214 44.9483 30.6776 44.691 30.8271Z" fill="white"/>
</g>
</g>
<defs>
<clipPath id="clip0">
<rect width="95" height="58" fill="white"/>
</clipPath>
</defs>
</svg>
