<svg width="151" height="38" viewBox="0 0 151 38" fill="none" xmlns="http://www.w3.org/2000/svg">
<path d="M56.5904 19.0915C56.5904 14.4883 55.2779 12.1251 52.6527 11.9957C51.6082 11.9464 50.5884 12.1128 49.5962 12.4979C48.8044 12.7814 48.2714 13.0617 47.991 13.3452V24.3325C49.6702 25.3863 51.1615 25.8762 52.4617 25.7992C55.2132 25.6174 56.5904 23.3836 56.5904 19.0915ZM59.8287 19.2826C59.8287 21.6211 59.2803 23.5623 58.1772 25.1059C56.9478 26.8529 55.244 27.7526 53.0656 27.8019C51.4234 27.8543 49.7318 27.3397 47.991 26.2613V36.2473L45.1748 35.2429V13.0771C45.637 12.5102 46.2316 12.0234 46.9526 11.6105C48.6288 10.6338 50.6654 10.1316 53.0625 10.1069L53.1026 10.147C55.2933 10.1193 56.9817 11.019 58.168 12.843C59.2741 14.516 59.8287 16.6605 59.8287 19.2826Z" fill="white"/>
<path d="M77.04 25.8361C77.04 28.9727 76.7257 31.1449 76.0972 32.3527C75.4655 33.5606 74.2639 34.5249 72.4892 35.2429C71.0503 35.8098 69.4943 36.1179 67.8243 36.1703L67.3591 34.3955C69.0568 34.1645 70.2523 33.9334 70.9455 33.7023C72.3105 33.2401 73.2471 32.5315 73.7617 31.5825C74.1745 30.8091 74.3779 29.3332 74.3779 27.1487V26.4154C72.4522 27.2904 70.434 27.7249 68.3235 27.7249C66.937 27.7249 65.7137 27.2904 64.66 26.4154C63.4768 25.4633 62.8853 24.2555 62.8853 22.792V11.0713L65.7014 10.1069V21.9046C65.7014 23.1648 66.1081 24.1354 66.9215 24.8163C67.735 25.4972 68.7887 25.8238 70.0797 25.7992C71.3707 25.7714 72.7541 25.2723 74.2238 24.2956V10.5321H77.04V25.8361Z" fill="white"/>
<path d="M88.0331 27.6477C87.6973 27.6754 87.3892 27.6877 87.1057 27.6877C85.5128 27.6877 84.2711 27.3087 83.3837 26.5477C82.4994 25.7867 82.0557 24.736 82.0557 23.3957V12.3036H80.127V10.532H82.0557V5.82706L84.8688 4.82568V10.532H88.0331V12.3036H84.8688V23.3187C84.8688 24.3755 85.1523 25.1242 85.7192 25.5617C86.206 25.9222 86.9794 26.1287 88.0331 26.1811V27.6477Z" fill="white"/>
<path d="M105.084 27.4165H102.268V16.5462C102.268 15.4401 102.009 14.488 101.495 13.6931C100.9 12.7934 100.074 12.3436 99.0144 12.3436C97.7234 12.3436 96.1089 13.0245 94.1709 14.3864V27.4165H91.3547V1.43327L94.1709 0.545898V12.3805C95.9703 11.0711 97.936 10.4148 100.071 10.4148C101.563 10.4148 102.77 10.917 103.695 11.9184C104.622 12.9197 105.084 14.1676 105.084 15.6589V27.4165Z" fill="white"/>
<path d="M120.053 18.6478C120.053 16.8793 119.717 15.4188 119.048 14.2634C118.253 12.8553 117.018 12.1128 115.348 12.0357C112.261 12.2144 110.72 14.4267 110.72 18.6663C110.72 20.6105 111.04 22.2343 111.687 23.5376C112.513 25.1983 113.752 26.0179 115.403 25.9902C118.503 25.9656 120.053 23.5191 120.053 18.6478ZM123.137 18.6663C123.137 21.1836 122.493 23.2788 121.208 24.9519C119.794 26.8252 117.84 27.7649 115.348 27.7649C112.877 27.7649 110.951 26.8252 109.561 24.9519C108.301 23.2788 107.673 21.1836 107.673 18.6663C107.673 16.3 108.354 14.3096 109.716 12.6889C111.154 10.9697 113.046 10.1069 115.385 10.1069C117.723 10.1069 119.628 10.9697 121.094 12.6889C122.456 14.3096 123.137 16.3 123.137 18.6663Z" fill="white"/>
<path d="M139.282 27.4168H136.466V15.9303C136.466 14.6701 136.087 13.6872 135.329 12.9786C134.571 12.273 133.56 11.931 132.3 11.9587C130.963 11.9833 129.69 12.4209 128.483 13.2682V27.4168H125.666V12.92C127.287 11.7399 128.778 10.9697 130.14 10.6092C131.425 10.2733 132.559 10.1069 133.536 10.1069C134.204 10.1069 134.833 10.1716 135.424 10.301C136.53 10.5568 137.43 11.0313 138.123 11.7276C138.897 12.4979 139.282 13.4222 139.282 14.5037V27.4168Z" fill="white"/>
<path d="M17.3603 1.5374C15.9114 1.54413 14.5277 1.66771 13.3102 1.88314C9.72352 2.51678 9.07232 3.84305 9.07232 6.28891V9.51914H17.548V10.5959H9.07232H5.89148C3.42822 10.5959 1.27132 12.0764 0.596666 14.893C-0.181536 18.1214 -0.216054 20.136 0.596666 23.5069C1.19915 26.0162 2.63795 27.804 5.10121 27.804H8.01534V23.9317C8.01534 21.1342 10.4358 18.6665 13.3102 18.6665H21.7759C24.1325 18.6665 26.0138 16.7262 26.0138 14.3595V6.28891C26.0138 3.99195 24.076 2.2665 21.7759 1.88314C20.3199 1.64078 18.8092 1.53067 17.3603 1.5374ZM12.7767 4.13542C13.6522 4.13542 14.3671 4.86204 14.3671 5.75547C14.3671 6.64574 13.6522 7.36565 12.7767 7.36565C11.8981 7.36565 11.1863 6.64574 11.1863 5.75547C11.1863 4.86204 11.8981 4.13542 12.7767 4.13542Z" fill="white"/>
<path d="M27.0707 10.5957V14.3594C27.0707 17.2773 24.5969 19.7332 21.7759 19.7332H13.3101C10.9912 19.7332 9.07227 21.7179 9.07227 24.0402V32.1108C9.07227 34.4078 11.0696 35.7588 13.3101 36.4178C15.993 37.2067 18.5658 37.3493 21.7759 36.4178C23.9097 35.8 26.0137 34.5567 26.0137 32.1108V28.8806H17.5479V27.8039H26.0137H30.2515C32.7148 27.8039 33.6327 26.0857 34.4894 23.5068C35.3742 20.8518 35.3366 18.2986 34.4894 14.8928C33.8806 12.4406 32.7179 10.5957 30.2515 10.5957H27.0707ZM22.3093 31.0341C23.1879 31.0341 23.8997 31.754 23.8997 32.6443C23.8997 33.5377 23.1879 34.2643 22.3093 34.2643C21.4338 34.2643 20.7189 33.5377 20.7189 32.6443C20.7189 31.754 21.4338 31.0341 22.3093 31.0341Z" fill="white"/>
<path d="M144.766 8.02096H145.26V4.92428H146.429V4.55518H143.596V4.92428H144.766V8.02096ZM146.867 8.02096H147.289V5.19273L148.204 8.0206H148.674L149.628 5.20231V8.02096H150.088V4.55518H149.48L148.437 7.52434L147.548 4.55518H146.867V8.02096Z" fill="white"/>
</svg>
