<svg width="41" height="37" viewBox="0 0 41 37" fill="none" xmlns="http://www.w3.org/2000/svg">
<path d="M0.22522 18.7256C0.22522 21.7572 3.18549 24.5871 7.85237 26.1824C6.92041 30.874 7.68545 34.6557 10.2404 36.1291C12.8665 37.6437 16.7789 36.5953 20.4924 33.3491C24.1121 36.4642 27.7704 37.6901 30.3231 36.2124C32.9469 34.6935 33.7447 30.6555 32.7871 25.8173C37.648 24.2102 40.367 21.7971 40.367 18.7256C40.367 15.7644 37.4014 13.2027 32.7973 11.6177C33.8284 6.57958 32.9548 2.88977 30.294 1.35545C27.7287 -0.12382 24.0279 1.16549 20.355 4.36194C16.5337 0.969221 12.8695 -0.0665489 10.2115 1.47204C7.64869 2.95556 6.91742 6.80598 7.85237 11.5844C3.34294 13.1566 0.22522 15.7764 0.22522 18.7256Z" fill="white"/>
<path d="M31.8223 13.1917C31.4429 13.0615 31.0602 12.941 30.6747 12.8301C30.7386 12.5703 30.7978 12.3094 30.852 12.0474C31.7207 7.83046 31.1528 4.43332 29.2131 3.31504C27.3535 2.24251 24.3119 3.36079 21.2401 6.03392C20.9374 6.29792 20.6415 6.56953 20.3525 6.84849C20.159 6.663 19.9621 6.48111 19.7618 6.30292C16.5425 3.44441 13.3156 2.23998 11.378 3.36158C9.52007 4.43711 8.96977 7.63088 9.75184 11.6272C9.82965 12.023 9.9175 12.4167 10.0153 12.808C9.55873 12.9377 9.11775 13.0759 8.69587 13.2229C4.92166 14.5387 2.51123 16.6011 2.51123 18.7402C2.51123 20.9496 5.09868 23.1657 9.03003 24.5093C9.34881 24.6177 9.67024 24.7182 9.99402 24.8106C9.88883 25.2322 9.79545 25.6566 9.71397 26.0834C8.96835 30.0103 9.55068 33.1283 11.4037 34.1972C13.3176 35.3008 16.5299 34.1665 19.6578 31.4323C19.9051 31.2161 20.1532 30.9869 20.4017 30.7466C20.7147 31.0486 21.0361 31.3418 21.3654 31.6259C24.3952 34.2331 27.3875 35.2859 29.239 34.2141C31.1512 33.1072 31.7725 29.7575 30.9656 25.6821C30.9041 25.3709 30.8323 25.053 30.7519 24.7292C30.9775 24.6626 31.1988 24.5938 31.4148 24.5222C35.5017 23.1682 38.1607 20.9791 38.1607 18.7402C38.1607 16.5934 35.6726 14.5171 31.8223 13.1917Z" fill="white"/>
<path d="M30.9358 23.0766C30.7409 23.1412 30.5409 23.2035 30.337 23.2639C29.8858 21.8356 29.2768 20.3167 28.5318 18.7477C29.2429 17.2157 29.8282 15.7164 30.2668 14.2973C30.6314 14.403 30.9855 14.5142 31.3266 14.6318C34.6256 15.7672 36.6378 17.4464 36.6378 18.7401C36.6378 20.1183 34.4645 21.9074 30.9359 23.0766H30.9358ZM29.4717 25.9779C29.8284 27.78 29.8793 29.4093 29.643 30.683C29.4306 31.8274 29.0037 32.5904 28.4758 32.896C27.3523 33.5464 24.9496 32.701 22.3587 30.4714C22.0616 30.2158 21.7623 29.9429 21.4622 29.6541C22.4668 28.5554 23.4707 27.2781 24.4504 25.8597C26.1739 25.7069 27.8021 25.4568 29.2787 25.1155C29.3513 25.409 29.416 25.6966 29.4717 25.9779ZM14.6648 32.7837C13.5672 33.1713 12.693 33.1824 12.1646 32.8777C11.04 32.2293 10.5727 29.7255 11.2102 26.3673C11.286 25.9704 11.3729 25.5757 11.4706 25.1837C12.9307 25.5066 14.5471 25.739 16.2747 25.8791C17.2609 27.2671 18.2939 28.5428 19.3348 29.66C19.1136 29.874 18.8871 30.0825 18.6556 30.2854C17.2724 31.4945 15.8864 32.3522 14.665 32.7837H14.6648ZM9.52255 23.0681C7.78423 22.474 6.34866 21.7018 5.36464 20.8593C4.48049 20.102 4.034 19.3502 4.034 18.7401C4.034 17.4421 5.96938 15.7863 9.19723 14.661C9.60237 14.5203 10.0115 14.3916 10.4242 14.2749C10.8704 15.7259 11.4556 17.243 12.1618 18.7772C11.4464 20.3343 10.8529 21.8755 10.4026 23.3436C10.107 23.259 9.8136 23.1671 9.52255 23.0681ZM11.2464 11.3347C10.5763 7.91054 11.0212 5.32766 12.1409 4.67953C13.3337 3.98913 15.9708 4.97362 18.7504 7.44164C18.9281 7.59941 19.1065 7.7646 19.2853 7.93547C18.2497 9.0476 17.2262 10.3137 16.2485 11.6936C14.5719 11.849 12.9669 12.0986 11.4914 12.4329C11.4005 12.0689 11.3188 11.7026 11.2464 11.3345V11.3347ZM26.6239 15.1317C26.2754 14.5298 25.9139 13.9353 25.5398 13.3489C26.6774 13.4925 27.7671 13.6834 28.7904 13.9171C28.4832 14.9017 28.1003 15.9313 27.6494 16.9868C27.3199 16.3617 26.978 15.7432 26.6239 15.1317ZM20.3529 9.02377C21.0553 9.78471 21.7588 10.6345 22.4508 11.5563C21.0471 11.49 19.6411 11.4897 18.2374 11.5554C18.93 10.642 19.6395 9.79354 20.3529 9.02377ZM14.0418 15.1422C13.692 15.7488 13.3565 16.3635 13.0355 16.9857C12.592 15.9339 12.2126 14.8997 11.9027 13.901C12.9198 13.6733 14.0045 13.4873 15.1346 13.3461C14.7563 13.9361 14.3919 14.535 14.0418 15.1422ZM15.1671 24.2429C13.9996 24.1126 12.8985 23.936 11.8817 23.7147C12.1965 22.6983 12.5843 21.6419 13.0372 20.5674C13.3596 21.1902 13.6966 21.8052 14.0479 22.4121C14.4064 23.0312 14.7796 23.6416 15.1671 24.2429ZM20.3951 28.5641C19.6733 27.7852 18.9533 26.9237 18.2502 25.9972C18.9327 26.024 19.6286 26.0375 20.3359 26.0375C21.0626 26.0375 21.7809 26.0213 22.4879 25.9897C21.7937 26.9332 21.0927 27.7959 20.3951 28.5641ZM27.6639 20.5127C28.1404 21.5988 28.5421 22.6496 28.8611 23.6487C27.8274 23.8846 26.7114 24.0745 25.5356 24.2156C25.9124 23.6182 26.2773 23.0134 26.63 22.4015C26.9886 21.7797 27.3333 21.1499 27.6639 20.5127ZM25.3107 21.6408C24.7707 22.5789 24.2003 23.4992 23.6005 24.4002C22.5428 24.4758 21.4498 24.5147 20.3359 24.5147C19.2266 24.5147 18.1474 24.4802 17.1082 24.4128C16.4928 23.5139 15.9116 22.592 15.3659 21.6491C14.8228 20.7113 14.3154 19.7531 13.845 18.7767C14.3143 17.8001 14.8201 16.8414 15.3614 15.9028V15.9031C15.9025 14.9642 16.4791 14.0463 17.0899 13.1512C18.1501 13.0711 19.2372 13.0291 20.3361 13.0291C21.4398 13.0291 22.5283 13.0714 23.5882 13.1522C24.1928 14.0459 24.7657 14.9606 25.3059 15.8947C25.849 16.8313 26.3616 17.7852 26.8427 18.7551C26.3665 19.7349 25.8556 20.6974 25.3109 21.6408H25.3107ZM28.4525 4.63425C29.6462 5.32277 30.1105 8.09908 29.3604 11.74C29.3113 11.9772 29.2578 12.2134 29.2001 12.4487C27.7212 12.1074 26.1151 11.8534 24.4335 11.6956C23.4539 10.3008 22.439 9.03245 21.4201 7.93468C21.6871 7.67728 21.9604 7.42656 22.2399 7.18274C24.8718 4.89221 27.3316 3.98786 28.4525 4.63425Z" fill="#171717"/>
<path d="M20.3359 15.5569C22.0941 15.5569 23.5192 16.9822 23.5192 18.7402C23.5192 20.4984 22.0941 21.9238 20.3359 21.9238C18.5778 21.9238 17.1525 20.4984 17.1525 18.7402C17.1525 16.9822 18.5778 15.5569 20.3359 15.5569Z" fill="white"/>
</svg>
