<svg width="406" height="110" viewBox="0 0 406 110" fill="none" xmlns="http://www.w3.org/2000/svg">
<path fill-rule="evenodd" clip-rule="evenodd" d="M119.306 81.5869V31.5873H125.723L156.223 71.825V31.5873H162.323V81.5869H155.906L125.406 40.9523V81.5869H119.306ZM211.995 79.6028C207.954 81.1107 203.597 81.9043 199.002 81.9043C180.94 81.9043 171.909 73.2536 171.909 55.8728C171.909 39.4443 180.623 31.1904 198.052 31.1904C203.043 31.1904 207.717 31.9047 211.995 33.2539V38.8094C207.717 37.1428 203.28 36.3491 198.765 36.3491C185.139 36.3491 178.326 42.857 178.326 55.7141C178.326 69.6028 185.06 76.5076 198.448 76.5076C200.587 76.5076 202.963 76.1901 205.578 75.6345V58.8886H211.995V79.6028ZM222.293 62.3013V31.5873H228.71V62.3013C228.71 71.9044 233.463 76.7456 243.049 76.7456C252.556 76.7456 257.388 71.9044 257.388 62.3013V31.5873H263.805V62.3013C263.805 75.3964 256.913 81.9837 243.049 81.9837C229.185 81.9837 222.293 75.3964 222.293 62.3013ZM281.709 31.5873V76.3488H307.852V81.5869H275.292V31.5873H281.709ZM317.12 81.5869H310.387L335.183 25L359.979 81.5869H352.849L346.432 65.8727H329.954L331.697 60.6347H344.293L334.945 38.0158L317.12 81.5869ZM366.871 81.5869V31.5873H388.181C397.688 31.5873 402.441 35.5555 402.441 43.5713C402.441 50.0792 397.767 54.9204 388.498 58.0156L405.61 81.5869H397.133L381.289 59.1267V54.9204C390.796 53.4125 395.628 49.7617 395.628 43.8887C395.628 39.2856 393.014 36.984 387.706 36.984H373.446V81.5869H366.871Z" fill="#B52E31"/>
<path fill-rule="evenodd" clip-rule="evenodd" d="M0 18.2548L51.0973 0.000976562L103.541 17.9374L95.0648 85.6353L51.0973 110L7.84285 85.9527L0 18.2548Z" fill="#E23237"/>
<path fill-rule="evenodd" clip-rule="evenodd" d="M103.542 17.9364L51.0974 0V109.999L95.0649 85.6343L103.542 17.9364Z" fill="#B52E31"/>
<path fill-rule="evenodd" clip-rule="evenodd" d="M51.1765 12.8569L19.3298 83.8088L31.2129 83.5707L37.6298 67.5391H66.07L73.0415 83.7294L84.37 83.9675L51.1765 12.8569ZM51.2558 35.6345L62.0298 58.174H41.8285L51.2558 35.6345Z" fill="white"/>
</svg>
