<svg width="119" height="154" viewBox="0 0 119 154" fill="none" xmlns="http://www.w3.org/2000/svg">
<path d="M35.5611 95.2359C31.0289 91.6437 26.1931 88.2015 22.8895 83.351C15.935 74.7973 10.5819 64.8963 6.92215 54.4899C4.7095 47.7225 3.9518 40.4675 1.09767 33.9629C-1.88384 29.2369 1.61132 24.0745 6.74876 22.573C9.0344 22.129 13.0558 19.955 8.2014 21.5108C3.84861 24.7264 3.42932 18.5884 7.89181 18.1997C10.9375 17.7927 12.0587 15.282 11.016 13.0218C7.74539 10.8722 18.9439 8.51362 13.3086 5.30694C7.44231 -1.07176 21.5178 -2.29973 18.0444 4.94586C17.2142 10.5167 27.8833 3.92255 25.4057 10.357C27.9228 13.4475 34.829 11.0618 34.6556 15.3948C38.3214 15.6487 39.5797 18.7542 43.0172 18.9931C46.5858 20.6163 53.0485 21.893 54.2608 25.9417C50.7234 28.7625 42.5342 20.1142 42.1387 27.9237C43.2087 39.4625 42.9359 51.3483 47.1246 62.3359C49.1057 68.9881 53.9113 74.2246 58.2487 79.4067C62.4012 84.4806 68.0244 88.0549 73.7573 91.0621C78.7846 93.4506 84.2046 95.0335 89.6851 96.0292C91.9071 94.317 95.8308 87.9505 99.2958 90.6331C99.4631 93.6534 92.4179 96.942 98.9653 96.6081C102.813 95.4382 105.479 99.6026 108.646 95.8452C111.564 99.3277 120.774 93.622 118.698 100.739C115.89 102.565 111.795 101.462 108.984 103.974C104.349 101.64 100.658 106.059 95.524 105.502C89.825 106.53 84.0247 106.944 78.2472 106.953C68.7663 106.199 59.0854 105.881 50.0666 102.555C44.9844 101.068 40.0269 98.1517 35.5611 95.2359ZM43.5676 98.7334C48.5284 100.892 53.38 103.171 58.8177 103.86C67.4443 105.067 76.353 106.928 85.0098 105.232C81.092 103.45 77.04 105.924 73.1372 103.958C68.4562 104.972 63.4322 103.698 58.6713 103.07C53.2605 100.642 47.4193 98.9727 42.352 95.8175C36.0171 93.4876 45.6259 98.8069 47.337 99.2392C51.2947 101.501 42.9837 98.0777 41.81 97.1378C38.4948 95.2635 38.0727 95.6555 41.4828 97.5574C42.1693 97.962 42.8475 98.3877 43.5676 98.7334ZM34.1266 92.0114C38.9354 93.806 34.1052 88.6057 31.9047 88.9063C30.9285 87.2002 28.1752 86.1221 30.1174 85.2065C26.625 86.4289 26.4576 80.5606 24.8167 81.4004C21.1203 80.2244 23.3785 76.059 18.9741 73.4996C18.5725 70.8038 14.6 68.4673 13.3356 64.4031C12.7764 62.3209 8.84614 56.3464 11.2596 61.9069C13.3142 67.26 16.9284 71.8482 19.9378 76.4267C22.2722 80.7868 25.0324 85.3475 29.2848 88.0671C30.7198 89.4543 32.1022 91.5763 34.1262 92.0114H34.1266ZM20.2785 76.6899C20.4449 75.9579 21.157 78.2728 20.2785 76.6899V76.6899ZM39.887 94.161C40.9505 93.6805 38.3548 93.555 39.887 94.161V94.161ZM42.4947 95.1202C42.2247 93.7967 41.3033 95.8611 42.4947 95.1202V95.1202ZM45.7626 96.4924C47.3156 94.9998 43.364 95.551 45.7626 96.4924V96.4924ZM51.3616 99.6363C52.3066 98.2309 48.3369 99.1071 51.3616 99.6363V99.6363ZM40.6107 92.0854C43.0233 90.5108 37.4888 92.0634 40.6107 92.0854V92.0854ZM43.0604 93.3162C42.9903 92.4858 42.1879 93.6894 43.0604 93.3162V93.3162ZM55.3067 101.018C57.2763 102.271 66.806 103.762 60.8393 101.532C59.8385 101.744 49.7746 98.6627 55.3067 101.018ZM35.8656 85.761C35.6741 84.9288 32.8069 84.8393 35.8656 85.761V85.761ZM41.5646 89.1119C43.0507 88.0676 38.4855 88.3064 41.5646 89.1119V89.1119ZM46.3608 92.0732C48.4917 91.2649 42.9084 91.2616 46.3608 92.0732V92.0732ZM33.5432 83.2161C35.8535 85.0009 42.8633 83.4456 37.0812 82.1506C34.452 80.7386 28.5248 79.7715 32.5652 83.0021L33.5432 83.2161ZM49.611 93.0956C50.5742 91.4447 45.5738 92.1519 49.611 93.0956V93.0956ZM44.7288 89.1873C50.3766 90.7956 39.9781 85.5859 43.3342 88.5935L44.0794 88.9335L44.7288 89.1873ZM54.5174 94.887C59.8668 94.9385 49.684 94.1432 54.5174 94.887V94.887ZM31.4859 80.0979C31.2757 79.0938 30.1666 80.1813 31.4859 80.0979V80.0979ZM63.5661 100.001C63.7088 98.1887 61.821 101.352 63.5661 100.001V100.001ZM40.6168 85.7301C40.2914 84.7747 38.9452 85.6903 40.6168 85.7301V85.7301ZM31.993 79.4676C35.0637 79.2812 27.7862 78.1047 31.993 79.4676V79.4676ZM21.7767 72.8153C21.3941 71.3307 18.4363 70.1486 21.7767 72.8153V72.8153ZM48.5958 89.9629C48.0333 89.3161 48.3308 90.1034 48.5958 89.9629V89.9629ZM65.286 100.284C65.2349 99.294 64.3772 100.656 65.286 100.284V100.284ZM47.1185 88.4254C47.4197 87.1515 44.4987 88.039 47.1185 88.4254V88.4254ZM34.683 80.4843C36.9691 80.2389 31.0201 78.9285 34.683 80.4843V80.4843ZM55.7181 93.6534C59.2802 92.232 52.2467 92.9607 55.7181 93.6534V93.6534ZM44.778 86.1717C48.8812 86.7038 39.8935 83.357 43.8753 85.8711L44.778 86.1717ZM59.0394 95.0064C62.873 92.7008 61.6086 100.412 65.5421 95.6588C69.4203 92.8047 62.192 99.1867 66.9706 96.1674C70.4295 93.8365 75.5358 97.2727 78.7613 98.3906C81.08 98.2772 83.3358 100.412 85.7154 99.1127C90.2931 97.8693 76.7611 97.2698 80.3079 95.0673C76.1196 96.2962 73.0256 93.6037 70.9645 90.8996C66.2649 89.806 60.8333 87.3871 58.4867 83.1945C57.5291 81.6238 59.8673 83.4184 57.6602 80.8458C54.8303 78.3098 53.4171 75.4277 51.5169 72.3442C49.2461 71.1251 48.9788 67.533 48.7506 72.2252C48.7692 69.2635 46.0089 67.2698 45.334 68.0969C45.3219 65.2452 48.289 66.6755 46.2125 64.5657C45.7663 61.61 44.2946 58.5298 43.8535 55.1915C43.1674 53.5837 43.7558 50.1386 41.5074 53.7795C40.6893 57.6292 41.2369 49.0512 42.5105 51.878C44.1821 48.9931 41.9081 49.3326 41.817 49.7312C42.9057 47.2968 42.5073 43.8419 41.5316 45.1588C42.1122 42.5769 42.4496 35.6592 40.6656 36.8871C41.7473 34.1863 42.7174 24.5325 38.0174 28.2145C36.1148 28.2417 32.8172 28.91 31.2609 29.6907C36.1454 32.4042 30.7681 30.6705 28.7772 30.2387C28.5188 32.7499 26.5492 31.6657 24.0869 31.69C28.0204 32.1799 22.1718 35.7411 19.9201 34.3577C16.9897 35.7664 22.446 39.2883 19.9777 40.3781C20.2822 42.0168 15.4911 39.7847 15.8653 43.5759C13.0227 42.3685 15.4762 48.0714 16.8986 46.1423C21.7348 47.4621 20.3031 50.4665 20.4244 53.3233C19.637 54.9859 16.5337 49.4127 19.7342 49.6703C17.2082 45.5382 16.9414 48.1754 14.8435 50.0955C14.3573 50.2337 20.1934 52.8269 16.5309 54.1073C19.7527 54.6098 19.8471 57.4517 20.5039 59.2496C22.44 61.2822 22.0412 57.0039 24.3612 59.4486C22.8923 57.2709 16.5913 53.3135 21.6651 54.5826C21.6372 52.3927 20.7466 50.6252 22.3029 50.6679C23.8443 47.8597 20.6889 57.5954 24.1604 54.0249C25.1203 53.6024 25.3611 51.2135 27.0875 54.2515C29.5949 56.7384 27.9935 58.5382 24.4551 56.2602C25.0873 58.4253 29.1877 59.1967 28.4156 62.5813C29.2328 65.5581 30.3763 64.4612 31.3729 64.2898C32.1538 67.1808 32.5987 65.0555 32.6349 63.6772C36.2124 64.45 35.3733 66.5809 36.4945 68.0692C38.9596 69.1895 32.9659 60.471 37.1974 65.4475C41.6496 69.4991 38.8689 71.1893 34.8722 70.5406C37.401 70.3346 38.2149 73.9862 41.38 73.8574C44.2644 75.2413 46.2191 80.5517 41.2462 78.3403C39.5225 76.7723 33.4154 74.84 38.4041 77.82C43.0061 79.9696 46.6658 81.2528 51.1064 83.9514C54.2831 86.2359 55.6563 88.8534 56.8602 89.3719C54.1888 90.6574 48.8119 88.3457 52.8054 87.6386C50.3129 87.1819 47.5108 85.9113 49.8964 89.0379C51.9269 90.7469 57.0852 90.5657 58.0126 90.7586C57.2284 92.4985 55.8822 92.6366 58.0428 92.771C55.6321 94.0664 58.8182 94.2688 59.0399 95.0064H59.0394ZM54.1093 80.9775C52.6413 79.431 52.2615 76.5372 53.8481 79.0535C54.6629 79.3847 56.4535 83.7861 54.1093 80.9775ZM70.1682 91.255C71.083 91.1941 70.1952 91.9557 70.1682 91.255V91.255ZM51.7939 77.1863C51.7353 74.8493 52.322 78.9894 51.7939 77.1863V77.1863ZM50.1976 75.024C48.3499 71.4319 52.5228 76.0407 50.1976 75.024V75.024ZM30.8532 61.5739C31.9386 61.2822 31.3882 63.4412 30.8532 61.5739V61.5739ZM46.2493 69.98C46.9149 67.4595 47.0307 72.0936 46.2493 69.98V69.98ZM35.3733 62.3603C34.6077 60.9703 36.9756 63.6655 35.3733 62.3603V62.3603ZM44.7051 65.374C42.9572 61.4297 45.9453 63.2178 45.0941 66.0203L44.7051 65.374ZM28.6103 54.5602C27.8294 53.2652 26.5371 49.4675 26.9536 48.3074C27.3274 50.1967 30.9387 56.4349 28.7224 50.8922C26.2759 46.2463 31.6499 52.3983 32.2031 53.5593C32.4616 54.711 30.6924 53.2441 31.8898 55.9478C29.7046 52.8699 30.6008 57.6479 28.6103 54.5602ZM23.6374 51.1062C23.841 48.0958 24.7744 53.1702 23.6374 51.1062V51.1062ZM25.8747 51.8836C26.9415 49.6122 27.683 55.0505 25.8747 51.8836V51.8836ZM20.4914 47.6888C18.6399 45.8323 17.2993 44.1238 20.5792 46.5367C21.8408 46.5858 17.7711 42.6509 20.8837 45.2872C24.1539 45.888 22.4972 50.6931 20.4914 47.6888ZM23.3181 47.6152C24.3947 46.5404 23.8899 48.6718 23.3181 47.6152V47.6152ZM25.0599 48.1754C23.4273 45.0975 27.0387 49.468 25.0599 48.1754V48.1754ZM21.601 44.8469C16.2181 40.0165 28.364 47.3698 22.4795 45.7405L21.601 44.8469ZM37.0268 53.8745C34.6956 52.4686 36.4067 43.9679 37.2034 49.7804C39.4681 49.0418 37.0779 52.7847 38.7653 52.7477C38.5013 55.1081 37.7445 55.9577 37.0268 53.8745ZM42.7323 57.2737C42.96 54.711 43.2124 59.0262 42.7323 57.2737V57.2737ZM41.7417 56.2846C41.9969 55.1915 41.7659 57.5739 41.7417 56.2846V56.2846ZM22.6552 43.2602C19.1968 38.4518 32.7075 48.1229 24.8716 44.4793C24.0535 44.262 23.0661 44.1852 22.6552 43.2602ZM33.6437 49.1284C33.3159 45.0797 34.3735 49.7982 33.6437 49.1284V49.1284ZM41.9843 54.5204C42.6286 52.2148 42.0336 56.0462 41.9843 54.5204V54.5204ZM23.1875 41.4258C25.2425 40.9818 31.7043 45.061 25.7711 42.5896C25.1119 41.8543 23.7044 42.1882 23.1875 41.4253V41.4258ZM40.838 50.2885C41.0579 46.1484 42.0671 47.8171 40.8473 50.8828L40.838 50.288V50.2885ZM24.7163 39.9838C25.5549 38.7459 22.4907 34.3886 25.1565 38.4214C26.3094 39.3431 28.4909 39.965 26.5641 40.3537C29.5944 43.0462 25.8259 41.0829 24.7163 39.9838ZM39.9655 48.9964C40.5438 44.2803 40.4768 51.7586 39.9655 48.9964V48.9964ZM22.9653 35.6287C23.6068 35.3524 23.3055 36.4886 22.9653 35.6287V35.6287ZM26.9443 38.0144C27.9679 35.8488 28.8316 40.4273 26.9443 38.0144V38.0144ZM38.1633 44.3013C38.154 43.4714 38.3758 45.511 38.1633 44.3013V44.3013ZM37.5125 42.8532C35.9562 38.982 38.9628 44.9017 37.5125 42.8532V42.8532ZM36.5578 40.3139C36.2974 38.715 37.4456 42.3231 36.5578 40.3139V40.3139ZM38.114 37.7662C37.0444 35.8699 39.4644 29.4055 39.735 33.4144C38.6068 36.5382 39.4096 38.2842 40.1933 34.0945C41.6469 30.7993 39.8805 40.6024 38.114 37.7662ZM39.7131 28.1532C40.1789 27.5771 39.8168 28.8477 39.7131 28.1532V28.1532ZM37.0421 81.1732C36.4095 80.6159 37.1235 81.5259 37.0421 81.1732V81.1732ZM42.5435 83.9757C45.6041 84.7691 45.5892 83.4976 42.8224 83.1177C41.3363 81.7249 36.64 80.2455 40.8441 82.9463C41.1211 83.6573 41.9997 83.6385 42.5435 83.9757ZM31.6802 76.7048C33.3638 77.9736 38.0294 80.2942 34.0811 77.1896C35.4124 75.63 31.5337 74.8006 32.82 73.7567C29.5461 71.7377 30.2354 71.9185 32.5313 71.9831C28.5978 70.2095 33.0993 70.3444 32.8869 69.4354C31.3701 69.1347 25.3513 66.7397 28.8925 69.6311C25.2937 67.784 28.0349 70.3201 26.9471 70.0536C23.2656 69.0429 30.2243 72.8776 26.3633 71.925C28.4732 73.6092 32.0446 76.2431 27.2539 73.7071C26.625 74.6226 30.6831 76.0103 31.6797 76.7048H31.6802ZM37.4335 80.037C44.428 82.3066 34.0016 77.2594 37.4335 80.037V80.037ZM66.8878 98.0136C66.9789 96.6142 65.933 99.2078 66.8878 98.0136V98.0136ZM69.9154 99.2968C71.5293 97.7232 69.9823 101.808 72.5901 98.9113C72.617 96.8376 72.511 95.6133 69.5932 98.133C68.7872 98.5835 68.4293 100.491 69.9154 99.2972V99.2968ZM21.8589 68.8907C21.363 66.9275 18.3842 66.9359 21.8589 68.8907V68.8907ZM25.0896 71.0244C23.8889 69.019 20.8065 69.2087 25.0896 71.0244V71.0244ZM43.4825 82.1993C45.2796 83.8076 51.7293 83.3786 45.6626 82.3988C44.7655 81.0603 39.9599 81.3821 43.4825 82.1993ZM68.763 97.9321C71.526 95.5951 66.0855 98.9732 68.763 97.9321V97.9321ZM74.5113 101.91C74.5289 101.159 73.3199 102.237 74.5113 101.91V101.91ZM74.5206 100.859C77.5811 97.5949 71.5567 101.052 74.5206 100.859V100.859ZM13.9069 62.1832C11.2991 58.4347 12.2869 56.7501 9.77024 53.6877C9.29238 51.3451 5.45417 46.0346 7.78536 51.6602C9.91899 54.9526 10.5512 60.0481 13.9073 62.1832H13.9069ZM73.5597 99.8209C79.1927 96.1547 71.2499 98.2252 73.5597 99.8209V99.8209ZM77.8581 101.517C80.6788 99.079 76.0736 101.009 77.8581 101.517V101.517ZM20.9009 64.746C21.7069 63.5363 18.8161 64.59 20.9009 64.746V64.746ZM76.961 100.359C79.6905 98.5868 76.3321 98.8589 76.4659 100.521L76.961 100.359ZM39.9139 76.8336C39.82 75.6333 38.4706 76.9348 39.9139 76.8336V76.8336ZM42.2028 78.16C41.4735 76.6777 41.0844 78.3927 42.2028 78.16V78.16ZM81.3412 101.557C84.8396 99.0148 79.2229 101.07 80.6086 102.041L81.3412 101.557ZM80.0011 100.905C82.8519 98.5006 76.9944 101.97 80.0011 100.905V100.905ZM86.8454 105.495C88.7582 104.206 84.5207 105.079 86.8454 105.495V105.495ZM22.6552 63.8734C25.2174 64.4518 32.9013 70.2339 28.3695 64.2748C26.0477 63.5826 27.4399 57.8647 25.0719 58.8754C26.6617 61.5519 26.3782 62.6876 23.0406 61.004C18.8496 58.9396 20.6852 62.024 21.5066 62.8754C20.3873 63.1325 22.9834 63.8524 22.6548 63.873L22.6552 63.8734ZM10.9737 54.5794C11.4325 52.6648 6.74551 44.0564 8.76107 50.2641C9.48715 51.5656 9.41185 54.0305 10.9737 54.5794ZM32.4151 67.8974C31.0931 66.786 32.3514 67.7381 32.4151 67.8974V67.8974ZM35.6643 68.6608C35.6643 66.6329 32.072 67.8365 35.6643 68.6608V68.6608ZM63.8422 86.5544C63.3044 85.1695 61.7178 86.5235 63.8422 86.5544V86.5544ZM65.1949 87.5491C64.9936 86.7745 64.413 87.6994 65.1949 87.5491V87.5491ZM76.3623 94.6387C77.4356 93.8398 75.0217 94.5352 76.3623 94.6387V94.6387ZM16.807 56.0799C19.8796 54.8819 13.5146 55.2252 16.807 56.0799V56.0799ZM61.3613 84.3579C61.3255 82.3553 59.4011 84.8576 61.3613 84.3579V84.3579ZM15.5938 53.2282C17.5666 52.5585 13.767 52.788 15.5938 53.2282V53.2282ZM21.3207 56.0242C21.2867 55.3662 20.7159 56.2757 21.3207 56.0242V56.0242ZM91.1866 99.1895C93.7246 98.672 99.5091 100.492 100.442 98.5133C97.3602 98.4365 89.7823 96.3201 89.4234 99.0148L90.0984 99.1226L91.187 99.1895H91.1866ZM23.141 56.4869C23.1875 54.4562 21.5698 56.4106 23.141 56.4869V56.4869ZM8.08379 45.9611C7.40001 42.0927 5.4816 45.3757 8.08379 45.9611V45.9611ZM11.6733 46.8706C11.7193 45.6272 8.38687 45.7527 11.6733 46.8706V46.8706ZM13.7251 47.8874C13.1325 47.4031 13.2631 48.4962 13.7251 47.8874V47.8874ZM26.6403 56.2326C27.2488 55.6687 25.1998 55.8162 26.6403 56.2326V56.2326ZM12.3603 45.5967C12.0113 42.6753 8.19907 45.1588 12.3603 45.5967V45.5967ZM4.99491 40.7823C4.89125 39.4349 4.27719 41.2904 4.99491 40.7823V40.7823ZM6.09194 39.95C5.91297 38.3507 5.1497 40.1514 6.09194 39.95V39.95ZM12.1419 43.5876C14.7013 42.5769 7.48136 41.4927 11.6189 43.3979L12.1419 43.5876ZM93.1296 93.9896C94.7677 92.4769 91.0504 93.5213 93.1296 93.9896V93.9896ZM102.914 99.0977C103.571 97.1443 101.26 99.3553 102.914 99.0977V99.0977ZM12.7601 40.3935C13.0311 38.5015 10.7301 40.7701 12.7601 40.3935V40.3935ZM4.14983 34.5815C3.68777 31.9111 3.75145 27.2221 8.17444 28.8056C2.27093 29.9876 12.2627 36.2006 11.0011 31.2948C13.4843 31.4179 15.8588 29.8162 14.5544 32.2441C19.4483 31.7022 22.8379 27.4273 27.564 28.0277C31.2446 27.535 35.2692 27.1641 39.2362 25.6696C42.4975 25.4336 45.6371 21.8963 43.8507 19.7986C39.4035 19.4192 34.7463 19.9794 29.8315 20.9657C24.3849 22.1047 19.4367 24.2726 13.9403 25.2041C8.58117 25.93 15.0165 27.2006 13.4811 27.4853C10.6874 28.4623 16.8159 29.1208 13.1194 30.1525C10.8371 29.7151 8.45985 28.925 9.43556 26.4995C4.30462 27.173 -0.206219 29.3165 3.84907 34.5778L4.15029 34.5806L4.14983 34.5815ZM16.5184 28.2356C17.7191 23.771 22.962 31.9111 18.4879 28.8299C17.9557 28.4253 17.0739 28.0975 16.5184 28.2356ZM16.7517 26.07C18.4879 24.769 17.673 26.8025 16.7517 26.07V26.07ZM18.9555 26.1075C19.1145 24.0525 24.0051 27.1945 19.7616 26.8456L18.9555 26.107V26.1075ZM21.971 24.8856C23.0745 23.5865 22.2908 26.0368 21.971 24.8856V24.8856ZM22.7435 24.3653C24.5792 22.1449 33.1295 22.9467 26.8709 24.1471C25.1928 22.8732 23.9075 24.8973 22.7435 24.3653ZM33.9044 22.6315C33.6283 16.5643 39.4519 24.7845 33.9044 22.6315V22.6315ZM37.0723 22.6128C38.2298 19.5569 41.5674 21.3853 37.6102 21.9974C37.6948 22.3252 37.4916 23.578 37.0723 22.6128ZM11.512 38.8256C14.9704 36.6909 7.83975 36.9733 11.512 38.8256V38.8256ZM14.071 39.5393C15.2842 38.2411 11.4325 39.0124 14.071 39.5393V39.5393ZM6.53308 34.1525C8.50866 32.6211 4.19259 33.5709 6.53308 34.1525V34.1525ZM108.689 98.5404C108.746 96.764 107.178 99.3394 108.689 98.5404V98.5404ZM98.3084 91.4016C98.6031 89.3597 96.9743 91.5796 98.3084 91.4016V91.4016ZM111.543 99.2298C114.306 99.2392 119.917 98.3625 113.904 98.3657C112.959 98.5133 108.406 98.4828 111.543 99.2298ZM16.3208 38.286C18.5581 38.1329 19.8192 35.802 15.8857 35.9341C9.79162 35.3004 21.2626 38.0383 15.1048 37.2543C14.2783 37.8055 16.2715 38.4392 16.3208 38.286ZM18.2903 39.2911C18.0561 37.8453 17.5968 40.0592 18.2903 39.2911V39.2911ZM20.6276 33.0126C21.5972 31.7996 19.2842 32.6881 20.6276 33.0126V33.0126ZM13.1864 20.4847C17.1808 19.119 22.6399 17.5815 24.5248 21.1591C22.6064 18.8348 23.7499 16.5437 25.5614 19.9461C28.1236 23.3856 29.4057 18.3814 27.7401 17.2265C29.6404 19.6028 31.7982 20.7273 29.0106 17.3773C32.0413 13.7051 22.9467 17.8578 20.88 17.8147C19.8862 18.2643 10.6121 20.1971 13.1868 20.4847H13.1864ZM15.5269 15.9714C17.8041 14.2413 23.4027 17.0031 19.8099 14.2498C19.4576 13.9379 11.9438 16.3385 15.5269 15.9714ZM23.8285 16.317C26.4911 16.3844 22.6799 12.7094 25.8529 14.3753C25.3332 12.6607 22.1569 12.339 20.6039 11.6533C19.7253 13.2213 22.3903 16.3385 23.8285 16.317ZM16.9827 8.72484C17.9041 7.46643 15.366 9.36505 16.9827 8.72484V8.72484ZM20.3761 9.54208C24.6703 8.96978 19.2809 7.68046 19.5087 9.49666L20.3756 9.54208H20.3761ZM14.0403 4.55059C11.0156 0.572562 19.7276 5.21843 16.6541 1.05307C14.0677 -1.01977 11.5845 3.39006 14.0403 4.55059ZM52.8407 25.6055C54.2278 23.1303 47.1176 22.2672 51.9078 24.7287C52.3485 24.8763 52.249 25.7764 52.8407 25.6055ZM24.6871 117.783C24.3803 119.004 24.1901 121.052 24.119 123.926C24.119 124.491 23.8666 124.774 23.3604 124.774C22.8542 124.774 22.5018 124.527 22.3024 124.036C21.7604 122.707 21.2472 121.78 20.7573 121.251C20.1799 120.633 19.412 120.259 18.454 120.132C17.4243 119.968 14.8593 119.886 10.7585 119.886C9.81952 119.886 9.20453 119.986 8.91633 120.187C8.7355 120.314 8.64532 120.587 8.64532 121.006V133.375C8.64532 133.793 8.90703 133.993 9.42998 133.975C11.0388 133.957 13.3691 133.846 16.4212 133.648C17.0181 133.574 17.4206 133.378 17.6279 133.059C17.8371 132.741 18.0403 131.919 18.2378 130.589C18.3633 129.861 18.7891 129.578 19.5115 129.743C20.1251 129.871 20.3891 130.153 20.2985 130.589C19.7918 133.066 19.6282 136.287 19.809 140.255C19.8281 140.727 19.5301 140.983 18.9151 141.02C18.4084 141.074 18.0923 140.801 17.9668 140.2C17.4983 137.925 16.6248 136.71 15.3525 136.554C14.0789 136.4 12.0043 136.323 9.13294 136.323C8.80755 136.323 8.64532 136.44 8.64532 136.677V148.964C8.64532 149.874 8.97862 150.494 9.6466 150.82C10.1719 151.094 11.3005 151.34 13.0339 151.558C13.9204 151.649 14.3076 152.041 14.2007 152.732C14.0914 153.333 13.2975 153.57 11.8146 153.442C7.53342 153.096 4.00061 153.114 1.21945 153.498C0.441772 153.606 0.0545577 153.287 0.0545577 152.542C0.0545577 152.068 0.441772 151.795 1.21945 151.723C2.99004 151.522 3.87464 149.956 3.87464 147.027V123.653C3.87464 122.453 3.66174 121.53 3.23827 120.883C2.81294 120.236 2.02224 119.649 0.867568 119.121C0.144272 118.794 -0.126266 118.348 0.0540929 117.783C0.144272 117.438 0.289303 117.246 0.486862 117.211C0.667686 117.155 1.1474 117.192 1.92276 117.32C3.06163 117.502 5.74517 117.593 9.97198 117.593C14.9593 117.593 19.267 117.483 22.8993 117.265C24.1093 117.191 24.7154 117.292 24.7154 117.565C24.7154 117.639 24.7061 117.711 24.6871 117.783ZM42.2614 152.443C42.2614 153.172 41.8546 153.49 41.0421 153.399C38.5505 153.162 35.4603 153.197 31.775 153.507C31.0336 153.581 30.5785 153.562 30.4056 153.454C30.2336 153.344 30.149 153.044 30.149 152.551C30.149 152.115 30.6403 151.747 31.6248 151.446C32.6108 151.146 33.1016 150.25 33.1016 148.757V124.047C33.1016 122.572 32.8892 121.489 32.4657 120.797C32.0404 120.105 31.2953 119.569 30.2298 119.187C29.6692 118.986 29.3885 118.704 29.3885 118.34C29.3885 117.794 29.7952 117.384 30.6082 117.111C31.8373 116.711 33.1114 116.093 34.4306 115.255C35.5146 114.599 36.2017 114.273 36.4894 114.273C37.1574 114.273 37.493 114.735 37.493 115.664C37.493 115.592 37.4568 116.502 37.3833 118.394C37.3308 120.196 37.3122 121.971 37.3308 123.719L37.4377 148.101C37.4377 149.212 37.7092 150.018 38.2512 150.518C38.7932 151.019 39.7247 151.351 41.0421 151.514C41.8546 151.604 42.2614 151.914 42.2614 152.443V152.443ZM66.7721 150.833C66.7721 151.216 66.0813 151.793 64.6998 152.566C63.3169 153.34 62.2101 153.727 61.3799 153.727C60.6743 153.727 60.0518 153.382 59.5098 152.69C58.9678 151.998 58.5871 151.653 58.371 151.653C58.2087 151.653 57.3506 152.026 55.7957 152.771C54.2436 153.518 52.6799 153.892 51.1083 153.892C49.6273 153.892 48.3889 153.454 47.3956 152.582C46.3116 151.616 45.7696 150.306 45.7696 148.649C45.7696 145.5 49.347 143.243 56.5018 141.878C57.729 141.641 58.3538 141.141 58.3705 140.376L58.4258 138.628C58.5346 135.644 57.2247 134.152 54.496 134.152C53.7188 134.152 52.983 134.851 52.2862 136.253C51.5922 137.656 50.5928 138.41 49.2921 138.52C47.8111 138.664 47.0697 138.037 47.0697 136.636C47.0697 135.761 48.1723 134.744 50.3761 133.577C52.6892 132.358 54.9121 131.748 57.0439 131.748C60.7105 131.748 62.5262 133.505 62.4904 137.018L62.3812 148.266C62.3644 149.45 62.8614 150.041 63.8719 150.041C64.0714 150.041 64.4511 149.996 65.0103 149.904C65.5714 149.814 65.8968 149.768 65.9874 149.768C66.5104 149.768 66.7721 150.124 66.7721 150.833ZM58.4258 144.609C58.4444 144.153 58.3389 143.852 58.113 143.708C57.8871 143.562 57.5319 143.533 57.0439 143.625C52.6892 144.408 50.5119 145.837 50.5119 147.912C50.5119 150.005 51.641 151.051 53.8992 151.051C54.8028 151.051 55.7344 150.879 56.6901 150.534C57.8118 150.132 58.371 149.651 58.371 149.085L58.4258 144.609V144.609ZM86.9202 147.692C86.9202 149.622 86.1821 151.156 84.7108 152.293C83.2387 153.431 81.2292 154 78.6809 154C76.9833 154 75.2838 153.818 73.5862 153.454C72.122 153.126 71.2732 152.826 71.0384 152.553C70.8934 152.297 70.8218 151.052 70.8218 148.812C70.8218 147.848 71.0384 147.346 71.4726 147.311C71.9058 147.256 72.2768 147.493 72.5836 148.02C73.9381 150.405 76.1247 151.598 79.142 151.598C81.688 151.598 82.9621 150.705 82.9621 148.92C82.9621 148.139 82.6739 147.483 82.0947 146.956C81.4621 146.355 80.2353 145.654 78.4099 144.853C75.7714 143.67 74.0097 142.633 73.1251 141.74C72.1671 140.794 71.6887 139.52 71.6887 137.917C71.6887 135.951 72.4385 134.423 73.9381 133.331C75.3289 132.274 77.1901 131.748 79.5199 131.748C80.9842 131.748 82.3206 131.865 83.5325 132.102C84.8331 132.339 85.5104 132.629 85.5648 132.976C85.7079 133.994 86.0073 135.469 86.4591 137.4C86.5135 137.635 86.2592 137.827 85.7005 137.972C85.1036 138.1 84.7067 137.999 84.5072 137.673C83.0806 135.323 81.2743 134.15 79.0872 134.15C76.6124 134.15 75.3745 134.951 75.3745 136.552C75.3745 137.445 75.7092 138.154 76.3771 138.681C76.974 139.137 78.3736 139.847 80.5779 140.813C82.8905 141.813 84.4622 142.715 85.2942 143.515C86.3782 144.552 86.9202 145.946 86.9202 147.692ZM118.802 152.47C118.802 153.107 118.377 153.445 117.528 153.481C116.263 153.499 114.609 153.59 112.569 153.754C111.557 153.955 110.834 153.828 110.401 153.372C107.546 150.278 105.124 147.038 103.137 143.651C102.975 143.361 102.768 143.215 102.514 143.215C102.207 143.215 101.675 143.488 100.916 144.035C100.066 144.507 99.6421 145.181 99.6421 146.053C99.6421 146.673 99.6588 147.565 99.6965 148.731C99.7327 149.895 100.02 150.659 100.562 151.023C100.942 151.279 101.82 151.479 103.191 151.625C104.04 151.734 104.466 152.053 104.466 152.58C104.466 152.999 104.398 153.259 104.262 153.357C104.127 153.458 103.769 153.481 103.191 153.426C101.385 153.263 98.3321 153.354 94.0323 153.699C92.9483 153.79 92.3608 153.653 92.2706 153.289C92.2348 153.163 92.2157 152.98 92.2157 152.743C92.2157 152.18 92.7675 151.751 93.8706 151.462C94.8639 151.205 95.3604 150.031 95.3604 147.938V124.074C95.3604 122.582 95.2163 121.545 94.9258 120.963C94.5288 120.216 93.6967 119.633 92.4324 119.215C91.8373 119.015 91.5385 118.733 91.5385 118.369C91.5385 117.84 91.9638 117.43 92.8121 117.14C94.1778 116.68 95.4799 116.047 96.6871 115.256C97.6814 114.601 98.2963 114.273 98.5297 114.273C99.2716 114.273 99.6421 114.745 99.6421 115.694C99.6421 115.565 99.6328 116.467 99.6137 118.396C99.5942 120.18 99.5855 121.964 99.5877 123.748L99.6421 140.839C99.6421 141.313 99.768 141.548 100.02 141.548C100.291 141.548 100.707 141.313 101.268 140.839C102.768 139.656 104.61 138.109 106.796 136.198C107.23 135.743 107.446 135.379 107.446 135.106C107.446 134.615 106.715 134.267 105.252 134.069C104.62 133.994 104.321 133.64 104.356 133.003C104.411 132.366 104.727 132.093 105.305 132.184C106.607 132.366 108.504 132.466 110.996 132.485C112.731 132.502 114.457 132.512 116.173 132.512C116.732 132.531 117.013 132.866 117.013 133.523C117.013 134.141 116.57 134.478 115.686 134.533C114.293 134.586 112.983 134.905 111.756 135.489C110.04 136.27 108.205 137.644 106.254 139.611C106.11 139.721 106.037 139.857 106.037 140.02C106.037 140.275 106.344 140.885 106.959 141.85C109.217 145.309 111.35 147.92 113.354 149.686C114.637 150.796 115.838 151.351 116.958 151.351C117.79 151.351 118.305 151.41 118.503 151.529C118.702 151.648 118.802 151.962 118.802 152.47Z" fill="black"/>
</svg>
