<svg width="494" height="110" viewBox="0 0 494 110" fill="none" xmlns="http://www.w3.org/2000/svg">
<path d="M137.008 4.44775H159.81V49.8117L201.861 4.44775H229.401L187.202 48.477L231.326 108.222H203.933L171.804 64.0442L159.81 76.4962V108.221H137.008V4.44775Z" fill="#000400"/>
<path d="M219.208 68.9348V68.64C219.208 45.8091 237.568 27.2778 262.295 27.2778C286.874 27.2778 305.087 45.5129 305.087 68.343V68.64C305.087 91.4701 286.726 110 261.999 110C237.42 110 219.208 91.7656 219.208 68.9348ZM282.877 68.9348V68.64C282.877 56.9272 274.437 46.6987 261.999 46.6987C249.117 46.6987 241.418 56.6302 241.418 68.343V68.64C241.418 80.3513 249.858 90.5798 262.295 90.5798C275.177 90.5798 282.877 80.6476 282.877 68.9348Z" fill="#000400"/>
<path d="M311.3 85.6877V48.0326H301.824V28.7613H311.3V8.45019H333.806V28.7606H352.463V48.0326H333.806V81.9822C333.806 87.1698 336.027 89.691 341.062 89.691C344.942 89.7098 348.763 88.7399 352.166 86.8728V104.96C347.428 107.776 341.95 109.555 334.399 109.555C320.629 109.555 311.3 104.07 311.3 85.6877ZM358.923 0H381.429V108.221H358.923V0ZM389.564 0H413.254V20.0134H389.564V0ZM390.158 28.7606H412.663V108.221H390.157L390.158 28.7606ZM421.225 28.7606H443.731V40.0268C448.914 33.3556 455.577 27.2778 466.977 27.2778C484.006 27.2778 493.926 38.5447 493.926 56.7797V108.221H471.419V63.8953C471.419 53.2216 466.385 47.7363 457.797 47.7363C449.208 47.7363 443.731 53.2216 443.731 63.8953V108.221H421.224L421.225 28.7606Z" fill="#000400"/>
<path d="M51.7137 4L0 58.9112V108L51.6387 55.7681L103 4H51.7137Z" fill="url(#paint0_linear)"/>
<path d="M0 108L51.6387 56L103 108H0Z" fill="url(#paint1_linear)"/>
<path d="M0 4H52L0 59V4Z" fill="url(#paint2_linear)"/>
<defs>
<linearGradient id="paint0_linear" x1="-17.341" y1="99.6173" x2="79.4317" y2="3.77434" gradientUnits="userSpaceOnUse">
<stop offset="0.108" stop-color="#C757BC"/>
<stop offset="0.173" stop-color="#CD5CA9"/>
<stop offset="0.492" stop-color="#E8744F"/>
<stop offset="0.716" stop-color="#F88316"/>
<stop offset="0.823" stop-color="#FF8900"/>
</linearGradient>
<linearGradient id="paint1_linear" x1="32.8722" y1="126.68" x2="79.8331" y2="79.9626" gradientUnits="userSpaceOnUse">
<stop offset="0.296" stop-color="#00AFFF"/>
<stop offset="0.694" stop-color="#5282FF"/>
<stop offset="1" stop-color="#945DFF"/>
</linearGradient>
<linearGradient id="paint2_linear" x1="-88.348" y1="2481.42" x2="2383.75" y2="144.162" gradientUnits="userSpaceOnUse">
<stop offset="0.296" stop-color="#00AFFF"/>
<stop offset="0.694" stop-color="#5282FF"/>
<stop offset="1" stop-color="#945DFF"/>
</linearGradient>
</defs>
</svg>
