<svg width="380" height="109" viewBox="0 0 380 109" fill="none" xmlns="http://www.w3.org/2000/svg">
<path fill-rule="evenodd" clip-rule="evenodd" d="M354.218 44.7754C353.875 44.8441 353.532 45.5985 353.532 46.0097C353.464 48.7524 353.395 56.0211 353.395 60.9578C353.395 61.0951 353.6 61.369 353.806 61.369C354.835 61.4377 357.303 61.5063 359.429 61.5063C362.377 61.5063 364.092 61.0951 365.052 60.6838C367.52 59.4495 368.686 56.7749 368.686 53.8263C368.686 47.1754 364.023 44.6381 357.097 44.6381C356.618 44.5701 355.247 44.5701 354.218 44.7754ZM371.909 75.4259C371.909 68.6377 366.903 64.8661 357.852 64.8661C357.441 64.8661 354.561 64.7974 353.875 64.9347C353.669 65.0034 353.395 65.1407 353.395 65.3466C353.395 70.2147 353.326 77.9633 353.532 80.9798C353.669 82.2828 354.629 84.1343 355.795 84.6828C357.029 85.3686 359.841 85.5053 361.76 85.5053C367.177 85.5053 371.909 82.4887 371.909 75.4259ZM340.23 41.0044C340.915 41.0044 342.973 41.2097 348.252 41.2097C353.258 41.2097 357.235 41.073 362.103 41.073C368.069 41.073 376.297 43.1985 376.297 52.1121C376.297 56.501 373.211 59.998 369.166 61.7122C368.96 61.7809 368.96 61.9175 369.166 61.9862C374.925 63.4265 380 66.9922 380 73.7117C380 80.2946 375.886 84.4769 369.92 87.0828C366.286 88.6598 361.76 89.2083 357.166 89.2083C353.669 89.2083 344.276 88.7971 339.064 88.9343C338.516 88.7284 339.544 86.2597 340.024 85.8485C341.258 85.7799 342.218 85.7112 343.521 85.3C345.373 84.8201 345.578 84.2716 345.852 81.4603C345.99 79.0603 345.99 70.5572 345.99 64.5235C345.99 56.2264 346.058 50.6039 345.99 47.8612C345.921 45.7358 345.167 45.05 343.658 44.6381C342.493 44.4328 340.573 44.1582 338.996 43.9529C338.652 43.6097 339.818 41.2783 340.23 41.0044ZM300.665 83.6544C302.311 84.9568 305.534 85.5053 308.414 85.5053C312.117 85.5053 315.819 84.8201 319.385 81.597C323.019 78.3058 325.556 73.2318 325.556 65.1407C325.556 57.3921 322.607 51.0837 316.574 47.3814C313.145 45.2553 308.756 44.3642 303.682 44.3642C302.174 44.3642 300.734 44.4328 299.843 44.8441C299.637 44.9813 299.157 45.5985 299.157 45.9411C299.02 47.3127 299.02 57.8719 299.02 64.0436C299.02 70.4206 299.02 79.3342 299.157 80.3626C299.157 81.3917 299.637 82.9686 300.665 83.6544ZM285.1 41.0044C286.403 41.0044 291.408 41.2097 293.808 41.2097C298.128 41.2097 301.214 41.0044 309.373 41.0044C316.23 41.0044 321.99 42.8559 326.104 46.3523C331.11 50.6725 333.716 56.6382 333.716 63.9063C333.716 74.2603 328.984 80.226 324.253 83.6544C319.522 87.1515 313.35 89.2083 304.574 89.2083C299.911 89.2083 291.889 89.071 285.237 89.0024H285.169C284.826 88.3858 285.717 85.9858 286.266 85.9172C288.048 85.7112 288.528 85.6426 289.42 85.3C290.86 84.7515 291.134 83.997 291.34 81.4603C291.546 76.7289 291.477 71.0378 291.477 64.5921C291.477 59.998 291.546 51.0151 291.408 48.1352C291.203 45.7358 290.175 45.1186 288.117 44.7068C287.089 44.5015 285.717 44.2269 283.798 44.0216C283.523 43.5411 284.757 41.4156 285.1 41.0044Z" fill="#8E714E"/>
<path fill-rule="evenodd" clip-rule="evenodd" d="M202.132 86.3288C200.417 86.1229 199.183 85.8489 197.674 85.1631C197.469 85.0258 197.126 84.3406 197.126 84.0661C196.988 81.666 196.988 74.8092 196.988 70.2151C196.988 66.5121 196.372 63.2896 194.794 61.0268C192.943 58.4209 190.269 56.9126 186.84 56.9126C183.823 56.9126 179.778 58.97 176.418 61.8499C176.349 61.9179 175.801 62.3985 175.869 61.644C175.869 60.8895 176.007 59.3813 176.075 58.3529C176.144 57.3925 175.595 56.9126 175.595 56.9126C173.401 58.0096 167.23 59.4499 164.967 59.6552C163.321 59.9984 162.91 61.5754 164.624 62.1239H164.693C166.544 62.6724 167.778 63.2896 168.738 63.9067C169.424 64.4553 169.355 65.2097 169.355 65.8269C169.424 70.9695 169.424 78.8548 169.218 83.175C169.15 84.8892 168.67 85.5057 167.436 85.7803L167.572 85.7116C166.612 85.9176 165.858 86.1229 164.692 86.2602C164.281 86.6714 164.281 88.8661 164.692 89.346C165.447 89.346 169.424 89.1401 172.715 89.1401C177.241 89.1401 179.572 89.346 180.738 89.346C181.218 88.7975 181.355 86.74 181.081 86.2602C179.778 86.1915 178.818 86.0549 177.927 85.7803C176.692 85.5057 176.349 84.8892 176.281 83.4489C176.144 79.8145 176.144 72.1352 176.144 66.9239C176.144 65.4837 176.555 64.7978 176.966 64.3866C178.543 63.0156 181.081 62.0552 183.343 62.0552C185.537 62.0552 186.978 62.741 188.075 63.6328C189.583 64.8665 190.063 66.6494 190.269 67.9523C190.611 70.9009 190.475 76.7293 190.475 81.8033C190.475 84.5459 190.269 85.2318 189.24 85.5743C188.761 85.7803 187.526 86.0549 186.086 86.1915C185.606 86.6714 185.743 88.7975 186.086 89.2773C188.075 89.2773 190.406 89.0714 193.835 89.0714C198.085 89.0714 200.829 89.2773 201.926 89.2773C202.268 88.8661 202.406 86.8773 202.131 86.3288H202.132ZM221.125 60.1357C217.491 60.1357 215.228 62.947 215.228 67.3352C215.228 71.792 217.216 76.9346 222.839 76.9346C223.799 76.9346 225.582 76.5234 226.405 75.5636C227.708 74.3293 228.599 71.8606 228.599 69.2553C228.599 63.5642 225.787 60.1357 221.125 60.1357ZM220.645 90.443C219.274 90.443 218.313 90.8543 217.697 91.1975C214.816 93.0484 213.514 94.8312 213.514 96.9573C213.514 98.9455 214.268 100.522 215.914 101.894C217.902 103.608 220.645 104.431 224.142 104.431C231.136 104.431 234.222 100.66 234.222 96.9573C234.222 94.3513 232.919 92.6371 230.245 91.6774C228.325 90.8543 224.828 90.443 220.645 90.443ZM221.125 108.271C216.942 108.271 213.925 107.379 211.32 105.391C208.783 103.471 207.686 100.591 207.686 98.6029C207.686 98.0543 207.823 96.5454 209.057 95.1744C209.811 94.3513 211.457 92.7744 215.365 90.1005C215.502 90.0318 215.571 89.9632 215.571 89.8259C215.571 89.6886 215.433 89.5513 215.297 89.4833C212.074 88.2489 211.114 86.2602 210.839 85.1631V85.0258C210.771 84.6146 210.634 84.2034 211.251 83.7915C211.731 83.4489 212.417 83.0377 213.171 82.5578C214.336 81.872 215.571 81.1175 216.325 80.5003C216.463 80.3631 216.463 80.2264 216.463 80.0891C216.463 79.9518 216.325 79.8145 216.188 79.7465C211.389 78.169 208.988 74.6032 208.988 69.2553C208.988 65.7582 210.565 62.6038 213.377 60.6156C215.297 59.1067 220.096 57.2558 223.251 57.2558H223.457C226.679 57.3238 228.462 58.0096 230.999 58.9014C232.37 59.3813 233.673 59.5866 235.456 59.5866C238.13 59.5866 239.296 58.7641 240.256 57.8043C240.324 57.941 240.461 58.2842 240.53 59.1753C240.599 60.0671 240.324 61.3694 239.638 62.3298C239.09 63.0836 237.856 63.6328 236.622 63.6328H236.279C235.044 63.4955 234.496 63.3582 234.496 63.3582L234.222 63.4955C234.153 63.6328 234.222 63.7694 234.29 63.9754L234.359 64.1127C234.496 64.7298 234.77 66.5807 234.77 67.0612C234.77 72.6837 232.508 75.1518 230.108 77.0033C227.776 78.7175 225.102 79.8145 222.085 80.0891C222.016 80.0891 221.742 80.0891 221.125 80.1578C220.782 80.1578 220.302 80.2264 220.234 80.2264H220.165C219.616 80.3631 218.245 81.0489 218.245 82.2146C218.245 83.243 218.863 84.4773 221.81 84.6832C222.428 84.7519 223.045 84.7519 223.731 84.8205C227.639 85.0945 232.508 85.4377 234.77 86.1915C237.924 87.3572 239.913 90.1685 239.913 93.5289C239.913 98.6029 236.279 103.334 230.245 106.282C227.296 107.585 224.348 108.271 221.125 108.271ZM260.21 60.4783C258.769 60.4783 257.466 60.8209 256.507 61.5067C253.833 63.1523 252.461 66.4441 252.461 71.2435C252.461 80.2264 256.986 86.5347 263.432 86.5347C265.352 86.5347 266.861 85.9862 268.163 84.8892C270.152 83.243 271.181 79.9518 271.181 75.3577C271.181 66.4441 266.723 60.4783 260.21 60.4783ZM261.444 89.8259C249.787 89.8259 245.604 81.2548 245.604 73.2323C245.604 67.6097 247.867 63.2896 252.392 60.2037C255.615 58.2156 259.455 57.1185 262.884 57.1185C271.797 57.1185 278.038 63.4955 278.038 72.6837C278.038 78.9234 275.569 83.8601 270.837 86.8773C268.575 88.3856 264.666 89.8259 261.443 89.8259H261.444ZM139.254 60.4783C137.813 60.4783 136.511 60.8209 135.551 61.5067C132.877 63.1523 131.505 66.4441 131.505 71.2435C131.505 80.2264 136.031 86.5347 142.476 86.5347C144.396 86.5347 145.905 85.9862 147.208 84.8892C149.196 83.243 150.225 79.9518 150.225 75.3577C150.225 66.4441 145.836 60.4783 139.254 60.4783ZM140.488 89.8259C128.831 89.8259 124.648 81.2548 124.648 73.2323C124.648 67.6097 126.911 63.2896 131.436 60.2037C134.66 58.2156 138.499 57.1185 141.928 57.1185C150.842 57.1185 157.082 63.4955 157.082 72.6837C157.082 78.9234 154.613 83.8601 149.882 86.8773C147.687 88.3856 143.779 89.8259 140.488 89.8259ZM62.1134 89.1401C61.9762 88.9348 61.8389 88.3176 61.9075 87.5631C61.9075 87.0146 62.0448 86.6714 62.1134 86.5347C63.5531 86.3288 64.3075 86.1229 65.13 85.9176C66.5016 85.5743 67.0501 84.8205 67.1188 83.1063C67.3247 78.9921 67.3247 71.1748 67.2561 65.7582V65.621C67.2561 65.0038 67.2561 64.2493 66.5016 63.7008C65.4046 63.0156 64.1016 62.3985 62.3874 61.9179C61.7702 61.7127 61.359 61.3694 61.4276 60.9582C61.4276 60.547 61.8389 60.0671 62.7306 59.9298C64.9934 59.7239 70.8898 58.2842 73.2212 57.2558C73.3585 57.3925 73.5644 57.8043 73.5644 58.3529L73.4958 59.1067C73.4271 59.8611 73.3585 60.7529 73.3585 61.644C73.3585 61.9179 73.6331 62.1239 73.907 62.1239C74.0443 62.1239 74.1816 62.0552 74.3189 61.9866C78.7071 58.5582 82.684 57.3238 84.7408 57.3238C88.1012 57.3238 90.7065 58.9014 92.6953 62.1925C92.832 62.3985 92.9693 62.4665 93.1752 62.4665C93.3125 62.4665 93.5178 62.3985 93.5864 62.2612C97.632 59.1753 101.678 57.3238 104.352 57.3238C110.729 57.3238 114.5 62.0552 114.5 70.0778C114.5 72.3405 114.5 75.2891 114.432 77.9637C114.432 80.3631 114.363 82.5578 114.363 84.1347C114.363 84.4773 114.843 85.5743 115.597 85.7803C116.557 86.2602 117.86 86.4661 119.574 86.74H119.643C119.78 87.2199 119.506 89.0028 119.232 89.346C118.82 89.346 118.203 89.346 117.517 89.2773C116.214 89.2087 114.363 89.1401 112.306 89.1401C108.055 89.1401 105.861 89.2087 103.734 89.346C103.598 88.7975 103.529 87.1519 103.734 86.74C104.969 86.5347 105.586 86.3288 106.34 86.1229C107.712 85.7116 108.055 85.0945 108.123 83.3116C108.123 82.0093 108.397 70.9009 107.986 68.2263C107.575 65.4837 105.517 62.2612 100.992 62.2612C99.2776 62.2612 96.6036 62.947 93.9977 64.9351C93.861 65.0724 93.7237 65.415 93.7237 65.621V65.6896C93.9977 67.1292 93.9977 68.7754 93.9977 71.3121V75.7689C93.9977 78.8548 93.929 81.7347 93.9977 83.9288C93.9977 85.4377 94.8894 85.7803 95.6439 86.0549C96.0551 86.1229 96.3291 86.1915 96.6723 86.2602C97.2895 86.3974 97.9066 86.5347 98.8664 86.74C99.0037 87.0146 99.0037 87.9057 98.7977 88.6602C98.7291 89.0714 98.5918 89.2773 98.5238 89.346C96.1924 89.2773 93.7924 89.2087 90.2953 89.2087C89.2669 89.2087 87.484 89.2773 85.9751 89.2773C84.7408 89.2773 83.5751 89.346 82.8899 89.346C82.8213 89.2087 82.684 88.7288 82.684 87.9744C82.684 87.3572 82.8213 86.8773 82.9586 86.74C83.3012 86.6714 83.5751 86.6034 83.9183 86.6034C84.7408 86.4661 85.4266 86.3288 86.1124 86.1915C87.2781 85.8489 87.6893 85.2318 87.758 83.7235C87.9639 80.2951 88.1692 70.4897 87.6893 68.021C86.8669 64.044 84.6042 62.0552 80.9698 62.0552C78.8443 62.0552 76.1697 63.0836 73.9756 64.7298C73.6331 65.0038 73.3585 65.6896 73.3585 66.3068V70.3524C73.3585 75.2891 73.3585 81.4607 73.4271 84.1347C73.4958 84.9572 73.7697 85.9176 75.3473 86.2602C75.6899 86.3288 76.2384 86.4661 76.9242 86.5347L78.1585 86.74C78.2958 87.1519 78.2272 88.7975 77.9526 89.346C77.2668 89.346 76.4443 89.2773 75.4839 89.2773C74.0443 89.2087 72.1928 89.1401 70.136 89.1401C67.736 89.1401 66.0217 89.2087 64.6501 89.2773C63.6904 89.1401 62.9359 89.1401 62.1134 89.1401Z" fill="#442D22"/>
<path fill-rule="evenodd" clip-rule="evenodd" d="M26.046 105.596L23.2348 104.636C23.2348 104.636 23.578 90.3051 18.4354 89.2767C15.007 85.2998 18.9839 -79.4032 31.326 88.7282C31.326 88.7282 27.0751 90.8537 26.3206 94.488C25.4975 98.0537 26.046 105.596 26.046 105.596Z" fill="white"/>
<path fill-rule="evenodd" clip-rule="evenodd" d="M26.046 105.596L23.2348 104.636C23.2348 104.636 23.578 90.3051 18.4354 89.2767C15.007 85.2998 18.9839 -79.4032 31.326 88.7282C31.326 88.7282 27.0751 90.8537 26.3206 94.488C25.4975 98.0537 26.046 105.596 26.046 105.596Z" fill="#A6A385"/>
<path fill-rule="evenodd" clip-rule="evenodd" d="M27.5548 91.746C27.5548 91.746 52.1709 75.5636 46.4111 41.8959C40.8573 17.417 27.7601 9.39449 26.3205 6.30865C24.7435 4.11456 23.2346 0.274902 23.2346 0.274902L24.2637 68.3635C24.2637 68.4322 22.1376 89.2087 27.5548 91.746Z" fill="white"/>
<path fill-rule="evenodd" clip-rule="evenodd" d="M27.5548 91.746C27.5548 91.746 52.1709 75.5636 46.4111 41.8959C40.8573 17.417 27.7601 9.39449 26.3205 6.30865C24.7435 4.11456 23.2346 0.274902 23.2346 0.274902L24.2637 68.3635C24.2637 68.4322 22.1376 89.2087 27.5548 91.746Z" fill="#499D4A"/>
<path fill-rule="evenodd" clip-rule="evenodd" d="M21.795 92.6368C21.795 92.6368 -1.31289 76.8656 0.0587325 49.0956C1.36107 21.325 17.6807 7.67996 20.8346 5.21128C22.892 3.01719 22.9607 2.19409 23.098 0C24.5376 3.08584 24.2636 46.1471 24.4689 51.2211C25.0861 70.7632 23.3719 88.9344 21.795 92.6368Z" fill="white"/>
<path fill-rule="evenodd" clip-rule="evenodd" d="M21.795 92.6368C21.795 92.6368 -1.31289 76.8656 0.0587325 49.0956C1.36107 21.325 17.6807 7.67996 20.8346 5.21128C22.892 3.01719 22.9607 2.19409 23.098 0C24.5376 3.08584 24.2636 46.1471 24.4689 51.2211C25.0861 70.7632 23.3719 88.9344 21.795 92.6368Z" fill="#58AA50"/>
</svg>
