<svg width="252" height="154" viewBox="0 0 252 154" fill="none" xmlns="http://www.w3.org/2000/svg">
<path d="M124.382 154C123.53 154 122.734 153.773 121.995 153.375L114.434 148.884C113.297 148.258 113.866 148.031 114.207 147.917C115.742 147.406 116.026 147.292 117.618 146.383C117.788 146.269 118.016 146.326 118.186 146.439L123.985 149.907C124.212 150.021 124.496 150.021 124.666 149.907L147.349 136.775C147.576 136.662 147.69 136.434 147.69 136.15V109.944C147.69 109.659 147.576 109.432 147.349 109.318L124.666 96.2432C124.439 96.129 124.155 96.129 123.985 96.2432L101.302 109.318C101.075 109.432 100.961 109.716 100.961 109.943V136.15C100.961 136.377 101.075 136.661 101.302 136.775L107.499 140.357C110.853 142.062 112.956 140.072 112.956 138.083V112.217C112.956 111.876 113.24 111.535 113.638 111.535H116.537C116.879 111.535 117.22 111.819 117.22 112.217V138.083C117.22 142.573 114.775 145.189 110.512 145.189C109.204 145.189 108.181 145.189 105.282 143.767L99.3128 140.357C97.8348 139.504 96.9253 137.912 96.9253 136.207V110C96.9253 108.295 97.8348 106.703 99.3128 105.85L121.995 92.7185C123.416 91.9226 125.349 91.9226 126.77 92.7185L149.452 105.85C150.93 106.703 151.84 108.295 151.84 110V136.207C151.84 137.912 150.93 139.504 149.452 140.357L126.77 153.488C126.031 153.83 125.178 154 124.383 154H124.382ZM131.374 135.979C121.427 135.979 119.38 131.432 119.38 127.566C119.38 127.225 119.664 126.884 120.062 126.884H123.018C123.359 126.884 123.643 127.111 123.643 127.452C124.098 130.465 125.406 131.943 131.432 131.943C136.207 131.943 138.254 130.863 138.254 128.305C138.254 126.827 137.685 125.747 130.238 125.008C124.041 124.382 120.176 123.018 120.176 118.073C120.176 113.468 124.042 110.739 130.522 110.739C137.798 110.739 141.38 113.241 141.835 118.697C141.835 118.868 141.778 119.039 141.664 119.209C141.55 119.323 141.38 119.437 141.209 119.437H138.253C137.969 119.437 137.685 119.209 137.628 118.925C136.946 115.799 135.183 114.775 130.522 114.775C125.292 114.775 124.666 116.595 124.666 117.958C124.666 119.607 125.406 120.119 132.455 121.028C139.447 121.938 142.744 123.246 142.744 128.134C142.687 133.137 138.595 135.979 131.374 135.979Z" fill="#539E43"/>
<path d="M54.0053 51.5042C54.0053 50.4812 53.4367 49.5142 52.5272 49.0026L28.4239 35.132C28.0255 34.9043 27.571 34.7907 27.1165 34.7336H26.8888C26.4343 34.7336 25.9793 34.9043 25.5814 35.132L1.47805 49.0026C0.568104 49.5142 0 50.4807 0 51.5042L0.0570563 88.796C0.0570563 89.3075 0.341354 89.819 0.795837 90.0468C1.25081 90.3311 1.81892 90.3311 2.21733 90.0468L16.5429 81.8607C17.4523 81.3491 18.0209 80.3826 18.0209 79.3595V61.9072C18.0209 60.8841 18.589 59.9176 19.499 59.4061L25.5814 55.8814C26.0364 55.5971 26.5479 55.4829 27.0594 55.4829C27.571 55.4829 28.0825 55.5971 28.4809 55.8814L34.5633 59.4061C35.4733 59.9176 36.0414 60.8836 36.0414 61.9072V79.3595C36.0414 80.3826 36.61 81.3491 37.5194 81.8607L51.845 90.0468C52.3 90.3311 52.8681 90.3311 53.323 90.0468C53.778 89.819 54.0623 89.3075 54.0623 88.796L54.0053 51.5042ZM169.861 0.1708C169.406 -0.0569333 168.837 -0.0569333 168.439 0.1708C167.985 0.455098 167.7 0.909581 167.7 1.42112V38.3725C167.7 38.7133 167.53 39.0542 167.189 39.2819C166.848 39.4521 166.507 39.4521 166.166 39.2819L160.14 35.8143C159.698 35.5627 159.198 35.4305 158.69 35.4305C158.182 35.4305 157.682 35.5627 157.24 35.8143L133.137 49.7419C132.227 50.2534 131.659 51.22 131.659 52.243V80.0412C131.659 81.0643 132.227 82.0313 133.137 82.5429L157.24 96.4705C157.682 96.7221 158.182 96.8543 158.69 96.8543C159.198 96.8543 159.698 96.7221 160.14 96.4705L184.243 82.5429C185.153 82.0313 185.721 81.0648 185.721 80.0412V10.7444C185.721 9.66428 185.153 8.69826 184.243 8.18623L169.861 0.1708H169.861ZM167.644 70.8891C167.644 71.1734 167.53 71.4007 167.302 71.5143L159.06 76.2893C158.945 76.3455 158.818 76.3747 158.69 76.3747C158.562 76.3747 158.436 76.3455 158.32 76.2893L150.078 71.5143C149.85 71.4007 149.736 71.1164 149.736 70.8891V61.3386C149.736 61.0543 149.85 60.8271 150.078 60.7134L158.32 55.9379C158.436 55.8818 158.562 55.8526 158.69 55.8526C158.818 55.8526 158.945 55.8818 159.06 55.9379L167.302 60.7134C167.53 60.8266 167.644 61.1114 167.644 61.3386V70.8891ZM250.072 61.1114C250.982 60.5998 251.494 59.6333 251.494 58.6097V51.8451C251.494 50.822 250.925 49.8555 250.072 49.344L226.14 35.4734C225.698 35.222 225.198 35.0897 224.69 35.0897C224.182 35.0897 223.682 35.222 223.241 35.4734L199.137 49.4005C198.227 49.9121 197.659 50.8786 197.659 51.9022V79.7004C197.659 80.7235 198.227 81.69 199.137 82.2015L223.07 95.8449C223.98 96.3564 225.06 96.3564 225.912 95.8449L240.408 87.7734C240.863 87.5456 241.147 87.0341 241.147 86.5226C241.147 86.011 240.863 85.4995 240.408 85.2717L216.191 71.3441C215.737 71.0603 215.452 70.6053 215.452 70.0938V61.3961C215.452 60.8846 215.737 60.3731 216.191 60.1453L223.752 55.8248C223.973 55.6855 224.23 55.6116 224.491 55.6116C224.753 55.6116 225.009 55.6855 225.23 55.8248L232.791 60.1453C233.246 60.4296 233.53 60.8841 233.53 61.3961V68.2178C233.53 68.7293 233.814 69.2409 234.269 69.4681C234.724 69.7524 235.292 69.7524 235.747 69.4681L250.072 61.1114Z" fill="#333333"/>
<path d="M224.321 59.8039C224.405 59.7483 224.504 59.7188 224.605 59.7188C224.706 59.7188 224.804 59.7483 224.889 59.8039L229.494 62.4757C229.664 62.5888 229.778 62.7595 229.778 62.9872V68.3308C229.778 68.5581 229.664 68.7288 229.494 68.8424L224.889 71.5142C224.804 71.5697 224.706 71.5993 224.605 71.5993C224.504 71.5993 224.405 71.5697 224.321 71.5142L219.716 68.8424C219.545 68.7288 219.432 68.5581 219.432 68.3308V62.9872C219.432 62.7595 219.545 62.5888 219.716 62.4757L224.321 59.8039Z" fill="#539E43"/>
<mask id="mask0" mask-type="alpha" maskUnits="userSpaceOnUse" x="66" y="35" width="54" height="62">
<path d="M94.3102 35.5868C93.8685 35.3353 93.3689 35.2031 92.8607 35.2031C92.3524 35.2031 91.8529 35.3353 91.4111 35.5868L67.4785 49.3998C66.5685 49.9114 66.057 50.8779 66.057 51.901V79.5861C66.057 80.6091 66.6256 81.5756 67.4785 82.0872L91.4111 95.9012C91.8529 96.1526 92.3524 96.2849 92.8607 96.2849C93.3689 96.2849 93.8685 96.1526 94.3102 95.9012L118.243 82.0872C119.153 81.5756 119.665 80.6091 119.665 79.5861V51.9014C119.665 50.8784 119.096 49.9119 118.243 49.4003L94.3102 35.5868Z" fill="white"/>
</mask>
<g mask="url(#mask0)">
<path d="M94.3102 35.5868C93.8685 35.3353 93.3689 35.2031 92.8607 35.2031C92.3524 35.2031 91.8529 35.3353 91.4111 35.5868L67.4785 49.3998C66.5685 49.9114 66.057 50.8779 66.057 51.901V79.5861C66.057 80.6091 66.6256 81.5756 67.4785 82.0872L91.4111 95.9012C91.8529 96.1526 92.3524 96.2849 92.8607 96.2849C93.3689 96.2849 93.8685 96.1526 94.3102 95.9012L118.243 82.0872C119.153 81.5756 119.665 80.6091 119.665 79.5861V51.9014C119.665 50.8784 119.096 49.9119 118.243 49.4003L94.3102 35.5868Z" fill="url(#paint0_linear)"/>
<path d="M118.3 49.4006L94.2536 35.587C94.0173 35.4677 93.7696 35.3725 93.5143 35.3027L66.5685 81.4632C66.7917 81.7358 67.0613 81.9667 67.3648 82.1455L91.4111 95.9595C92.0933 96.3574 92.8891 96.471 93.6279 96.2433L118.925 49.9696C118.755 49.7424 118.527 49.5712 118.3 49.401V49.4006Z" fill="url(#paint1_linear)"/>
<path fill-rule="evenodd" clip-rule="evenodd" d="M118.357 82.0883C119.039 81.6904 119.551 81.0082 119.778 80.2694L93.4002 35.2461C92.7179 35.1325 91.9787 35.189 91.354 35.5869L67.4779 49.3444L93.2295 96.3002C93.604 96.2389 93.9677 96.1241 94.3096 95.9594L118.356 82.0888L118.357 82.0883Z" fill="url(#paint2_linear)"/>
<path fill-rule="evenodd" clip-rule="evenodd" d="M118.357 82.0884L94.3674 95.9024C94.0287 96.0751 93.6637 96.1903 93.2872 96.2433L93.7422 97.0961L120.347 81.6909V81.3496L119.664 80.2124C119.551 81.0082 119.039 81.6905 118.357 82.0884Z" fill="url(#paint3_linear)"/>
<path fill-rule="evenodd" clip-rule="evenodd" d="M118.357 82.0884L94.3674 95.9024C94.0287 96.0751 93.6637 96.1903 93.2872 96.2433L93.7422 97.0961L120.347 81.6909V81.3496L119.664 80.2124C119.551 81.0082 119.039 81.6905 118.357 82.0884Z" fill="url(#paint4_linear)"/>
</g>
<defs>
<linearGradient id="paint0_linear" x1="102.611" y1="45.8845" x2="76.3786" y2="87.1035" gradientUnits="userSpaceOnUse">
<stop stop-color="#41873F"/>
<stop offset="0.3288" stop-color="#418B3D"/>
<stop offset="0.6352" stop-color="#419637"/>
<stop offset="0.9319" stop-color="#3FA92D"/>
<stop offset="1" stop-color="#3FAE2A"/>
</linearGradient>
<linearGradient id="paint1_linear" x1="89.227" y1="68.9871" x2="154.925" y2="33.2931" gradientUnits="userSpaceOnUse">
<stop offset="0.1376" stop-color="#41873F"/>
<stop offset="0.4032" stop-color="#54A044"/>
<stop offset="0.7136" stop-color="#66B848"/>
<stop offset="0.9081" stop-color="#6CC04A"/>
</linearGradient>
<linearGradient id="paint2_linear" x1="65.1824" y1="65.7455" x2="120.562" y2="65.7455" gradientUnits="userSpaceOnUse">
<stop offset="0.09192" stop-color="#6CC04A"/>
<stop offset="0.2864" stop-color="#66B848"/>
<stop offset="0.5968" stop-color="#54A044"/>
<stop offset="0.8624" stop-color="#41873F"/>
</linearGradient>
<linearGradient id="paint3_linear" x1="65.183" y1="88.7007" x2="120.562" y2="88.7007" gradientUnits="userSpaceOnUse">
<stop offset="0.09192" stop-color="#6CC04A"/>
<stop offset="0.2864" stop-color="#66B848"/>
<stop offset="0.5968" stop-color="#54A044"/>
<stop offset="0.8624" stop-color="#41873F"/>
</linearGradient>
<linearGradient id="paint4_linear" x1="128.63" y1="44.5761" x2="114.601" y2="118.091" gradientUnits="userSpaceOnUse">
<stop stop-color="#41873F"/>
<stop offset="0.3288" stop-color="#418B3D"/>
<stop offset="0.6352" stop-color="#419637"/>
<stop offset="0.9319" stop-color="#3FA92D"/>
<stop offset="1" stop-color="#3FAE2A"/>
</linearGradient>
</defs>
</svg>
