<svg width="430" height="105" viewBox="0 0 430 105" fill="none" xmlns="http://www.w3.org/2000/svg">
<path d="M162.174 53.149C162.174 39.9297 158.371 33.2295 150.856 32.8674C147.868 32.6863 144.971 33.2295 142.073 34.316C139.81 35.1309 138.271 35.9458 137.456 36.7607V68.2697C142.254 71.2576 146.51 72.7063 150.222 72.4346C158.281 71.8008 162.174 65.3723 162.174 53.149ZM171.5 53.6922C171.5 60.3924 169.961 65.9155 166.792 70.3521C163.26 75.332 158.371 77.9578 152.124 78.0483C147.415 78.2294 142.617 76.6902 137.546 73.6117V102.223L129.488 99.3259V35.8553C130.846 34.2255 132.476 32.8674 134.558 31.6903C139.357 28.8835 145.152 27.4348 152.033 27.3442L152.124 27.4348C158.371 27.3442 163.26 29.97 166.611 35.1309C169.87 40.0203 171.5 46.1772 171.5 53.6922Z" fill="#646464"/>
<path d="M220.755 72.4346C220.755 81.3984 219.85 87.6458 218.039 91.0865C216.228 94.5271 212.788 97.334 207.717 99.3259C203.552 100.956 199.116 101.861 194.317 101.952L192.959 96.8812C197.848 96.2474 201.289 95.5231 203.19 94.8893C207.083 93.5312 209.8 91.5392 211.248 88.8229C212.425 86.6499 212.969 82.3944 212.969 76.1469V74.0644C207.446 76.5996 201.651 77.7767 195.584 77.7767C191.6 77.7767 188.069 76.5091 185.081 74.0644C181.731 71.3481 180.011 67.9075 180.011 63.652V30.1511L188.069 27.3442V61.1168C188.069 64.7385 189.246 67.5453 191.6 69.4467C193.955 71.4387 196.943 72.3441 200.655 72.2536C204.367 72.163 208.351 70.7143 212.516 67.9075V28.6118H220.574V72.4346H220.755Z" fill="#646464"/>
<path d="M252.264 77.5952C251.268 77.6857 250.453 77.6857 249.639 77.6857C245.111 77.6857 241.49 76.5992 238.954 74.4262C236.419 72.2531 235.152 69.2652 235.152 65.3719V33.6818H229.629V28.6114H235.152V15.1205L243.21 12.2231V28.6114H252.264V33.6818H243.21V65.1908C243.21 68.1787 244.025 70.3517 245.655 71.6193C247.013 72.6153 249.276 73.2491 252.264 73.4302V77.5952Z" fill="#646464"/>
<path d="M301.067 76.9615H293.009V45.8147C293.009 42.6457 292.284 39.9294 290.836 37.6659C289.115 35.1307 286.761 33.7725 283.773 33.7725C280.061 33.7725 275.443 35.7645 269.92 39.6578V76.9615H261.771V2.5352L269.83 0V33.8631C274.991 30.1508 280.604 28.2494 286.761 28.2494C291.017 28.2494 294.457 29.6981 297.174 32.5955C299.799 35.4928 301.157 39.024 301.157 43.2795V76.9615H301.067Z" fill="#646464"/>
<path d="M343.984 51.8814C343.984 46.811 342.988 42.646 341.087 39.2959C338.823 35.2215 335.292 33.139 330.493 32.9579C321.62 33.5012 317.274 39.8392 317.274 51.9719C317.274 57.5856 318.179 62.2033 320.081 65.9155C322.435 70.7143 325.966 72.9779 330.765 72.9779C339.548 72.7968 343.984 65.825 343.984 51.8814ZM352.767 51.8814C352.767 59.1248 350.956 65.1007 347.244 69.8994C343.169 75.2415 337.556 77.9578 330.493 77.9578C323.431 77.9578 317.908 75.2415 313.924 69.8994C310.302 65.1007 308.491 59.1248 308.491 51.8814C308.491 45.0907 310.483 39.3865 314.377 34.7688C318.542 29.8794 323.884 27.3442 330.584 27.3442C337.284 27.3442 342.717 29.7889 346.972 34.7688C350.865 39.3865 352.767 45.0907 352.767 51.8814Z" fill="#646464"/>
<path d="M399.034 76.9618H390.976V44.0947C390.976 40.473 389.89 37.6661 387.717 35.6742C385.543 33.6822 382.646 32.6863 379.024 32.7768C375.222 32.8674 371.509 34.135 368.069 36.4891V76.9618H360.01V35.4026C364.628 32.0525 368.884 29.7889 372.867 28.7929C376.58 27.797 379.839 27.3442 382.556 27.3442C384.457 27.3442 386.268 27.5253 387.988 27.8875C391.157 28.6118 393.692 29.97 395.684 31.9619C397.857 34.135 399.034 36.8512 399.034 39.9297V76.9618Z" fill="#646464"/>
<path d="M49.8101 2.80713C45.6451 2.80713 41.6612 3.1693 38.2206 3.8031C27.9893 5.61396 26.0879 9.41677 26.0879 16.3886V25.624H50.3534V28.7024H26.0879H16.943C9.88067 28.7024 3.72375 32.9579 1.7318 41.0163C-0.531774 50.2516 -0.622316 56.0464 1.7318 65.7345C3.45212 72.8874 7.61709 78.0483 14.5889 78.0483H22.9189V67.0021C22.9189 58.9438 29.8907 51.8814 38.1301 51.8814H62.3956C69.1863 51.8814 74.5283 46.3583 74.5283 39.5676V16.4791C74.5283 9.86948 69.0052 4.98016 62.3956 3.89364C58.3212 3.1693 53.9751 2.80713 49.8101 2.80713ZM36.6814 10.3222C39.2166 10.3222 41.2085 12.4047 41.2085 14.9399C41.2085 17.4751 39.126 19.5576 36.6814 19.5576C34.1462 19.5576 32.1542 17.4751 32.1542 14.9399C32.1542 12.4047 34.1462 10.3222 36.6814 10.3222Z" fill="url(#paint0_linear)"/>
<path d="M77.6068 28.7927V39.5673C77.6068 47.8973 70.5445 54.9596 62.3956 54.9596H38.2206C31.611 54.9596 26.0879 60.6638 26.0879 67.2735V90.3619C26.0879 96.9715 31.7921 100.774 38.2206 102.676C45.9168 104.939 53.2508 105.301 62.4862 102.676C68.6431 100.865 74.6189 97.3337 74.6189 90.3619V81.1265H50.3534V78.0481H74.6189H86.7517C93.814 78.0481 96.4398 73.1587 98.8844 65.7342C101.42 58.1286 101.329 50.7946 98.8844 41.016C97.1641 33.9536 93.814 28.7021 86.7517 28.7021H77.6068V28.7927ZM64.0254 87.2834C66.5606 87.2834 68.5525 89.3659 68.5525 91.9011C68.5525 94.4363 66.4701 96.5188 64.0254 96.5188C61.4902 96.5188 59.4982 94.4363 59.4982 91.9011C59.4077 89.3659 61.4902 87.2834 64.0254 87.2834Z" fill="url(#paint1_linear)"/>
<path d="M414.789 21.3684H416.237V12.4952H419.587V11.4087H411.439V12.4952H414.789V21.3684ZM420.765 21.3684H421.942V13.3101L424.567 21.3684H425.925L428.642 13.3101V21.3684H430V11.4087H428.28L425.292 19.9197L422.756 11.4087H420.765V21.3684Z" fill="#646464"/>
<defs>
<linearGradient id="paint0_linear" x1="-2.36575" y1="5.73319" x2="53.6186" y2="53.4338" gradientUnits="userSpaceOnUse">
<stop stop-color="#5A9FD4"/>
<stop offset="1" stop-color="#306998"/>
</linearGradient>
<linearGradient id="paint1_linear" x1="74.6248" y1="83.1639" x2="54.5396" y2="55.022" gradientUnits="userSpaceOnUse">
<stop stop-color="#FFD43B"/>
<stop offset="1" stop-color="#FFE873"/>
</linearGradient>
</defs>
</svg>
