<svg width="711" height="180" viewBox="0 0 711 180" fill="none" xmlns="http://www.w3.org/2000/svg">
<path d="M639.5 180L711 71H568L639.5 180Z" fill="#FFF735"/>
<path d="M300.075 54.5H229.925L265 0.912976L300.075 54.5Z" fill="white" stroke="black"/>
<path d="M228.923 33L243 11H215L228.923 33Z" fill="#FFF735"/>
<path d="M573.5 40L540 91H607L573.5 40Z" fill="#313335"/>
<path d="M11.5 115L0 132H23L11.5 115Z" fill="#313335"/>
<path d="M608.687 61.7566L572.141 116.062L572.668 116.416L609.214 62.1114L608.687 61.7566Z" fill="#FFF735"/>
<path d="M605.85 57.5364L569.304 111.841L569.831 112.196L606.377 57.8912L605.85 57.5364Z" fill="#FFF735"/>
<path d="M603.195 53.2745L566.655 107.586L567.183 107.941L603.722 53.6292L603.195 53.2745Z" fill="#FFF735"/>
<path d="M600.464 49.1258L563.924 103.437L564.452 103.792L600.991 49.4805L600.464 49.1258Z" fill="#FFF735"/>
</svg>
