<svg width="1092" height="303" viewBox="0 0 1092 303" fill="none" xmlns="http://www.w3.org/2000/svg">
<path d="M594 209L537 297H651L594 209Z" fill="#FFF735"/>
<path d="M614.5 221L635 191L594 191L614.5 221Z" fill="#171717"/>
<path d="M629 213L618 229H640L629 213Z" fill="#171717"/>
<path d="M952.5 220L1071 39.0001L834 39.0001L952.5 220Z" fill="#171717"/>
<path opacity="0.8" d="M1091.08 190.5L984.922 190.5L1038 108.917L1091.08 190.5Z" stroke="#313335"/>
<path d="M936.39 170.159L938.031 169.088L876.513 74.7954L874.871 75.8663L936.39 170.159Z" fill="white"/>
<path d="M953.221 93.6499L1015.84 0.60791L1014.93 -2.59766e-06L952.318 93.042L953.221 93.6499Z" fill="#FFF735"/>
<path d="M958.084 100.88L1020.7 7.83838L1019.8 7.23047L957.181 100.272L958.084 100.88Z" fill="#FFF735"/>
<path d="M962.631 108.183L1025.23 15.1294L1024.33 14.5216L961.727 107.575L962.631 108.183Z" fill="#FFF735"/>
<path d="M967.314 115.291L1029.92 22.2375L1029.01 21.6297L966.411 114.683L967.314 115.291Z" fill="#FFF735"/>
<path opacity="0.2" d="M0.873245 280.5L26.1268 280.5L13.5 302.012L0.873245 280.5Z" stroke="#171717"/>
<path d="M370.5 9L345 50L396 50L370.5 9Z" fill="white"/>
</svg>
