<svg width="555" height="297" viewBox="0 0 555 297" fill="none" xmlns="http://www.w3.org/2000/svg">
<path d="M57 209L0 297H114L57 209Z" fill="#FFF735"/>
<path d="M77.5 221L98 191L57 191L77.5 221Z" fill="#171717"/>
<path d="M92 213L81 229H103L92 213Z" fill="#171717"/>
<path d="M415.5 220L534 39.0001L297 39.0001L415.5 220Z" fill="#171717"/>
<path opacity="0.8" d="M554.078 190.5L447.922 190.5L501 108.917L554.078 190.5Z" stroke="#313335"/>
<path d="M399.39 170.159L401.031 169.088L339.513 74.7954L337.871 75.8663L399.39 170.159Z" fill="white"/>
<path d="M416.221 93.6499L478.836 0.60791L477.933 -2.59766e-06L415.318 93.042L416.221 93.6499Z" fill="#FFF735"/>
<path d="M421.084 100.88L483.699 7.83838L482.796 7.23047L420.181 100.272L421.084 100.88Z" fill="#FFF735"/>
<path d="M425.631 108.183L488.234 15.1294L487.331 14.5216L424.727 107.575L425.631 108.183Z" fill="#FFF735"/>
<path d="M430.314 115.291L492.918 22.2375L492.015 21.6297L429.411 114.683L430.314 115.291Z" fill="#FFF735"/>
</svg>
