<svg width="192" height="297" viewBox="0 0 192 297" fill="none" xmlns="http://www.w3.org/2000/svg">
<path d="M115.547 153.411H0.925612L58.2364 65.9823L115.547 153.411Z" fill="white" stroke="black"/>
<path d="M32.2384 72.4985L4.16016 115.582H60.3167L32.2384 72.4985Z" fill="#313335"/>
<path d="M66.3427 89.5733L65.5391 90.0977L95.6596 136.265L96.4633 135.741L66.3427 89.5733Z" fill="#313335"/>
<path d="M62.1223 90.7689L31.4648 136.324L31.9071 136.622L62.5646 91.0665L62.1223 90.7689Z" fill="#FFF735"/>
<path d="M59.7434 87.2286L29.0859 132.784L29.5282 133.081L60.1857 87.5262L59.7434 87.2286Z" fill="#FFF735"/>
<path d="M57.5192 83.6534L26.8672 129.214L27.3095 129.512L57.9615 83.951L57.5192 83.6534Z" fill="#FFF735"/>
<path d="M55.2262 80.173L24.5742 125.734L25.0166 126.031L55.6685 80.4706L55.2262 80.173Z" fill="#FFF735"/>
<path d="M135.933 102.508L185.998 26.147H85.8672L135.933 102.508Z" fill="white"/>
<path d="M154.208 0L143.512 16.3419H164.905L154.208 0Z" fill="#313335"/>
<path d="M184.449 6.47009L121.32 103.844L122.505 104.612L185.634 7.23787L184.449 6.47009Z" fill="#313335"/>
<path d="M234.236 297L130 133.993L211.546 16L318 180.712L234.236 297Z" fill="#E9E9EB"/>
<path d="M235.246 223.461L186.227 296.301L186.934 296.777L235.953 223.937L235.246 223.461Z" fill="#7F858A"/>
<path d="M231.582 217.896L182.562 290.736L183.27 291.212L232.289 218.372L231.582 217.896Z" fill="#7F858A"/>
<path d="M227.878 212.078L178.867 284.927L179.574 285.403L228.585 212.554L227.878 212.078Z" fill="#7F858A"/>
<path d="M224.218 206.514L175.207 279.362L175.914 279.838L224.925 206.99L224.218 206.514Z" fill="#7F858A"/>
</svg>
