<svg width="960" height="974" viewBox="0 0 960 974" fill="none" xmlns="http://www.w3.org/2000/svg">
<path d="M556.074 517.5H165.926L361 219.912L556.074 517.5Z" fill="white" stroke="black"/>
<path d="M273.5 244L179 389H368L273.5 244Z" fill="#313335"/>
<path d="M388.283 301.467L385.578 303.232L486.952 458.613L489.656 456.848L388.283 301.467Z" fill="#313335"/>
<path d="M374.075 305.491L270.895 458.811L272.383 459.813L375.564 306.493L374.075 305.491Z" fill="#FFF735"/>
<path d="M366.067 293.576L262.887 446.896L264.375 447.898L367.556 294.578L366.067 293.576Z" fill="#FFF735"/>
<path d="M358.572 281.543L255.41 434.882L256.899 435.883L360.061 282.545L358.572 281.543Z" fill="#FFF735"/>
<path d="M350.861 269.83L247.699 423.168L249.188 424.17L352.35 270.832L350.861 269.83Z" fill="#FFF735"/>
<path d="M622.5 345L791 88H454L622.5 345Z" fill="white"/>
<path d="M684 0L648 55H720L684 0Z" fill="#313335"/>
<path d="M785.783 21.7759L573.316 349.497L577.302 352.081L789.769 24.3599L785.783 21.7759Z" fill="#313335"/>
<path d="M1086.08 973.53L729.02 414.316L1008.36 9.52954L1373.02 574.593L1086.08 973.53Z" fill="#E9E9EB"/>
<path d="M1089.58 721.097L921.453 970.929L923.879 972.562L1092.01 722.73L1089.58 721.097Z" fill="#7F858A"/>
<path d="M1077.02 702.01L908.887 951.841L911.312 953.474L1079.44 703.642L1077.02 702.01Z" fill="#7F858A"/>
<path d="M1064.32 682.056L896.219 931.918L898.645 933.55L1066.75 683.688L1064.32 682.056Z" fill="#7F858A"/>
<path d="M1051.76 662.97L883.656 912.832L886.082 914.464L1054.18 664.602L1051.76 662.97Z" fill="#7F858A"/>
<path d="M87.9461 147.403H0.924736L44.4354 80.9131L87.9461 147.403Z" fill="white" stroke="black"/>
</svg>
