<svg width="434" height="578" viewBox="0 0 434 578" fill="none" xmlns="http://www.w3.org/2000/svg">
<path d="M223.455 296.003H0.925607L112.19 126.268L223.455 296.003Z" fill="white" stroke="black"/>
<path d="M62.1035 139.666L8.01172 222.663H116.195L62.1035 139.666Z" fill="#313335"/>
<path d="M127.81 172.56L126.262 173.57L184.288 262.51L185.836 261.5L127.81 172.56Z" fill="#313335"/>
<path d="M119.674 174.863L60.6133 262.623L61.4653 263.196L120.526 175.436L119.674 174.863Z" fill="#FFF735"/>
<path d="M115.096 168.043L56.0352 255.803L56.8872 256.377L115.948 168.616L115.096 168.043Z" fill="#FFF735"/>
<path d="M110.8 161.155L51.75 248.926L52.6021 249.499L111.652 161.729L110.8 161.155Z" fill="#FFF735"/>
<path d="M106.39 154.451L47.3398 242.221L48.192 242.795L107.242 155.024L106.39 154.451Z" fill="#FFF735"/>
<path d="M261.871 197.478L358.321 50.3711H165.422L261.871 197.478Z" fill="white"/>
<path d="M297.075 0L276.469 31.482H317.682L297.075 0Z" fill="#313335"/>
<path d="M355.334 12.4643L233.719 200.052L236 201.531L357.616 13.9434L355.334 12.4643Z" fill="#313335"/>
<path d="M549.581 578L340 249.085L503.96 11L718 343.356L549.581 578Z" fill="#E9E9EB"/>
<path d="M518.056 428.951L419.328 575.654L420.752 576.613L519.48 429.909L518.056 428.951Z" fill="#7F858A"/>
<path d="M510.677 417.742L411.949 564.446L413.374 565.404L512.101 418.701L510.677 417.742Z" fill="#7F858A"/>
<path d="M503.222 406.025L404.512 552.746L405.936 553.705L504.646 406.984L503.222 406.025Z" fill="#7F858A"/>
<path d="M495.847 394.818L397.137 541.539L398.561 542.497L497.271 395.776L495.847 394.818Z" fill="#7F858A"/>
</svg>
